<svg xmlns="http://www.w3.org/2000/svg" xmlns:xlink="http://www.w3.org/1999/xlink" width="64" zoomAndPan="magnify" viewBox="0 0 48 48" height="64" preserveAspectRatio="xMidYMid meet" version="1.0"><defs><clipPath id="1d5b581735"><path d="M 4 1.769531 L 44 1.769531 L 44 45 L 4 45 Z M 4 1.769531 " clip-rule="nonzero"/></clipPath></defs><path fill="#000000" d="M 25.707031 10.625 C 25.699219 10.195312 25.734375 9.695312 25.378906 9.453125 C 25.101562 9.261719 24.640625 9.304688 24.425781 9.585938 C 24.269531 9.792969 24.269531 10.070312 24.265625 10.332031 C 24.273438 10.714844 24.257812 11.222656 24.28125 11.644531 C 24.289062 12.226562 24.675781 12.726562 25.261719 12.433594 C 25.859375 12.09375 25.695312 11.230469 25.707031 10.652344 Z M 25.707031 10.625 " fill-opacity="1" fill-rule="nonzero"/><path fill="#000000" d="M 12.226562 24.222656 C 11.675781 24.171875 10.988281 24.207031 10.476562 24.195312 C 9.980469 24.207031 9.5625 24.675781 9.769531 25.183594 C 9.914062 25.589844 10.320312 25.636719 10.695312 25.640625 C 11.058594 25.640625 11.382812 25.636719 11.761719 25.636719 C 12.015625 25.636719 12.234375 25.648438 12.457031 25.527344 C 13.078125 25.222656 12.820312 24.34375 12.25 24.230469 Z M 12.226562 24.222656 " fill-opacity="1" fill-rule="nonzero"/><path fill="#000000" d="M 39.71875 24.25 C 39.179688 24.148438 38.554688 24.230469 38.039062 24.214844 C 37.78125 24.21875 37.484375 24.292969 37.308594 24.484375 C 36.964844 24.859375 37.207031 25.515625 37.675781 25.613281 C 37.980469 25.675781 38.214844 25.632812 38.535156 25.644531 C 38.835938 25.636719 39.304688 25.679688 39.585938 25.625 C 40.398438 25.496094 40.417969 24.484375 39.738281 24.257812 L 39.714844 24.25 Z M 39.71875 24.25 " fill-opacity="1" fill-rule="nonzero"/><path fill="#000000" d="M 25.660156 38.132812 C 25.535156 37.765625 25.09375 37.511719 24.726562 37.675781 C 24.148438 37.941406 24.230469 38.738281 24.257812 39.335938 C 24.28125 39.859375 24.195312 40.628906 24.914062 40.609375 C 25.011719 40.609375 25.117188 40.589844 25.214844 40.558594 C 25.757812 40.390625 25.734375 39.863281 25.714844 39.398438 C 25.691406 39.03125 25.753906 38.515625 25.671875 38.15625 Z M 25.660156 38.132812 " fill-opacity="1" fill-rule="nonzero"/><path fill="#000000" d="M 16.476562 15.238281 C 16.121094 14.804688 15.609375 14.328125 15.257812 13.953125 C 14.894531 13.597656 14.269531 13.632812 14.0625 14.144531 C 13.882812 14.539062 14.136719 14.867188 14.402344 15.140625 C 14.660156 15.40625 14.890625 15.636719 15.160156 15.914062 C 15.339844 16.09375 15.488281 16.261719 15.730469 16.335938 C 16.382812 16.566406 16.8125 15.757812 16.488281 15.261719 Z M 16.476562 15.238281 " fill-opacity="1" fill-rule="nonzero"/><path fill="#000000" d="M 35.910156 35.105469 C 35.597656 34.644531 35.097656 34.25 34.746094 33.863281 C 34.558594 33.679688 34.300781 33.515625 34.042969 33.527344 C 33.539062 33.546875 33.253906 34.1875 33.515625 34.601562 C 33.6875 34.863281 33.886719 35.003906 34.101562 35.242188 C 34.324219 35.457031 34.625 35.828125 34.859375 35.992188 C 35.527344 36.492188 36.242188 35.78125 35.921875 35.125 L 35.910156 35.101562 Z M 35.910156 35.105469 " fill-opacity="1" fill-rule="nonzero"/><path fill="#000000" d="M 16.359375 34.785156 C 16.523438 34.433594 16.386719 33.933594 16.011719 33.78125 C 15.417969 33.546875 14.921875 34.171875 14.527344 34.617188 C 14.085938 35.074219 13.527344 35.625 14.273438 36.125 C 14.617188 36.359375 15.019531 36.285156 15.277344 35.976562 C 15.5 35.746094 15.648438 35.585938 15.886719 35.339844 C 16.085938 35.121094 16.21875 35.039062 16.351562 34.808594 L 16.363281 34.785156 Z M 16.359375 34.785156 " fill-opacity="1" fill-rule="nonzero"/><g clip-path="url(#1d5b581735)"><path fill="#000000" d="M 41.824219 7.441406 C 41.320312 7.917969 40.84375 7.691406 40.410156 7.265625 C 36.414062 3.722656 31.082031 1.769531 25.789062 1.8125 C 15.839844 1.804688 6.410156 9.769531 4.851562 19.863281 C 3.640625 27.429688 6.601562 35.671875 12.679688 40.277344 C 17.402344 43.859375 23.738281 45.117188 29.449219 43.75 C 33.277344 42.828125 36.96875 40.691406 39.3125 37.40625 C 39.390625 37.304688 39.488281 37.136719 39.328125 37.304688 C 37.699219 38.960938 35.765625 40.289062 33.660156 41.234375 C 30.292969 42.75 26.496094 43.292969 22.863281 42.65625 C 12.175781 40.859375 5.011719 28.617188 9.546875 18.320312 C 13.785156 7.527344 27.273438 4.453125 35.652344 12.238281 C 36.171875 12.699219 36.089844 13.132812 35.613281 13.5625 C 34.820312 14.375 34.023438 15.183594 33.230469 15.988281 C 33.046875 16.164062 33.078125 16.265625 33.335938 16.273438 C 36.558594 16.433594 39.789062 16.519531 43.015625 16.519531 C 43.347656 16.527344 43.722656 16.417969 43.804688 16.042969 C 43.976562 12.707031 43.902344 9.34375 43.988281 5.996094 C 43.988281 5.90625 43.988281 5.722656 43.929688 5.707031 C 43.855469 5.6875 43.78125 5.753906 43.714844 5.808594 C 43.089844 6.34375 42.46875 6.890625 41.84375 7.425781 Z M 41.824219 7.441406 " fill-opacity="1" fill-rule="nonzero"/></g><path fill="#000000" d="M 16.816406 26.59375 C 16.824219 26.53125 16.867188 26.507812 16.925781 26.492188 C 17.285156 26.421875 18.515625 26.171875 18.878906 26.105469 C 19.0625 26.078125 19.066406 26.34375 19.125 26.492188 C 19.308594 27.132812 19.65625 27.472656 20.175781 27.523438 C 21.375 27.585938 21.59375 26.222656 21.710938 25.046875 C 21.734375 24.703125 21.746094 24.402344 21.742188 24.09375 C 21.742188 23.988281 21.730469 23.902344 21.699219 23.882812 C 21.675781 23.863281 21.640625 23.882812 21.59375 23.933594 C 21.433594 24.121094 21.230469 24.328125 21.011719 24.457031 C 20.007812 25.054688 18.566406 24.898438 17.71875 24.078125 C 16.171875 22.515625 16.101562 19.636719 17.585938 18.046875 C 18.535156 17.003906 20.25 16.855469 21.546875 17.226562 C 22.835938 17.625 23.539062 18.824219 23.847656 20.152344 C 24.644531 23.878906 24.097656 29.511719 20.371094 29.453125 C 18.566406 29.558594 17.179688 28.511719 16.816406 26.609375 Z M 21.640625 20.816406 C 21.695312 19.636719 20.890625 18.558594 19.746094 19.121094 C 19.089844 19.515625 18.992188 20.304688 19.019531 21.011719 C 19.066406 22.070312 19.476562 22.632812 20.246094 22.667969 C 21.277344 22.75 21.664062 21.8125 21.640625 20.851562 Z M 21.640625 20.816406 " fill-opacity="1" fill-rule="nonzero"/><path fill="#000000" d="M 33.5 23.132812 C 33.4375 25.757812 33.226562 28.320312 31.050781 29.210938 C 30.5625 29.398438 29.945312 29.476562 29.398438 29.457031 C 26.757812 29.414062 25.945312 27.3125 25.699219 24.917969 C 25.503906 22.691406 25.65625 19.726562 26.734375 18.308594 C 27.5625 17.066406 29.632812 16.757812 31.082031 17.304688 C 33.152344 18.132812 33.449219 20.753906 33.496094 23.09375 L 33.496094 23.128906 Z M 30.769531 23.246094 C 30.738281 21.800781 30.796875 20.25 30.410156 19.476562 C 30.003906 18.679688 28.84375 18.878906 28.601562 19.710938 C 28.355469 20.398438 28.335938 22.902344 28.363281 24.089844 C 28.429688 25.554688 28.335938 26.796875 28.964844 27.335938 C 29.265625 27.589844 29.789062 27.601562 30.113281 27.378906 C 30.367188 27.203125 30.539062 26.867188 30.585938 26.585938 C 30.726562 26.023438 30.78125 24.234375 30.773438 23.269531 L 30.773438 23.246094 Z M 30.769531 23.246094 " fill-opacity="1" fill-rule="nonzero"/><path fill="#000000" d="M 19.5 31.210938 C 20.507812 31.199219 21.730469 31.03125 22.042969 32.339844 C 22.222656 33.179688 22.179688 34.445312 21.328125 34.933594 C 20.820312 35.179688 20.085938 35.066406 19.5625 35.089844 C 19.519531 35.085938 19.460938 35.089844 19.46875 35.035156 C 19.46875 34.765625 19.46875 33.121094 19.46875 32.078125 C 19.484375 31.605469 19.433594 31.289062 19.492188 31.210938 L 19.5 31.207031 Z M 20.332031 31.875 C 20.277344 31.902344 20.316406 31.964844 20.304688 32.078125 C 20.304688 32.421875 20.304688 32.800781 20.304688 33.191406 C 20.308594 33.738281 20.300781 34.273438 20.308594 34.390625 C 20.3125 34.402344 20.320312 34.410156 20.332031 34.414062 C 21.007812 34.519531 21.230469 33.941406 21.242188 33.332031 C 21.28125 32.652344 21.195312 31.769531 20.34375 31.875 Z M 20.332031 31.875 " fill-opacity="1" fill-rule="nonzero"/><path fill="#000000" d="M 23.351562 31.210938 C 23.507812 31.199219 23.75 31.207031 23.921875 31.203125 C 24.078125 31.203125 24.148438 31.203125 24.167969 31.226562 C 24.1875 31.25 24.191406 31.300781 24.21875 31.375 C 24.46875 32.265625 25.144531 34.667969 25.25 35.039062 C 25.261719 35.09375 25.230469 35.082031 25.15625 35.089844 C 24.988281 35.078125 24.621094 35.121094 24.4375 35.066406 C 24.351562 34.996094 24.359375 34.878906 24.3125 34.707031 C 24.242188 34.507812 24.28125 34.304688 24.097656 34.289062 C 23.9375 34.28125 23.492188 34.289062 23.289062 34.289062 C 23.144531 34.285156 23.121094 34.324219 23.082031 34.5 C 23.019531 34.703125 23.011719 34.9375 22.914062 35.054688 C 22.820312 35.113281 22.71875 35.082031 22.554688 35.089844 C 22.429688 35.078125 22.136719 35.132812 22.183594 35.027344 C 22.335938 34.601562 23.195312 31.476562 23.34375 31.210938 L 23.351562 31.207031 Z M 24.046875 33.621094 C 23.964844 33.222656 23.773438 32.480469 23.671875 32.046875 C 23.644531 32.023438 23.347656 33.425781 23.300781 33.59375 C 23.292969 33.632812 23.304688 33.621094 23.351562 33.625 C 23.453125 33.625 23.929688 33.628906 24.042969 33.621094 Z M 24.046875 33.621094 " fill-opacity="1" fill-rule="nonzero"/><path fill="#000000" d="M 24.917969 31.214844 C 25.070312 31.195312 25.371094 31.207031 25.550781 31.203125 C 25.675781 31.214844 25.777344 31.171875 25.839844 31.273438 C 25.960938 31.546875 26.289062 32.449219 26.351562 32.570312 C 26.378906 32.621094 26.410156 32.5 26.5 32.296875 C 26.625 31.984375 26.824219 31.503906 26.898438 31.320312 C 26.949219 31.195312 27.007812 31.207031 27.167969 31.203125 C 27.261719 31.203125 27.386719 31.203125 27.488281 31.203125 C 27.597656 31.214844 27.785156 31.171875 27.746094 31.269531 C 27.648438 31.472656 27.183594 32.445312 26.914062 33.007812 C 26.828125 33.222656 26.726562 33.324219 26.703125 33.515625 C 26.695312 33.734375 26.71875 34.753906 26.695312 35.035156 C 26.652344 35.132812 26.4375 35.078125 26.316406 35.09375 C 26.207031 35.09375 26.09375 35.09375 26.015625 35.09375 C 25.929688 35.089844 25.863281 35.09375 25.859375 35.007812 C 25.851562 34.757812 25.859375 33.875 25.855469 33.488281 C 25.765625 33.121094 24.960938 31.507812 24.914062 31.21875 L 24.921875 31.214844 Z M 24.917969 31.214844 " fill-opacity="1" fill-rule="nonzero"/><path fill="#000000" d="M 30.257812 32.003906 C 30.222656 32.09375 30.074219 32.132812 29.976562 32.171875 C 29.882812 32.207031 29.789062 32.253906 29.691406 32.25 C 29.566406 32.25 29.511719 32.101562 29.398438 31.992188 C 29.253906 31.847656 29.003906 31.808594 28.828125 31.917969 C 28.757812 31.964844 28.707031 32.035156 28.6875 32.117188 C 28.601562 32.597656 29.378906 32.679688 29.679688 32.871094 C 30.671875 33.261719 30.574219 34.726562 29.597656 35.054688 C 28.980469 35.277344 28.160156 35.125 27.847656 34.539062 C 27.757812 34.367188 27.589844 34.128906 27.851562 34.035156 C 28.023438 33.992188 28.308594 33.824219 28.445312 34.023438 C 28.511719 34.128906 28.578125 34.261719 28.683594 34.335938 C 29.023438 34.605469 29.683594 34.335938 29.445312 33.851562 C 29.125 33.441406 28.398438 33.46875 28.074219 33.035156 C 27.585938 32.488281 27.832031 31.484375 28.519531 31.238281 C 29.148438 30.988281 30.136719 31.210938 30.257812 31.984375 L 30.253906 32 Z M 30.257812 32.003906 " fill-opacity="1" fill-rule="nonzero"/></svg>