<svg xmlns="http://www.w3.org/2000/svg" xmlns:xlink="http://www.w3.org/1999/xlink" width="64" zoomAndPan="magnify" viewBox="0 0 48 48" height="64" preserveAspectRatio="xMidYMid meet" version="1.0"><defs><clipPath id="b4624a4639"><path d="M 4.046875 1.25 L 43.722656 1.25 L 43.722656 46 L 4.046875 46 Z M 4.046875 1.25 " clip-rule="nonzero"/></clipPath></defs><g clip-path="url(#b4624a4639)"><path fill="#000000" d="M 20.953125 1.234375 C 20.445312 1.246094 20.035156 1.671875 20.042969 2.1875 L 20.042969 7.8125 C 20.039062 8.148438 20.210938 8.464844 20.5 8.636719 C 20.792969 8.804688 21.144531 8.804688 21.433594 8.636719 C 21.722656 8.464844 21.898438 8.148438 21.894531 7.8125 L 21.894531 2.1875 C 21.898438 1.933594 21.800781 1.6875 21.621094 1.507812 C 21.445312 1.328125 21.203125 1.230469 20.953125 1.234375 Z M 12.625 4.054688 C 12.246094 4.054688 11.910156 4.285156 11.765625 4.636719 C 11.625 4.992188 11.707031 5.394531 11.980469 5.664062 L 15.683594 9.414062 C 15.914062 9.65625 16.261719 9.757812 16.585938 9.667969 C 16.910156 9.585938 17.164062 9.328125 17.246094 9 C 17.332031 8.671875 17.234375 8.320312 16.992188 8.085938 L 13.289062 4.335938 C 13.117188 4.152344 12.875 4.054688 12.625 4.054688 Z M 29.285156 4.054688 C 29.042969 4.058594 28.8125 4.160156 28.648438 4.335938 L 24.945312 8.085938 C 24.699219 8.320312 24.601562 8.671875 24.691406 9 C 24.773438 9.328125 25.027344 9.585938 25.351562 9.667969 C 25.675781 9.757812 26.019531 9.65625 26.253906 9.414062 L 29.957031 5.664062 C 30.230469 5.390625 30.3125 4.980469 30.164062 4.625 C 30.015625 4.265625 29.667969 4.039062 29.285156 4.054688 Z M 38.722656 5.007812 C 37.8125 5.007812 36.902344 5.355469 36.214844 6.050781 L 19.324219 23.148438 C 19.046875 22.632812 18.910156 22.359375 18.394531 21.460938 C 17.53125 19.980469 16.574219 18.371094 15.703125 17.484375 C 14.363281 16.128906 12.511719 15.191406 10.773438 14.710938 C 9.910156 14.472656 9.070312 14.347656 8.304688 14.378906 C 7.539062 14.40625 6.796875 14.574219 6.230469 15.140625 L 4.570312 16.820312 C 4.210938 17.1875 4.210938 17.785156 4.570312 18.152344 L 9.652344 23.296875 L 13.609375 35.296875 C 13.65625 35.4375 13.730469 35.5625 13.832031 35.664062 L 21.101562 43.027344 C 24.089844 46.050781 28.957031 46.050781 31.945312 43.027344 L 33.546875 41.402344 L 33.164062 41.402344 C 33.410156 41.402344 33.644531 41.304688 33.820312 41.128906 L 42.152344 32.691406 C 43.527344 31.296875 43.527344 29.011719 42.152344 27.613281 C 41.601562 27.054688 40.898438 26.785156 40.179688 26.671875 C 40.621094 25.40625 40.371094 23.933594 39.375 22.925781 C 38.824219 22.367188 38.121094 22.09375 37.402344 21.984375 C 37.84375 20.71875 37.59375 19.246094 36.597656 18.238281 C 36.15625 17.792969 35.613281 17.542969 35.050781 17.382812 L 41.226562 11.125 C 42.605469 9.730469 42.605469 7.445312 41.226562 6.050781 C 40.539062 5.355469 39.628906 5.007812 38.722656 5.007812 Z M 38.722656 6.867188 C 39.152344 6.867188 39.582031 7.035156 39.917969 7.375 C 40.585938 8.054688 40.585938 9.125 39.917969 9.800781 L 31.585938 18.238281 C 31.234375 18.609375 31.242188 19.191406 31.597656 19.550781 C 31.953125 19.914062 32.527344 19.921875 32.894531 19.566406 C 33.5625 18.886719 34.621094 18.886719 35.289062 19.566406 C 35.957031 20.242188 35.957031 21.3125 35.289062 21.988281 L 34.363281 22.925781 C 34.011719 23.296875 34.019531 23.878906 34.375 24.238281 C 34.730469 24.601562 35.304688 24.609375 35.671875 24.253906 C 36.339844 23.574219 37.398438 23.574219 38.066406 24.253906 C 38.734375 24.929688 38.734375 26 38.066406 26.675781 L 37.140625 27.613281 C 36.789062 27.984375 36.796875 28.566406 37.15625 28.925781 C 37.507812 29.289062 38.085938 29.296875 38.449219 28.941406 C 39.117188 28.261719 40.175781 28.261719 40.84375 28.941406 C 41.511719 29.617188 41.511719 30.6875 40.84375 31.367188 L 32.511719 39.804688 L 30.636719 41.699219 C 28.359375 44.007812 24.691406 44.007812 22.410156 41.699219 L 15.296875 34.492188 L 11.34375 22.492188 C 11.296875 22.355469 11.21875 22.230469 11.117188 22.125 L 6.535156 17.484375 L 7.542969 16.464844 C 7.585938 16.421875 7.871094 16.273438 8.378906 16.253906 C 8.882812 16.234375 9.5625 16.324219 10.289062 16.523438 C 11.742188 16.925781 13.367188 17.773438 14.394531 18.8125 C 14.878906 19.308594 15.957031 20.964844 16.792969 22.40625 C 17.628906 23.851562 18.300781 25.128906 18.300781 25.128906 C 18.4375 25.390625 18.691406 25.570312 18.980469 25.613281 C 19.269531 25.660156 19.566406 25.558594 19.769531 25.351562 L 37.523438 7.375 C 37.859375 7.035156 38.289062 6.867188 38.722656 6.867188 Z M 38.722656 6.867188 " fill-opacity="1" fill-rule="nonzero"/></g></svg>