<svg xmlns="http://www.w3.org/2000/svg" xmlns:xlink="http://www.w3.org/1999/xlink" width="64" zoomAndPan="magnify" viewBox="0 0 48 48" height="64" preserveAspectRatio="xMidYMid meet" version="1.0"><defs><clipPath id="fc398f1302"><path d="M 2.835938 5.730469 L 45 5.730469 L 45 40.996094 L 2.835938 40.996094 Z M 2.835938 5.730469 " clip-rule="nonzero"/></clipPath></defs><g clip-path="url(#fc398f1302)"><path fill="#000000" d="M 22.375 11.878906 C 22.6875 11.042969 23.734375 10.898438 24.492188 11.09375 C 24.863281 11.183594 25.332031 11.28125 25.355469 11.691406 C 25.363281 11.960938 25.082031 12.179688 24.820312 12.117188 C 24.390625 11.976562 23.921875 11.816406 23.476562 11.929688 C 23.074219 12.082031 23.015625 12.707031 23.4375 12.878906 L 24.8125 13.566406 C 25.324219 13.828125 25.59375 14.25 25.585938 14.808594 C 25.609375 15.996094 24.234375 16.472656 23.253906 16.058594 C 22.835938 15.914062 21.921875 15.523438 22.398438 14.980469 C 22.546875 14.835938 22.777344 14.816406 22.949219 14.921875 C 23.304688 15.117188 23.734375 15.355469 24.179688 15.328125 C 24.722656 15.355469 24.925781 14.550781 24.417969 14.339844 L 23.042969 13.648438 C 22.355469 13.339844 22.101562 12.546875 22.375 11.878906 Z M 18.492188 16.101562 C 18.675781 16.011719 19.105469 14.4375 19.1875 14.257812 L 19.730469 15.863281 C 19.835938 16.3125 20.511719 16.3125 20.59375 15.847656 L 21.566406 11.546875 C 21.722656 10.980469 20.816406 10.800781 20.710938 11.351562 L 20.082031 14.136719 L 19.628906 12.78125 C 19.566406 12.578125 19.417969 12.449219 19.203125 12.449219 C 18.988281 12.449219 18.839844 12.585938 18.773438 12.78125 L 18.3125 14.136719 L 17.6875 11.34375 C 17.628906 11.003906 17.160156 10.90625 16.9375 11.125 C 16.855469 11.207031 16.820312 11.3125 16.820312 11.441406 C 16.871094 12.585938 17.800781 14.824219 17.800781 15.832031 C 17.835938 16.171875 18.246094 16.3125 18.492188 16.101562 Z M 19.835938 25.5 L 27.785156 25.5 C 28.558594 25.5 28.558594 24.335938 27.785156 24.328125 L 19.835938 24.328125 C 19.0625 24.335938 19.070312 25.5 19.835938 25.5 Z M 42.457031 22.171875 C 42.695312 22.4375 42.875 22.746094 42.96875 23.078125 C 43.125 23.640625 43.050781 24.28125 42.71875 24.808594 L 40.570312 28.46875 C 39.945312 29.53125 38.558594 29.90625 37.472656 29.289062 L 36.574219 28.777344 L 34.855469 31.269531 C 34.855469 32.257812 34.855469 37.476562 34.855469 37.476562 C 34.855469 38.386719 34.484375 39.222656 33.882812 39.832031 C 33.542969 40.261719 32.210938 40.984375 31.417969 40.863281 L 7.835938 40.863281 C 6.460938 40.863281 5.207031 40.308594 4.300781 39.417969 C 3.394531 38.523438 2.835938 37.289062 2.835938 35.933594 L 2.835938 7.171875 C 2.835938 6.386719 3.484375 5.746094 4.285156 5.746094 L 30.570312 5.746094 C 30.964844 5.746094 31.328125 5.90625 31.589844 6.167969 C 31.855469 6.425781 32.019531 6.78125 32.019531 7.171875 L 32.019531 10.003906 L 33.410156 10.003906 C 34.210938 10.003906 34.863281 10.644531 34.863281 11.433594 L 34.863281 12.644531 C 38.082031 9.957031 43.652344 11.320312 44.761719 15.710938 C 45.445312 17.992188 44.449219 20.742188 42.457031 22.171875 Z M 32.011719 16.585938 C 32.234375 16.5625 32.464844 16.578125 32.6875 16.628906 C 32.820312 15.695312 33.28125 14.582031 33.527344 14.210938 C 33.570312 14.136719 33.617188 14.078125 33.667969 14.015625 L 33.667969 11.441406 C 33.667969 11.296875 33.542969 11.175781 33.394531 11.175781 L 32.003906 11.175781 L 32.003906 16.585938 Z M 26.550781 39.691406 C 25.808594 39.320312 25.09375 38.777344 24.574219 38.453125 C 23.980469 37.988281 23.816406 37.160156 24.1875 36.511719 L 24.351562 36.179688 L 7.070312 36.179688 C 6.300781 36.179688 6.292969 35.019531 7.070312 35.011719 C 7.070312 35.011719 22.367188 35.011719 24.917969 35.011719 L 26.089844 32.617188 L 19.835938 32.617188 C 19.0625 32.617188 19.0625 31.457031 19.835938 31.449219 L 26.65625 31.449219 L 27.835938 29.046875 C 27.820312 29.046875 27.800781 29.054688 27.785156 29.054688 L 19.835938 29.054688 C 19.0625 29.054688 19.0625 27.894531 19.835938 27.882812 L 27.785156 27.882812 C 28.023438 27.882812 28.179688 28 28.273438 28.152344 L 29.84375 24.9375 L 28.929688 24.417969 C 28.023438 23.898438 27.628906 22.851562 27.894531 21.902344 C 27.859375 21.910156 27.828125 21.925781 27.785156 21.925781 L 19.835938 21.925781 C 19.0625 21.925781 19.0625 20.765625 19.835938 20.757812 L 27.785156 20.757812 C 28.042969 20.757812 28.207031 20.886719 28.289062 21.058594 L 30.273438 17.667969 C 30.421875 17.414062 30.609375 17.203125 30.832031 17.035156 C 30.832031 15.71875 30.832031 10.558594 30.832031 10.558594 L 30.832031 7.171875 C 30.832031 7.027344 30.71875 6.914062 30.570312 6.914062 L 4.285156 6.914062 C 4.136719 6.914062 4.019531 7.027344 4.019531 7.171875 L 4.019531 35.933594 C 4.019531 36.964844 4.449219 37.90625 5.140625 38.589844 C 5.832031 39.269531 6.789062 39.691406 7.835938 39.691406 Z M 30.832031 37.089844 L 29.226562 39.410156 C 29.152344 39.523438 29.070312 39.613281 28.988281 39.691406 L 30.832031 39.691406 C 30.832031 39.417969 30.832031 39.058594 30.832031 38.671875 C 30.832031 38.167969 30.832031 37.605469 30.832031 37.089844 Z M 33.675781 32.980469 L 32.019531 35.375 L 32.019531 39.613281 C 32.984375 39.351562 33.675781 38.484375 33.675781 37.476562 Z M 35.554688 28.199219 L 30.867188 25.53125 L 25.222656 37.070312 C 25.132812 37.226562 25.175781 37.421875 25.304688 37.535156 C 25.785156 37.875 27.242188 38.710938 27.769531 38.9375 C 27.933594 39.003906 28.125 38.945312 28.214844 38.800781 C 28.222656 38.785156 29.425781 37.039062 30.875 34.945312 C 32.628906 32.429688 34.730469 29.394531 35.554688 28.199219 Z M 41.320312 22.730469 L 32.777344 17.878906 C 32.257812 17.585938 31.589844 17.765625 31.285156 18.273438 L 29.144531 21.925781 C 28.824219 22.421875 28.972656 23.113281 29.492188 23.421875 L 38.058594 28.296875 C 38.578125 28.589844 39.242188 28.410156 39.550781 27.902344 L 41.714844 24.199219 C 42.019531 23.6875 41.839844 23.023438 41.320312 22.730469 Z M 43.617188 16.019531 C 42.359375 11.660156 37.011719 11.457031 34.8125 14.378906 C 34.78125 14.46875 34.730469 14.550781 34.65625 14.597656 C 34.195312 15.296875 33.90625 16.148438 33.875 17.15625 L 41.410156 21.441406 C 43.238281 20.371094 44.210938 17.984375 43.617188 16.019531 Z M 6.902344 32.203125 C 6.640625 31.941406 6.476562 31.585938 6.476562 31.1875 L 6.476562 22.210938 C 6.476562 21.425781 7.125 20.773438 7.933594 20.773438 L 15.996094 20.773438 C 16.796875 20.773438 17.457031 21.417969 17.457031 22.210938 L 17.457031 31.1875 C 17.457031 31.984375 16.804688 32.625 15.996094 32.625 L 7.933594 32.625 C 7.53125 32.617188 7.167969 32.460938 6.902344 32.203125 Z M 7.652344 31.1875 C 7.652344 31.332031 7.777344 31.457031 7.925781 31.457031 L 15.996094 31.457031 C 16.144531 31.457031 16.269531 31.332031 16.269531 31.1875 L 16.269531 22.210938 C 16.269531 22.066406 16.144531 21.945312 15.996094 21.945312 L 7.933594 21.945312 C 7.785156 21.945312 7.660156 22.066406 7.660156 22.210938 L 7.660156 31.1875 Z M 6.476562 16.441406 L 6.476562 10.785156 C 6.476562 9.722656 7.355469 8.84375 8.445312 8.84375 L 26.402344 8.84375 C 27.488281 8.84375 28.371094 9.722656 28.371094 10.785156 L 28.371094 16.441406 C 28.371094 17.511719 27.488281 18.378906 26.402344 18.378906 L 8.445312 18.378906 C 7.355469 18.378906 6.476562 17.503906 6.476562 16.441406 Z M 7.652344 16.441406 C 7.652344 16.863281 8.007812 17.21875 8.445312 17.21875 L 26.402344 17.21875 C 26.617188 17.21875 26.8125 17.132812 26.960938 16.992188 C 27.101562 16.855469 27.191406 16.660156 27.191406 16.441406 L 27.191406 10.785156 C 27.191406 10.574219 27.101562 10.378906 26.960938 10.230469 C 26.820312 10.09375 26.625 10.003906 26.402344 10.003906 L 8.445312 10.003906 C 8.015625 10.003906 7.652344 10.355469 7.652344 10.785156 Z M 10.019531 16.082031 C 10.25 16.019531 10.089844 13.632812 10.132812 13.121094 L 11.753906 15.988281 C 11.953125 16.367188 12.621094 16.230469 12.578125 15.777344 L 12.578125 11.457031 C 12.578125 11.328125 12.539062 11.222656 12.464844 11.140625 C 12.199219 10.898438 11.65625 11.035156 11.707031 11.457031 L 11.707031 14.105469 L 10.101562 11.261719 C 9.902344 10.867188 9.226562 10.988281 9.261719 11.457031 L 9.261719 15.777344 C 9.226562 16.171875 9.761719 16.335938 10.019531 16.082031 Z M 13.714844 16.199219 L 15.660156 16.199219 C 16.246094 16.238281 16.246094 15.296875 15.660156 15.335938 L 14.152344 15.335938 L 14.152344 13.804688 C 14.6875 13.746094 15.628906 14.023438 15.609375 13.375 C 15.628906 12.722656 14.679688 12.992188 14.152344 12.941406 L 14.152344 11.886719 L 15.660156 11.886719 C 16.246094 11.929688 16.238281 10.988281 15.660156 11.019531 L 13.714844 11.019531 C 13.429688 11.019531 13.28125 11.164062 13.28125 11.449219 L 13.28125 15.757812 C 13.28125 16.027344 13.453125 16.207031 13.714844 16.199219 Z M 13.714844 16.199219 " fill-opacity="1" fill-rule="nonzero"/></g></svg>