<svg xmlns="http://www.w3.org/2000/svg" xmlns:xlink="http://www.w3.org/1999/xlink" width="64" zoomAndPan="magnify" viewBox="0 0 48 48" height="64" preserveAspectRatio="xMidYMid meet" version="1.0"><defs><clipPath id="f942e0e8e7"><path d="M 4.347656 3.855469 L 44.019531 3.855469 L 44.019531 43.53125 L 4.347656 43.53125 Z M 4.347656 3.855469 " clip-rule="nonzero"/></clipPath></defs><g clip-path="url(#f942e0e8e7)"><path fill="#000000" d="M 24.183594 3.855469 C 13.242188 3.855469 4.351562 12.757812 4.351562 23.699219 C 4.351562 34.636719 13.242188 43.53125 24.183594 43.53125 C 35.125 43.53125 44.015625 34.636719 44.015625 23.699219 C 44.015625 12.757812 35.125 3.855469 24.183594 3.855469 Z M 24.183594 40.316406 C 15.019531 40.316406 7.5625 32.859375 7.5625 23.699219 C 7.5625 14.535156 15.019531 7.078125 24.183594 7.078125 C 33.347656 7.078125 40.804688 14.535156 40.804688 23.699219 C 40.804688 32.859375 33.347656 40.316406 24.183594 40.316406 Z M 24.183594 40.316406 " fill-opacity="1" fill-rule="nonzero"/></g><path fill="#000000" d="M 33.011719 23.101562 L 18.957031 14.988281 C 18.503906 14.726562 17.933594 15.050781 17.933594 15.574219 L 17.933594 31.8125 C 17.933594 32.335938 18.503906 32.664062 18.957031 32.402344 L 33.019531 24.285156 C 33.472656 24.023438 33.472656 23.363281 33.011719 23.101562 Z M 33.011719 23.101562 " fill-opacity="1" fill-rule="nonzero"/></svg>