<svg xmlns="http://www.w3.org/2000/svg" xmlns:xlink="http://www.w3.org/1999/xlink" width="64" zoomAndPan="magnify" viewBox="0 0 48 48" height="64" preserveAspectRatio="xMidYMid meet" version="1.0"><defs><clipPath id="4eda61c2e6"><path d="M 4.046875 3.148438 L 43.71875 3.148438 L 43.71875 43.558594 L 4.046875 43.558594 Z M 4.046875 3.148438 " clip-rule="nonzero"/></clipPath></defs><path fill="#000000" d="M 33.488281 37.605469 L 9.164062 37.605469 C 7.902344 37.605469 6.875 36.578125 6.875 35.320312 L 6.875 17.800781 C 6.875 16.542969 7.902344 15.515625 9.164062 15.515625 L 33.488281 15.515625 C 34.753906 15.515625 35.777344 16.542969 35.777344 17.800781 L 35.777344 35.320312 C 35.777344 36.578125 34.753906 37.605469 33.488281 37.605469 Z M 9.164062 17.039062 C 8.742188 17.039062 8.402344 17.382812 8.402344 17.800781 L 8.402344 35.320312 C 8.402344 35.742188 8.742188 36.082031 9.164062 36.082031 L 33.488281 36.082031 C 33.910156 36.082031 34.253906 35.742188 34.253906 35.320312 L 34.253906 17.800781 C 34.253906 17.382812 33.910156 17.039062 33.488281 17.039062 Z M 9.164062 17.039062 " fill-opacity="1" fill-rule="nonzero"/><g clip-path="url(#4eda61c2e6)"><path fill="#000000" d="M 39.148438 12.46875 L 26.390625 12.46875 C 26.246094 11.960938 26.015625 11.492188 25.707031 11.082031 L 32.523438 4.546875 C 32.828125 4.253906 32.839844 3.773438 32.546875 3.46875 C 32.253906 3.164062 31.769531 3.15625 31.464844 3.445312 L 24.574219 10.054688 C 23.929688 9.652344 23.171875 9.421875 22.359375 9.421875 C 21.527344 9.421875 20.753906 9.667969 20.101562 10.085938 L 13.175781 3.445312 C 12.871094 3.15625 12.390625 3.164062 12.097656 3.46875 C 11.804688 3.773438 11.8125 4.253906 12.117188 4.546875 L 18.984375 11.132812 C 18.691406 11.527344 18.46875 11.980469 18.328125 12.46875 L 8.625 12.46875 C 6.097656 12.46875 4.046875 14.519531 4.046875 17.039062 L 4.046875 36.082031 C 4.046875 38.355469 5.714844 40.238281 7.890625 40.589844 L 7.640625 42.304688 L 7.632812 42.414062 C 7.632812 43.046875 8.117188 43.558594 8.714844 43.558594 L 11.257812 43.558594 C 11.832031 43.558594 12.304688 43.082031 12.335938 42.484375 L 12.605469 40.652344 L 35.167969 40.652344 L 35.4375 42.484375 C 35.46875 43.082031 35.9375 43.558594 36.515625 43.558594 L 39.058594 43.558594 C 39.65625 43.558594 40.140625 43.046875 40.140625 42.414062 L 39.878906 40.589844 C 42.058594 40.238281 43.726562 38.355469 43.726562 36.082031 L 43.726562 17.039062 C 43.726562 14.519531 41.671875 12.46875 39.148438 12.46875 Z M 22.359375 10.945312 C 23.421875 10.945312 24.347656 11.5625 24.777344 12.46875 L 19.945312 12.46875 C 20.375 11.5625 21.300781 10.945312 22.359375 10.945312 Z M 10.863281 42.035156 L 9.226562 42.035156 L 9.425781 40.652344 L 11.0625 40.652344 Z M 36.910156 42.035156 L 36.710938 40.652344 L 38.347656 40.652344 L 38.546875 42.035156 Z M 42.203125 36.082031 C 42.203125 37.765625 40.832031 39.128906 39.148438 39.128906 L 8.625 39.128906 C 6.941406 39.128906 5.570312 37.765625 5.570312 36.082031 L 5.570312 17.039062 C 5.570312 15.359375 6.941406 13.992188 8.625 13.992188 L 39.148438 13.992188 C 40.832031 13.992188 42.203125 15.359375 42.203125 17.039062 Z M 42.203125 36.082031 " fill-opacity="1" fill-rule="nonzero"/></g><path fill="#000000" d="M 38.832031 21.65625 C 37.566406 21.65625 36.542969 20.632812 36.542969 19.371094 C 36.542969 18.109375 37.570312 17.085938 38.832031 17.085938 C 40.09375 17.085938 41.121094 18.113281 41.121094 19.371094 C 41.121094 20.632812 40.09375 21.65625 38.832031 21.65625 Z M 38.832031 18.613281 C 38.410156 18.613281 38.066406 18.953125 38.066406 19.375 C 38.066406 19.792969 38.410156 20.136719 38.832031 20.136719 C 39.253906 20.136719 39.59375 19.792969 39.59375 19.375 C 39.59375 18.953125 39.253906 18.613281 38.832031 18.613281 Z M 38.832031 18.613281 " fill-opacity="1" fill-rule="nonzero"/><path fill="#000000" d="M 38.832031 26.894531 C 37.566406 26.894531 36.542969 25.867188 36.542969 24.609375 C 36.542969 23.347656 37.570312 22.324219 38.832031 22.324219 C 40.09375 22.324219 41.121094 23.351562 41.121094 24.609375 C 41.121094 25.871094 40.09375 26.894531 38.832031 26.894531 Z M 38.832031 23.847656 C 38.410156 23.847656 38.066406 24.1875 38.066406 24.609375 C 38.066406 25.03125 38.410156 25.371094 38.832031 25.371094 C 39.253906 25.371094 39.59375 25.03125 39.59375 24.609375 C 39.59375 24.1875 39.253906 23.847656 38.832031 23.847656 Z M 38.832031 23.847656 " fill-opacity="1" fill-rule="nonzero"/><path fill="#000000" d="M 40.359375 29.941406 L 37.304688 29.941406 C 36.882812 29.941406 36.542969 29.601562 36.542969 29.179688 C 36.542969 28.757812 36.882812 28.417969 37.304688 28.417969 L 40.359375 28.417969 C 40.78125 28.417969 41.121094 28.757812 41.121094 29.179688 C 41.121094 29.601562 40.78125 29.941406 40.359375 29.941406 Z M 40.359375 29.941406 " fill-opacity="1" fill-rule="nonzero"/><path fill="#000000" d="M 40.359375 32.988281 L 37.304688 32.988281 C 36.882812 32.988281 36.542969 32.648438 36.542969 32.226562 C 36.542969 31.804688 36.882812 31.464844 37.304688 31.464844 L 40.359375 31.464844 C 40.78125 31.464844 41.121094 31.804688 41.121094 32.226562 C 41.121094 32.648438 40.78125 32.988281 40.359375 32.988281 Z M 40.359375 32.988281 " fill-opacity="1" fill-rule="nonzero"/><path fill="#000000" d="M 40.359375 36.035156 L 37.304688 36.035156 C 36.882812 36.035156 36.542969 35.695312 36.542969 35.273438 C 36.542969 34.851562 36.882812 34.507812 37.304688 34.507812 L 40.359375 34.507812 C 40.78125 34.507812 41.121094 34.847656 41.121094 35.273438 C 41.121094 35.695312 40.78125 36.035156 40.359375 36.035156 Z M 40.359375 36.035156 " fill-opacity="1" fill-rule="nonzero"/><path fill="#000000" d="M 18.210938 32.066406 C 18.003906 32.066406 17.796875 32.015625 17.609375 31.910156 C 17.222656 31.691406 16.980469 31.28125 16.980469 30.839844 L 16.980469 22.285156 C 16.980469 21.839844 17.222656 21.429688 17.609375 21.214844 C 17.996094 20.996094 18.472656 21.007812 18.851562 21.238281 L 25.863281 25.515625 C 26.230469 25.742188 26.453125 26.132812 26.453125 26.5625 C 26.453125 26.992188 26.230469 27.386719 25.863281 27.609375 L 18.851562 31.886719 C 18.652344 32.007812 18.433594 32.066406 18.210938 32.066406 Z M 18.453125 31.234375 L 18.460938 31.234375 Z M 18.054688 30.585938 Z M 18.507812 22.8125 L 18.507812 30.308594 L 24.648438 26.5625 Z M 18.507812 22.8125 " fill-opacity="1" fill-rule="nonzero"/></svg>