<svg xmlns="http://www.w3.org/2000/svg" xmlns:xlink="http://www.w3.org/1999/xlink" width="64" zoomAndPan="magnify" viewBox="0 0 48 48" height="64" preserveAspectRatio="xMidYMid meet" version="1.0"><defs><clipPath id="459d4a466c"><path d="M 20 2.683594 L 40 2.683594 L 40 12 L 20 12 Z M 20 2.683594 " clip-rule="nonzero"/></clipPath><clipPath id="5201b680d5"><path d="M 18.753906 22.636719 L 42.207031 22.636719 L 42.207031 38.101562 L 18.753906 38.101562 Z M 18.753906 22.636719 " clip-rule="nonzero"/></clipPath><clipPath id="cf257d263f"><path d="M 12.46875 26.277344 L 30.539062 26.277344 L 30.539062 44.558594 L 12.46875 44.558594 Z M 12.46875 26.277344 " clip-rule="nonzero"/></clipPath><clipPath id="4684b408ee"><path d="M 5.488281 26 L 21 26 L 21 42 L 5.488281 42 Z M 5.488281 26 " clip-rule="nonzero"/></clipPath></defs><g clip-path="url(#459d4a466c)"><path fill="#373435" d="M 21.742188 10.960938 C 21.722656 11.203125 21.515625 11.382812 21.28125 11.363281 C 21.042969 11.347656 20.863281 11.136719 20.882812 10.898438 C 20.957031 9.90625 21.183594 8.949219 21.566406 8.0625 C 21.941406 7.191406 22.460938 6.386719 23.132812 5.675781 C 24.863281 3.835938 27.257812 2.886719 29.6875 2.753906 C 31.078125 2.679688 32.480469 2.871094 33.777344 3.316406 C 35.085938 3.765625 36.289062 4.472656 37.269531 5.421875 C 38.707031 6.808594 39.671875 8.710938 39.796875 11.089844 C 39.808594 11.332031 39.625 11.535156 39.390625 11.546875 C 39.152344 11.558594 38.949219 11.375 38.9375 11.132812 C 38.824219 9 37.964844 7.292969 36.675781 6.050781 C 35.789062 5.191406 34.695312 4.550781 33.503906 4.144531 C 32.304688 3.730469 31.011719 3.554688 29.734375 3.625 C 27.507812 3.746094 25.324219 4.605469 23.753906 6.273438 C 23.15625 6.914062 22.6875 7.632812 22.351562 8.410156 C 22.011719 9.203125 21.808594 10.0625 21.742188 10.960938 " fill-opacity="1" fill-rule="nonzero"/></g><path fill="#1a1a1a" d="M 23.28125 13.78125 L 23.28125 11.601562 C 23.28125 8.617188 25.125 6.710938 27.484375 5.878906 C 28.386719 5.558594 29.363281 5.398438 30.335938 5.398438 C 31.304688 5.398438 32.28125 5.558594 33.183594 5.878906 C 35.542969 6.710938 37.390625 8.617188 37.390625 11.601562 L 37.390625 13.78125 C 37.390625 13.785156 37.386719 13.828125 37.386719 13.941406 C 37.34375 16.246094 36.453125 18.15625 35.136719 19.488281 C 33.8125 20.828125 32.054688 21.589844 30.304688 21.589844 C 30.277344 21.589844 30.292969 21.585938 30.195312 21.585938 C 28.367188 21.554688 26.558594 20.683594 25.246094 19.199219 C 24.058594 17.847656 23.28125 15.984375 23.28125 13.78125 Z M 24.140625 11.601562 L 24.140625 13.78125 C 24.140625 15.753906 24.832031 17.417969 25.890625 18.617188 C 27.042969 19.925781 28.621094 20.6875 30.207031 20.714844 C 30.238281 20.714844 30.210938 20.714844 30.304688 20.714844 C 31.832031 20.714844 33.367188 20.046875 34.527344 18.871094 C 35.699219 17.6875 36.492188 15.988281 36.527344 13.929688 C 36.527344 13.917969 36.527344 13.890625 36.527344 13.78125 L 36.527344 11.601562 C 36.527344 9.050781 34.9375 7.417969 32.902344 6.699219 C 32.09375 6.414062 31.214844 6.273438 30.335938 6.273438 C 29.453125 6.273438 28.574219 6.414062 27.765625 6.699219 C 25.730469 7.417969 24.140625 9.050781 24.140625 11.601562 " fill-opacity="1" fill-rule="nonzero"/><g clip-path="url(#5201b680d5)"><path fill="#1a1a1a" d="M 25.625 38.007812 C 25.390625 38.007812 25.195312 37.808594 25.195312 37.570312 C 25.195312 37.328125 25.390625 37.132812 25.625 37.132812 L 41.3125 37.132812 L 40.742188 28.515625 C 40.574219 25.980469 38.988281 25.585938 36.871094 25.058594 C 35.921875 24.824219 34.875 24.5625 33.78125 24.09375 L 32.769531 23.660156 C 32.695312 23.707031 32.625 23.761719 32.554688 23.816406 C 32.425781 23.917969 32.292969 24.035156 32.15625 24.175781 L 30.660156 25.699219 C 30.496094 25.871094 30.222656 25.871094 30.054688 25.703125 L 28.515625 24.179688 C 28.382812 24.046875 28.25 23.929688 28.113281 23.828125 C 28.042969 23.773438 27.96875 23.722656 27.898438 23.671875 L 26.882812 24.09375 C 25.8125 24.539062 24.785156 24.796875 23.847656 25.027344 C 21.703125 25.558594 20.09375 25.957031 19.925781 28.515625 L 19.714844 31.675781 C 19.699219 31.914062 19.496094 32.097656 19.257812 32.082031 C 19.019531 32.066406 18.839844 31.855469 18.855469 31.617188 L 19.066406 28.457031 C 19.277344 25.261719 21.148438 24.796875 23.648438 24.179688 C 24.550781 23.957031 25.546875 23.710938 26.558594 23.289062 L 27.757812 22.789062 C 27.886719 22.726562 28.042969 22.730469 28.171875 22.8125 C 28.320312 22.90625 28.476562 23.011719 28.632812 23.132812 C 28.789062 23.253906 28.953125 23.394531 29.121094 23.558594 L 30.351562 24.78125 L 31.546875 23.5625 C 31.707031 23.394531 31.871094 23.25 32.03125 23.125 C 32.195312 22.996094 32.347656 22.890625 32.492188 22.800781 C 32.605469 22.726562 32.753906 22.710938 32.890625 22.765625 L 34.113281 23.292969 C 35.140625 23.730469 36.152344 23.984375 37.074219 24.210938 C 39.542969 24.824219 41.390625 25.285156 41.601562 28.457031 L 42.203125 37.515625 C 42.203125 37.53125 42.207031 37.550781 42.207031 37.570312 C 42.207031 37.808594 42.011719 38.007812 41.773438 38.007812 L 25.625 38.007812 " fill-opacity="1" fill-rule="nonzero"/></g><path fill="#1a1a1a" d="M 22.109375 11.546875 L 21.28125 11.546875 C 21.054688 11.546875 20.847656 11.644531 20.695312 11.796875 C 20.546875 11.945312 20.453125 12.15625 20.453125 12.386719 L 20.453125 14.34375 C 20.453125 14.472656 20.507812 14.589844 20.589844 14.671875 C 20.675781 14.757812 20.789062 14.8125 20.917969 14.8125 L 22.109375 14.8125 Z M 21.28125 10.675781 L 22.539062 10.675781 C 22.777344 10.675781 22.96875 10.871094 22.96875 11.113281 L 22.96875 15.246094 C 22.96875 15.488281 22.777344 15.683594 22.539062 15.683594 L 20.917969 15.683594 C 20.550781 15.683594 20.21875 15.535156 19.980469 15.289062 C 19.742188 15.046875 19.589844 14.710938 19.589844 14.34375 L 19.589844 12.386719 C 19.589844 11.914062 19.78125 11.488281 20.085938 11.175781 C 20.394531 10.867188 20.816406 10.675781 21.28125 10.675781 " fill-opacity="1" fill-rule="nonzero"/><path fill="#1a1a1a" d="M 38.128906 10.675781 L 39.386719 10.675781 C 39.851562 10.675781 40.273438 10.867188 40.582031 11.175781 C 40.886719 11.488281 41.078125 11.914062 41.078125 12.386719 L 41.078125 14.34375 C 41.078125 14.710938 40.929688 15.046875 40.6875 15.289062 C 40.449219 15.535156 40.117188 15.683594 39.753906 15.683594 L 38.128906 15.683594 C 37.890625 15.683594 37.699219 15.488281 37.699219 15.246094 L 37.699219 11.113281 C 37.699219 10.871094 37.890625 10.675781 38.128906 10.675781 Z M 39.386719 11.546875 L 38.5625 11.546875 L 38.5625 14.8125 L 39.753906 14.8125 C 39.878906 14.8125 39.996094 14.757812 40.078125 14.671875 C 40.164062 14.589844 40.214844 14.472656 40.214844 14.34375 L 40.214844 12.386719 C 40.214844 12.15625 40.121094 11.945312 39.972656 11.792969 C 39.820312 11.644531 39.613281 11.546875 39.386719 11.546875 " fill-opacity="1" fill-rule="nonzero"/><path fill="#1a1a1a" d="M 31.347656 18.929688 C 31.109375 18.929688 30.914062 18.734375 30.914062 18.492188 C 30.914062 18.25 31.109375 18.054688 31.347656 18.054688 L 36.515625 18.054688 C 37.585938 18.054688 38.144531 17.886719 38.410156 17.5 C 38.695312 17.085938 38.734375 16.339844 38.734375 15.246094 C 38.734375 15.007812 38.929688 14.8125 39.167969 14.8125 C 39.40625 14.8125 39.597656 15.007812 39.597656 15.246094 C 39.597656 16.503906 39.539062 17.378906 39.113281 18 C 38.667969 18.648438 37.898438 18.929688 36.515625 18.929688 L 31.347656 18.929688 " fill-opacity="1" fill-rule="nonzero"/><path fill="#1a1a1a" d="M 30.6875 18.378906 L 29.980469 18.378906 C 29.941406 18.378906 29.902344 18.394531 29.875 18.421875 L 29.875 18.425781 C 29.847656 18.453125 29.832031 18.488281 29.832031 18.53125 C 29.832031 18.574219 29.847656 18.613281 29.875 18.640625 C 29.902344 18.667969 29.941406 18.683594 29.980469 18.683594 L 30.6875 18.683594 C 30.726562 18.683594 30.765625 18.667969 30.792969 18.640625 C 30.820312 18.613281 30.835938 18.574219 30.835938 18.53125 C 30.835938 18.488281 30.820312 18.453125 30.792969 18.425781 L 30.792969 18.421875 C 30.765625 18.394531 30.726562 18.378906 30.6875 18.378906 Z M 29.980469 17.507812 L 30.6875 17.507812 C 30.964844 17.507812 31.214844 17.621094 31.398438 17.808594 L 31.402344 17.808594 C 31.585938 17.996094 31.699219 18.25 31.699219 18.53125 C 31.699219 18.8125 31.585938 19.070312 31.402344 19.253906 L 31.398438 19.257812 C 31.214844 19.441406 30.960938 19.558594 30.6875 19.558594 L 29.980469 19.558594 C 29.707031 19.558594 29.453125 19.441406 29.269531 19.257812 L 29.265625 19.253906 C 29.082031 19.066406 28.96875 18.8125 28.96875 18.53125 C 28.96875 18.25 29.082031 17.996094 29.265625 17.808594 L 29.269531 17.808594 L 29.269531 17.804688 C 29.453125 17.621094 29.707031 17.507812 29.980469 17.507812 " fill-opacity="1" fill-rule="nonzero"/><g clip-path="url(#cf257d263f)"><path fill="#1a1a1a" d="M 24.074219 26.472656 C 24.957031 26.242188 25.890625 26.25 26.765625 26.5 C 26.839844 26.519531 26.914062 26.558594 26.972656 26.617188 C 27.140625 26.789062 27.140625 27.0625 26.972656 27.234375 L 23.53125 30.71875 L 26.152344 33.375 L 29.589844 29.890625 L 29.59375 29.890625 C 29.640625 29.839844 29.707031 29.800781 29.777344 29.777344 C 30.007812 29.714844 30.246094 29.847656 30.3125 30.078125 C 30.5625 30.972656 30.574219 31.921875 30.34375 32.820312 C 30.121094 33.691406 29.675781 34.515625 29.003906 35.195312 C 28.351562 35.851562 27.570312 36.300781 26.742188 36.53125 C 25.960938 36.75 25.140625 36.777344 24.355469 36.617188 L 17.34375 43.71875 C 16.789062 44.277344 16.0625 44.558594 15.332031 44.558594 C 14.601562 44.558594 13.875 44.277344 13.320312 43.71875 C 12.765625 43.15625 12.488281 42.417969 12.488281 41.679688 C 12.488281 40.941406 12.765625 40.203125 13.320312 39.644531 L 20.332031 32.542969 C 20.171875 31.742188 20.199219 30.914062 20.414062 30.125 C 20.644531 29.28125 21.082031 28.488281 21.734375 27.832031 C 22.40625 27.152344 23.214844 26.699219 24.074219 26.472656 Z M 25.789062 27.199219 C 25.285156 27.148438 24.78125 27.1875 24.292969 27.316406 C 23.578125 27.503906 22.902344 27.878906 22.34375 28.449219 C 21.800781 29 21.433594 29.65625 21.242188 30.355469 C 21.046875 31.078125 21.039062 31.84375 21.21875 32.574219 C 21.257812 32.730469 21.210938 32.882812 21.105469 32.988281 L 13.929688 40.261719 C 13.542969 40.652344 13.351562 41.164062 13.351562 41.679688 C 13.351562 42.195312 13.542969 42.710938 13.929688 43.101562 C 14.316406 43.492188 14.824219 43.6875 15.332031 43.6875 C 15.839844 43.6875 16.347656 43.492188 16.734375 43.101562 L 23.910156 35.832031 C 24.027344 35.710938 24.195312 35.675781 24.339844 35.722656 C 25.054688 35.898438 25.804688 35.890625 26.511719 35.691406 C 27.199219 35.5 27.851562 35.128906 28.394531 34.578125 C 28.953125 34.011719 29.328125 33.324219 29.511719 32.605469 C 29.636719 32.109375 29.675781 31.597656 29.628906 31.089844 L 26.660156 34.097656 C 26.519531 34.238281 26.335938 34.308594 26.152344 34.308594 C 25.96875 34.308594 25.785156 34.238281 25.648438 34.097656 L 25.644531 34.09375 L 25.644531 34.097656 L 22.820312 31.234375 C 22.808594 31.21875 22.796875 31.207031 22.785156 31.195312 C 22.667969 31.058594 22.609375 30.890625 22.609375 30.71875 C 22.609375 30.535156 22.679688 30.347656 22.820312 30.207031 L 25.789062 27.199219 " fill-opacity="1" fill-rule="nonzero"/></g><path fill="#1a1a1a" d="M 20.578125 35.75 C 20.746094 35.578125 21.019531 35.578125 21.1875 35.75 C 21.355469 35.917969 21.355469 36.195312 21.1875 36.367188 L 15.632812 41.996094 C 15.464844 42.164062 15.191406 42.164062 15.023438 41.996094 C 14.855469 41.824219 14.855469 41.546875 15.023438 41.378906 L 20.578125 35.75 " fill-opacity="1" fill-rule="nonzero"/><path fill="#1a1a1a" d="M 14.363281 32.816406 C 13.96875 32.421875 13.425781 32.175781 12.828125 32.175781 C 12.230469 32.175781 11.6875 32.421875 11.292969 32.816406 C 10.902344 33.214844 10.660156 33.765625 10.660156 34.371094 C 10.660156 34.976562 10.902344 35.527344 11.292969 35.925781 C 11.6875 36.320312 12.230469 36.566406 12.828125 36.566406 C 13.425781 36.566406 13.96875 36.320312 14.363281 35.925781 C 14.753906 35.527344 14.996094 34.976562 14.996094 34.371094 C 14.996094 33.765625 14.753906 33.214844 14.363281 32.816406 Z M 12.828125 31.300781 C 13.664062 31.300781 14.421875 31.644531 14.972656 32.199219 C 15.519531 32.757812 15.859375 33.523438 15.859375 34.371094 C 15.859375 35.21875 15.519531 35.988281 14.972656 36.542969 C 14.421875 37.097656 13.664062 37.441406 12.828125 37.441406 C 11.992188 37.441406 11.234375 37.097656 10.683594 36.542969 C 10.136719 35.988281 9.796875 35.21875 9.796875 34.371094 C 9.796875 33.523438 10.136719 32.757812 10.683594 32.199219 C 11.234375 31.644531 11.992188 31.300781 12.828125 31.300781 " fill-opacity="1" fill-rule="nonzero"/><g clip-path="url(#4684b408ee)"><path fill="#1a1a1a" d="M 12.941406 40.910156 C 13.179688 40.910156 13.375 41.105469 13.375 41.347656 C 13.375 41.589844 13.179688 41.785156 12.941406 41.785156 L 12.054688 41.785156 C 11.828125 41.785156 11.640625 41.605469 11.625 41.382812 L 11.386719 39.882812 C 11.140625 39.820312 10.902344 39.738281 10.675781 39.640625 C 10.441406 39.542969 10.214844 39.429688 10 39.304688 L 8.757812 40.210938 C 8.585938 40.339844 8.347656 40.316406 8.203125 40.167969 L 7.105469 39.058594 C 6.949219 38.898438 6.9375 38.644531 7.074219 38.476562 L 7.960938 37.238281 C 7.835938 37.019531 7.722656 36.789062 7.625 36.554688 C 7.53125 36.320312 7.449219 36.078125 7.386719 35.832031 L 5.875 35.585938 C 5.664062 35.550781 5.511719 35.367188 5.511719 35.15625 L 5.511719 33.585938 C 5.511719 33.355469 5.6875 33.167969 5.910156 33.152344 L 7.386719 32.910156 C 7.449219 32.664062 7.53125 32.421875 7.625 32.191406 C 7.722656 31.953125 7.835938 31.722656 7.960938 31.507812 L 7.0625 30.25 C 6.9375 30.074219 6.960938 29.835938 7.105469 29.683594 L 8.203125 28.574219 C 8.359375 28.414062 8.609375 28.40625 8.777344 28.542969 L 10 29.441406 C 10.214844 29.3125 10.441406 29.199219 10.675781 29.101562 C 10.902344 29.003906 11.140625 28.921875 11.386719 28.859375 L 11.628906 27.328125 C 11.664062 27.113281 11.84375 26.960938 12.054688 26.960938 L 12.054688 26.957031 L 13.601562 26.957031 C 13.828125 26.957031 14.015625 27.136719 14.03125 27.363281 L 14.269531 28.859375 C 14.515625 28.921875 14.753906 29.003906 14.984375 29.101562 C 15.214844 29.199219 15.441406 29.3125 15.65625 29.441406 L 16.898438 28.53125 C 17.070312 28.402344 17.308594 28.425781 17.453125 28.574219 L 18.550781 29.683594 C 18.707031 29.84375 18.71875 30.097656 18.582031 30.269531 L 17.695312 31.507812 C 17.820312 31.726562 17.933594 31.953125 18.03125 32.191406 C 18.125 32.421875 18.207031 32.664062 18.269531 32.910156 L 19.78125 33.15625 C 20.015625 33.195312 20.175781 33.417969 20.140625 33.65625 C 20.101562 33.890625 19.882812 34.054688 19.648438 34.015625 L 17.867188 33.726562 C 17.6875 33.707031 17.535156 33.570312 17.496094 33.382812 C 17.4375 33.085938 17.347656 32.800781 17.234375 32.523438 C 17.121094 32.246094 16.980469 31.976562 16.816406 31.726562 C 16.722656 31.578125 16.722656 31.382812 16.828125 31.230469 L 17.679688 30.039062 L 17.105469 29.453125 L 15.941406 30.308594 C 15.796875 30.421875 15.597656 30.433594 15.441406 30.328125 C 15.191406 30.164062 14.925781 30.023438 14.652344 29.90625 C 14.378906 29.792969 14.097656 29.703125 13.804688 29.640625 C 13.632812 29.605469 13.496094 29.46875 13.46875 29.28125 L 13.238281 27.832031 L 12.417969 27.832031 L 12.191406 29.265625 C 12.171875 29.445312 12.039062 29.601562 11.851562 29.640625 C 11.558594 29.703125 11.277344 29.792969 11.003906 29.90625 C 10.730469 30.023438 10.464844 30.164062 10.214844 30.328125 C 10.070312 30.425781 9.878906 30.425781 9.730469 30.316406 L 8.550781 29.453125 L 7.976562 30.039062 L 8.816406 31.21875 C 8.929688 31.363281 8.941406 31.566406 8.839844 31.726562 C 8.675781 31.976562 8.535156 32.246094 8.421875 32.523438 C 8.308594 32.800781 8.21875 33.085938 8.160156 33.382812 C 8.125 33.554688 7.988281 33.695312 7.804688 33.726562 L 6.371094 33.957031 L 6.371094 34.785156 L 7.789062 35.015625 C 7.96875 35.035156 8.121094 35.171875 8.160156 35.359375 C 8.21875 35.65625 8.308594 35.941406 8.421875 36.21875 C 8.535156 36.496094 8.675781 36.765625 8.839844 37.015625 C 8.933594 37.164062 8.933594 37.359375 8.828125 37.511719 L 7.976562 38.703125 L 8.550781 39.289062 L 9.71875 38.433594 C 9.859375 38.324219 10.058594 38.308594 10.214844 38.414062 C 10.464844 38.578125 10.730469 38.71875 11.003906 38.835938 C 11.277344 38.949219 11.558594 39.039062 11.851562 39.101562 C 12.023438 39.136719 12.160156 39.277344 12.191406 39.460938 L 12.417969 40.910156 L 12.941406 40.910156 " fill-opacity="1" fill-rule="nonzero"/></g></svg>