<svg xmlns="http://www.w3.org/2000/svg" xmlns:xlink="http://www.w3.org/1999/xlink" width="64" zoomAndPan="magnify" viewBox="0 0 48 48" height="64" preserveAspectRatio="xMidYMid meet" version="1.0"><defs><clipPath id="efef71641f"><path d="M 5.191406 4 L 25 4 L 25 40 L 5.191406 40 Z M 5.191406 4 " clip-rule="nonzero"/></clipPath><clipPath id="4162e6071a"><path d="M 23 1.1875 L 30 1.1875 L 30 10 L 23 10 Z M 23 1.1875 " clip-rule="nonzero"/></clipPath><clipPath id="dbfc138df4"><path d="M 23 7 L 42.660156 7 L 42.660156 43 L 23 43 Z M 23 7 " clip-rule="nonzero"/></clipPath></defs><path fill="#000002" d="M 23.925781 29.597656 C 20.648438 29.597656 17.992188 26.921875 17.992188 23.59375 C 17.992188 20.289062 20.648438 17.617188 23.925781 17.617188 C 27.207031 17.617188 29.886719 20.289062 29.886719 23.59375 C 29.886719 26.921875 27.207031 29.597656 23.925781 29.597656 Z M 23.925781 18.796875 C 21.296875 18.796875 19.164062 20.945312 19.164062 23.59375 C 19.164062 26.242188 21.296875 28.390625 23.925781 28.390625 C 26.554688 28.390625 28.6875 26.242188 28.6875 23.59375 C 28.6875 20.945312 26.554688 18.796875 23.925781 18.796875 Z M 23.925781 18.796875 " fill-opacity="1" fill-rule="evenodd"/><g clip-path="url(#efef71641f)"><path fill="#000002" d="M 13.699219 39.296875 C 13.570312 39.296875 13.464844 39.273438 13.363281 39.191406 C 8.261719 35.652344 5.191406 29.832031 5.191406 23.59375 C 5.191406 13.1875 13.597656 4.71875 23.925781 4.71875 C 24.265625 4.71875 24.523438 4.980469 24.523438 5.320312 C 24.523438 5.660156 24.265625 5.925781 23.925781 5.925781 C 14.273438 5.925781 6.390625 13.867188 6.390625 23.59375 C 6.390625 29.441406 9.25 34.894531 14.039062 38.195312 C 14.300781 38.378906 14.378906 38.773438 14.195312 39.035156 C 14.066406 39.191406 13.882812 39.296875 13.699219 39.296875 Z M 13.699219 39.296875 " fill-opacity="1" fill-rule="evenodd"/></g><g clip-path="url(#4162e6071a)"><path fill="#000002" d="M 23.925781 9.410156 C 23.847656 9.410156 23.746094 9.382812 23.667969 9.359375 C 23.457031 9.253906 23.328125 9.042969 23.328125 8.808594 L 23.328125 1.835938 C 23.328125 1.597656 23.457031 1.414062 23.667969 1.308594 C 23.847656 1.203125 24.109375 1.203125 24.289062 1.335938 L 29.207031 4.824219 C 29.363281 4.953125 29.441406 5.136719 29.441406 5.320312 C 29.441406 5.53125 29.363281 5.714844 29.207031 5.820312 L 24.289062 9.304688 C 24.1875 9.382812 24.054688 9.410156 23.925781 9.410156 Z M 24.523438 2.988281 L 24.523438 7.65625 L 27.828125 5.320312 Z M 24.523438 2.988281 " fill-opacity="1" fill-rule="evenodd"/></g><g clip-path="url(#dbfc138df4)"><path fill="#000002" d="M 23.925781 42.46875 C 23.613281 42.46875 23.328125 42.207031 23.328125 41.894531 C 23.328125 41.550781 23.613281 41.289062 23.925781 41.289062 C 33.605469 41.289062 41.492188 33.347656 41.492188 23.59375 C 41.492188 17.773438 38.628906 12.292969 33.839844 9.019531 C 33.554688 8.808594 33.503906 8.441406 33.683594 8.179688 C 33.867188 7.890625 34.230469 7.835938 34.515625 8.019531 C 39.617188 11.535156 42.660156 17.378906 42.660156 23.59375 C 42.660156 34.003906 34.257812 42.46875 23.925781 42.46875 Z M 23.925781 42.46875 " fill-opacity="1" fill-rule="evenodd"/></g><path fill="#000002" d="M 23.925781 45.984375 C 23.824219 45.984375 23.691406 45.929688 23.589844 45.851562 L 18.671875 42.367188 C 18.515625 42.261719 18.410156 42.078125 18.410156 41.894531 C 18.410156 41.683594 18.515625 41.5 18.671875 41.394531 L 23.589844 37.910156 C 23.769531 37.777344 24.003906 37.75 24.210938 37.855469 C 24.394531 37.960938 24.523438 38.171875 24.523438 38.378906 L 24.523438 45.378906 C 24.523438 45.589844 24.394531 45.800781 24.210938 45.90625 C 24.132812 45.957031 24.03125 45.984375 23.925781 45.984375 Z M 20.050781 41.894531 L 23.328125 44.226562 L 23.328125 39.558594 Z M 20.050781 41.894531 " fill-opacity="1" fill-rule="evenodd"/><path fill="#000002" d="M 25.773438 36.363281 L 22.105469 36.363281 C 21.820312 36.363281 21.558594 36.152344 21.507812 35.863281 L 20.855469 31.800781 C 19.972656 31.460938 19.164062 30.988281 18.4375 30.382812 L 14.609375 31.851562 C 14.351562 31.957031 14.039062 31.828125 13.882812 31.589844 L 12.0625 28.390625 C 11.90625 28.128906 11.957031 27.789062 12.191406 27.605469 L 15.367188 25.011719 C 15.289062 24.5625 15.234375 24.066406 15.234375 23.59375 C 15.234375 23.121094 15.289062 22.648438 15.367188 22.179688 L 12.191406 19.582031 C 11.957031 19.398438 11.90625 19.085938 12.0625 18.824219 L 13.882812 15.625 C 14.039062 15.363281 14.351562 15.257812 14.609375 15.363281 L 18.4375 16.832031 C 19.164062 16.226562 19.972656 15.753906 20.855469 15.414062 L 21.507812 11.351562 C 21.558594 11.0625 21.820312 10.851562 22.105469 10.851562 L 25.773438 10.851562 C 26.058594 10.851562 26.320312 11.0625 26.347656 11.351562 L 26.996094 15.414062 C 27.882812 15.753906 28.714844 16.226562 29.441406 16.832031 L 33.242188 15.363281 C 33.527344 15.257812 33.839844 15.363281 33.96875 15.625 L 35.816406 18.824219 C 35.949219 19.085938 35.894531 19.398438 35.660156 19.582031 L 32.511719 22.179688 C 32.589844 22.648438 32.617188 23.121094 32.617188 23.59375 C 32.617188 24.066406 32.589844 24.539062 32.511719 25.011719 L 35.660156 27.605469 C 35.894531 27.789062 35.949219 28.128906 35.816406 28.390625 L 33.96875 31.589844 C 33.839844 31.828125 33.527344 31.929688 33.242188 31.828125 L 29.441406 30.382812 C 28.714844 30.988281 27.882812 31.460938 26.996094 31.800781 L 26.347656 35.863281 C 26.320312 36.152344 26.058594 36.363281 25.773438 36.363281 Z M 22.597656 35.15625 L 25.253906 35.15625 L 25.878906 31.25 C 25.929688 31.039062 26.085938 30.855469 26.292969 30.777344 C 27.257812 30.464844 28.140625 29.9375 28.921875 29.230469 C 29.078125 29.101562 29.3125 29.046875 29.519531 29.125 L 33.214844 30.542969 L 34.515625 28.234375 L 31.472656 25.71875 C 31.316406 25.585938 31.238281 25.351562 31.289062 25.140625 C 31.367188 24.644531 31.421875 24.117188 31.421875 23.59375 C 31.421875 23.097656 31.367188 22.570312 31.289062 22.074219 C 31.238281 21.835938 31.316406 21.628906 31.472656 21.46875 L 34.515625 18.980469 L 33.214844 16.671875 L 29.519531 18.089844 C 29.3125 18.167969 29.078125 18.113281 28.921875 17.957031 C 28.140625 17.277344 27.257812 16.75 26.292969 16.4375 C 26.085938 16.359375 25.929688 16.175781 25.878906 15.964844 L 25.253906 12.058594 L 22.597656 12.058594 L 21.976562 15.964844 C 21.949219 16.175781 21.792969 16.359375 21.585938 16.4375 C 20.597656 16.75 19.710938 17.277344 18.957031 17.957031 C 18.773438 18.113281 18.539062 18.167969 18.332031 18.089844 L 14.664062 16.671875 L 13.335938 18.980469 L 16.378906 21.46875 C 16.5625 21.628906 16.640625 21.835938 16.589844 22.074219 C 16.484375 22.570312 16.433594 23.097656 16.433594 23.59375 C 16.433594 24.117188 16.484375 24.644531 16.589844 25.140625 C 16.640625 25.351562 16.5625 25.585938 16.378906 25.71875 L 13.335938 28.234375 L 14.664062 30.542969 L 18.332031 29.125 C 18.539062 29.046875 18.773438 29.101562 18.957031 29.230469 C 19.710938 29.9375 20.597656 30.464844 21.585938 30.777344 C 21.792969 30.855469 21.949219 31.039062 21.976562 31.25 Z M 22.597656 35.15625 " fill-opacity="1" fill-rule="evenodd"/></svg>