<svg xmlns="http://www.w3.org/2000/svg" xmlns:xlink="http://www.w3.org/1999/xlink" width="64" zoomAndPan="magnify" viewBox="0 0 48 48" height="64" preserveAspectRatio="xMidYMid meet" version="1.0"><defs><clipPath id="b898c45747"><path d="M 5 0.808594 L 44.316406 0.808594 L 44.316406 43 L 5 43 Z M 5 0.808594 " clip-rule="nonzero"/></clipPath></defs><path fill="#000000" d="M 26.117188 9.539062 C 26.109375 9.121094 26.144531 8.625 25.789062 8.386719 C 25.511719 8.195312 25.050781 8.238281 24.839844 8.515625 C 24.683594 8.722656 24.683594 8.992188 24.683594 9.253906 C 24.691406 9.628906 24.675781 10.132812 24.695312 10.546875 C 24.703125 11.121094 25.089844 11.613281 25.671875 11.328125 C 26.265625 10.988281 26.101562 10.136719 26.113281 9.566406 L 26.113281 9.539062 Z M 26.117188 9.539062 " fill-opacity="1" fill-rule="nonzero"/><path fill="#000000" d="M 12.710938 22.949219 C 12.164062 22.902344 11.476562 22.933594 10.972656 22.921875 C 10.476562 22.933594 10.058594 23.398438 10.265625 23.898438 C 10.410156 24.296875 10.8125 24.34375 11.1875 24.347656 C 11.550781 24.351562 11.871094 24.347656 12.25 24.34375 C 12.5 24.34375 12.71875 24.355469 12.9375 24.238281 C 13.554688 23.933594 13.300781 23.070312 12.734375 22.957031 L 12.707031 22.949219 Z M 12.710938 22.949219 " fill-opacity="1" fill-rule="nonzero"/><path fill="#000000" d="M 40.042969 22.976562 C 39.511719 22.878906 38.890625 22.957031 38.378906 22.941406 C 38.117188 22.949219 37.828125 23.019531 37.648438 23.207031 C 37.308594 23.578125 37.550781 24.222656 38.015625 24.324219 C 38.316406 24.382812 38.550781 24.339844 38.871094 24.351562 C 39.171875 24.34375 39.636719 24.386719 39.914062 24.332031 C 40.722656 24.207031 40.742188 23.207031 40.066406 22.984375 Z M 40.042969 22.976562 " fill-opacity="1" fill-rule="nonzero"/><path fill="#000000" d="M 26.070312 36.667969 C 25.945312 36.308594 25.503906 36.058594 25.136719 36.214844 C 24.5625 36.476562 24.644531 37.261719 24.671875 37.855469 C 24.695312 38.371094 24.609375 39.128906 25.324219 39.109375 C 25.421875 39.109375 25.527344 39.089844 25.621094 39.058594 C 26.164062 38.894531 26.144531 38.375 26.121094 37.914062 C 26.101562 37.554688 26.160156 37.046875 26.078125 36.691406 Z M 26.070312 36.667969 " fill-opacity="1" fill-rule="nonzero"/><path fill="#000000" d="M 16.9375 14.089844 C 16.582031 13.660156 16.074219 13.195312 15.722656 12.820312 C 15.363281 12.472656 14.742188 12.507812 14.535156 13.011719 C 14.359375 13.398438 14.609375 13.726562 14.875 13.996094 C 15.128906 14.257812 15.359375 14.484375 15.628906 14.753906 C 15.804688 14.933594 15.953125 15.097656 16.191406 15.175781 C 16.84375 15.398438 17.269531 14.601562 16.949219 14.113281 L 16.933594 14.089844 Z M 16.9375 14.089844 " fill-opacity="1" fill-rule="nonzero"/><path fill="#000000" d="M 36.257812 33.683594 C 35.949219 33.226562 35.453125 32.839844 35.101562 32.457031 C 34.917969 32.273438 34.660156 32.117188 34.402344 32.125 C 33.902344 32.144531 33.617188 32.777344 33.878906 33.183594 C 34.050781 33.445312 34.25 33.582031 34.460938 33.820312 C 34.683594 34.027344 34.980469 34.394531 35.214844 34.554688 C 35.878906 35.050781 36.589844 34.347656 36.269531 33.703125 L 36.257812 33.679688 Z M 36.257812 33.683594 " fill-opacity="1" fill-rule="nonzero"/><path fill="#000000" d="M 16.820312 33.367188 C 16.984375 33.019531 16.847656 32.527344 16.472656 32.375 C 15.882812 32.148438 15.390625 32.761719 15 33.199219 C 14.558594 33.652344 14.003906 34.195312 14.746094 34.6875 C 15.089844 34.921875 15.488281 34.847656 15.742188 34.539062 C 15.964844 34.3125 16.109375 34.15625 16.347656 33.914062 C 16.546875 33.699219 16.679688 33.617188 16.8125 33.390625 L 16.824219 33.367188 Z M 16.820312 33.367188 " fill-opacity="1" fill-rule="nonzero"/><g clip-path="url(#b898c45747)"><path fill="#000000" d="M 42.140625 6.402344 C 41.640625 6.871094 41.164062 6.648438 40.734375 6.230469 C 36.761719 2.734375 31.460938 0.808594 26.195312 0.851562 C 16.304688 0.84375 6.925781 8.699219 5.375 18.652344 C 4.171875 26.113281 7.117188 34.242188 13.160156 38.785156 C 17.859375 42.316406 24.15625 43.554688 29.835938 42.207031 C 33.640625 41.296875 37.3125 39.191406 39.640625 35.949219 C 39.71875 35.851562 39.820312 35.6875 39.65625 35.847656 C 38.039062 37.484375 36.117188 38.796875 34.023438 39.726562 C 19.625 46.363281 3.941406 32.230469 10.042969 17.128906 C 14.257812 6.484375 27.671875 3.457031 36.003906 11.132812 C 36.515625 11.585938 36.4375 12.011719 35.960938 12.441406 C 35.171875 13.238281 34.382812 14.035156 33.59375 14.832031 C 33.410156 15.003906 33.441406 15.105469 33.699219 15.109375 C 36.902344 15.269531 40.113281 15.355469 43.324219 15.351562 C 43.652344 15.359375 44.023438 15.253906 44.105469 14.886719 C 44.277344 11.59375 44.207031 8.277344 44.292969 4.976562 C 44.292969 4.886719 44.292969 4.707031 44.230469 4.691406 C 44.160156 4.671875 44.082031 4.734375 44.015625 4.789062 C 43.398438 5.316406 42.78125 5.859375 42.160156 6.386719 L 42.136719 6.402344 Z M 42.140625 6.402344 " fill-opacity="1" fill-rule="nonzero"/></g><path fill="#000000" d="M 25.703125 13.347656 C 26 13.332031 28.664062 13.351562 29.007812 13.347656 C 29.042969 13.347656 29.066406 13.347656 29.070312 13.378906 C 29.070312 15.28125 29.070312 21.367188 29.070312 22.039062 C 29.078125 22.097656 29.105469 22.078125 29.199219 22.085938 C 29.410156 22.085938 30.046875 22.085938 30.382812 22.085938 C 30.585938 22.085938 30.648438 22.074219 30.652344 22.164062 C 30.660156 22.445312 30.65625 24.070312 30.652344 24.421875 C 30.652344 24.460938 30.648438 24.496094 30.617188 24.515625 C 30.300781 24.554688 29.804688 24.519531 29.46875 24.53125 C 29.265625 24.542969 29.15625 24.496094 29.078125 24.566406 C 29.054688 24.984375 29.078125 26.816406 29.070312 27.667969 C 29.066406 27.863281 29.089844 27.902344 28.992188 27.902344 C 28.328125 27.902344 26.367188 27.902344 26.042969 27.902344 C 26.011719 27.902344 25.984375 27.902344 25.96875 27.875 C 25.941406 27.066406 25.96875 24.910156 25.957031 24.582031 C 25.953125 24.542969 25.945312 24.53125 25.902344 24.53125 C 24.851562 24.519531 21.246094 24.542969 20.890625 24.523438 C 20.839844 24.457031 20.878906 24.355469 20.867188 24.199219 C 20.871094 23.667969 20.859375 22.652344 20.871094 22.085938 C 21.136719 21.585938 25.429688 13.78125 25.699219 13.347656 Z M 26.199219 22.25 C 26.226562 21.125 26.199219 18.78125 26.210938 17.480469 C 26.203125 16.996094 26.222656 16.664062 26.203125 16.359375 C 26.109375 16.5625 23.234375 21.875 23.074219 22.253906 C 23.703125 22.261719 25.46875 22.261719 26.199219 22.253906 Z M 26.199219 22.25 " fill-opacity="1" fill-rule="nonzero"/><path fill="#000000" d="M 18.742188 30.136719 C 18.84375 30.125 19.066406 30.128906 19.191406 30.128906 C 19.289062 30.136719 19.394531 30.113281 19.417969 30.210938 C 19.4375 30.476562 19.414062 31.164062 19.429688 31.378906 C 19.433594 31.4375 19.46875 31.46875 19.523438 31.472656 C 19.632812 31.484375 19.9375 31.480469 20.082031 31.476562 C 20.296875 31.46875 20.199219 31.289062 20.21875 31.039062 C 20.21875 30.75 20.214844 30.394531 20.222656 30.246094 C 20.238281 30.082031 20.390625 30.144531 20.546875 30.128906 C 20.6875 30.136719 20.832031 30.109375 20.929688 30.152344 C 20.976562 30.523438 20.929688 33.027344 20.945312 33.410156 C 20.945312 33.453125 20.914062 33.464844 20.875 33.46875 C 20.820312 33.476562 20.707031 33.476562 20.582031 33.476562 C 20.253906 33.46875 20.199219 33.523438 20.21875 33.136719 C 20.210938 32.800781 20.234375 32.382812 20.210938 32.175781 C 20.195312 32.132812 20.167969 32.121094 20.125 32.113281 C 19.96875 32.101562 19.726562 32.105469 19.566406 32.109375 C 19.488281 32.113281 19.433594 32.128906 19.429688 32.207031 C 19.421875 32.359375 19.429688 32.824219 19.425781 33.136719 C 19.410156 33.34375 19.488281 33.460938 19.277344 33.472656 C 19.144531 33.476562 18.90625 33.476562 18.804688 33.472656 C 18.75 33.464844 18.722656 33.46875 18.703125 33.429688 C 18.695312 33.152344 18.703125 31.371094 18.699219 30.753906 C 18.699219 30.472656 18.699219 30.261719 18.699219 30.183594 C 18.703125 30.160156 18.707031 30.148438 18.730469 30.140625 Z M 18.742188 30.136719 " fill-opacity="1" fill-rule="nonzero"/><path fill="#000000" d="M 23.851562 31.828125 C 23.871094 32.71875 23.511719 33.636719 22.527344 33.519531 C 21.5625 33.410156 21.417969 32.464844 21.460938 31.53125 C 21.480469 30.757812 21.863281 30.007812 22.710938 30.078125 C 23.597656 30.121094 23.859375 30.953125 23.847656 31.792969 L 23.847656 31.828125 Z M 23.085938 31.78125 C 23.0625 31.371094 23.109375 31.035156 22.890625 30.773438 C 22.699219 30.570312 22.359375 30.703125 22.296875 30.957031 C 22.234375 31.125 22.210938 31.539062 22.214844 31.800781 C 22.242188 32.296875 22.171875 32.847656 22.625 32.925781 C 22.722656 32.933594 22.820312 32.898438 22.890625 32.828125 C 23.105469 32.578125 23.0625 32.234375 23.085938 31.816406 Z M 23.085938 31.78125 " fill-opacity="1" fill-rule="nonzero"/><path fill="#000000" d="M 24.398438 30.140625 C 24.488281 30.113281 24.578125 30.128906 24.71875 30.125 C 24.867188 30.132812 24.964844 30.101562 25.058594 30.160156 C 25.105469 30.242188 25.070312 30.324219 25.082031 30.484375 C 25.082031 30.898438 25.082031 31.628906 25.082031 31.898438 C 25.101562 32.214844 25.019531 32.671875 25.328125 32.851562 C 25.632812 33.019531 25.984375 32.792969 25.980469 32.445312 C 26.011719 31.800781 25.984375 30.8125 25.996094 30.269531 C 25.980469 30.089844 26.125 30.132812 26.296875 30.125 C 26.433594 30.136719 26.542969 30.09375 26.59375 30.1875 C 26.613281 30.691406 26.597656 31.503906 26.601562 32.035156 C 26.585938 32.394531 26.617188 32.886719 26.351562 33.183594 C 25.949219 33.652344 24.945312 33.664062 24.5625 33.140625 C 24.335938 32.832031 24.367188 32.304688 24.355469 31.898438 C 24.359375 31.59375 24.347656 30.589844 24.359375 30.1875 C 24.367188 30.171875 24.371094 30.152344 24.386719 30.144531 Z M 24.398438 30.140625 " fill-opacity="1" fill-rule="nonzero"/><path fill="#000000" d="M 27.238281 30.136719 C 27.445312 30.117188 27.773438 30.132812 28.011719 30.128906 C 28.371094 30.140625 28.71875 30.089844 29.023438 30.296875 C 29.503906 30.621094 29.546875 31.5 29.101562 31.890625 C 29.019531 31.972656 28.96875 32.015625 28.988281 32.101562 C 29.109375 32.421875 29.441406 33.175781 29.519531 33.382812 C 29.53125 33.410156 29.539062 33.4375 29.515625 33.453125 C 29.390625 33.492188 29.199219 33.464844 29.050781 33.472656 C 28.902344 33.464844 28.757812 33.507812 28.71875 33.347656 C 28.648438 33.144531 28.46875 32.609375 28.378906 32.347656 C 28.351562 32.265625 28.328125 32.183594 28.242188 32.164062 C 28.1875 32.148438 28.113281 32.148438 28.054688 32.160156 C 27.898438 32.183594 27.957031 32.3125 27.945312 32.453125 C 27.945312 32.742188 27.945312 33.191406 27.941406 33.359375 C 27.933594 33.527344 27.777344 33.457031 27.613281 33.472656 C 27.492188 33.472656 27.375 33.472656 27.308594 33.46875 C 27.238281 33.464844 27.214844 33.464844 27.210938 33.410156 C 27.226562 33.019531 27.171875 30.417969 27.230469 30.136719 L 27.238281 30.132812 Z M 27.953125 30.671875 C 27.953125 30.671875 27.953125 30.757812 27.949219 30.878906 C 27.960938 31.148438 27.921875 31.578125 27.96875 31.605469 C 28.328125 31.621094 28.703125 31.640625 28.695312 31.128906 C 28.691406 30.628906 28.335938 30.660156 27.960938 30.671875 L 27.953125 30.675781 Z M 27.953125 30.671875 " fill-opacity="1" fill-rule="nonzero"/><path fill="#000000" d="M 31.914062 30.8125 C 31.824219 30.945312 31.59375 31.011719 31.433594 31.015625 C 31.289062 31.003906 31.214844 30.785156 31.050781 30.726562 C 30.664062 30.5625 30.335938 31.03125 30.75 31.261719 C 31.332031 31.539062 32.109375 31.71875 32.03125 32.546875 C 32 33.609375 30.355469 33.859375 29.859375 33.046875 C 29.652344 32.726562 29.644531 32.578125 30.074219 32.496094 C 30.230469 32.453125 30.335938 32.515625 30.414062 32.652344 C 30.558594 32.953125 31.066406 33.015625 31.226562 32.714844 C 31.339844 32.460938 31.160156 32.28125 30.910156 32.183594 C 30.550781 32.027344 30.136719 31.929688 29.933594 31.570312 C 29.570312 30.980469 30 30.132812 30.691406 30.089844 C 31.183594 30.015625 31.855469 30.238281 31.921875 30.792969 Z M 31.914062 30.8125 " fill-opacity="1" fill-rule="nonzero"/></svg>