<svg xmlns="http://www.w3.org/2000/svg" xmlns:xlink="http://www.w3.org/1999/xlink" width="64" zoomAndPan="magnify" viewBox="0 0 48 48" height="64" preserveAspectRatio="xMidYMid meet" version="1.0"><defs><clipPath id="bef8013784"><path d="M 3 3.445312 L 45 3.445312 L 45 43.855469 L 3 43.855469 Z M 3 3.445312 " clip-rule="nonzero"/></clipPath></defs><g clip-path="url(#bef8013784)"><path fill="#000000" d="M 24.167969 43.851562 C 20.683594 43.851562 17.246094 42.945312 14.207031 41.230469 L 6.253906 42.285156 C 6.023438 42.316406 5.800781 42.222656 5.660156 42.046875 C 5.515625 41.867188 5.476562 41.625 5.558594 41.410156 L 7.773438 35.464844 C 7.214844 34.691406 6.710938 33.875 6.269531 33.03125 C 1.101562 23.171875 4.914062 10.9375 14.769531 5.761719 C 17.65625 4.25 20.890625 3.449219 24.128906 3.449219 C 31.667969 3.449219 38.523438 7.59375 42.023438 14.269531 C 47.191406 24.128906 43.378906 36.363281 33.523438 41.539062 C 30.636719 43.050781 27.402344 43.851562 24.167969 43.851562 Z M 14.339844 39.90625 C 14.457031 39.90625 14.566406 39.933594 14.667969 39.992188 C 17.550781 41.664062 20.835938 42.550781 24.164062 42.546875 C 27.191406 42.546875 30.21875 41.800781 32.917969 40.382812 C 42.136719 35.542969 45.703125 24.097656 40.867188 14.875 C 37.59375 8.628906 31.179688 4.75 24.128906 4.75 C 21.101562 4.75 18.074219 5.5 15.375 6.917969 C 6.15625 11.757812 2.589844 23.203125 7.425781 32.429688 C 7.890625 33.3125 8.429688 34.167969 9.027344 34.972656 C 9.164062 35.148438 9.195312 35.382812 9.117188 35.589844 L 7.15625 40.851562 L 14.253906 39.910156 C 14.285156 39.90625 14.3125 39.90625 14.339844 39.90625 Z M 14.339844 39.90625 " fill-opacity="1" fill-rule="nonzero"/></g><path fill="#000000" d="M 27.359375 36.523438 C 27.355469 36.523438 27.355469 36.523438 27.359375 36.523438 C 25.191406 36.523438 23.085938 35.585938 21.832031 34.710938 C 19.570312 33.132812 17.339844 30.367188 15.871094 27.320312 C 14.359375 24.296875 13.5625 20.898438 13.75 18.238281 C 13.863281 16.601562 14.566406 14.292969 16.199219 12.710938 C 17.089844 11.851562 18.328125 11.160156 19.433594 10.902344 C 19.761719 10.824219 20.195312 10.777344 20.589844 10.777344 C 21.203125 10.777344 21.675781 10.886719 21.996094 11.105469 C 22.996094 11.777344 23.277344 13.339844 23.476562 14.878906 C 23.859375 17.269531 23.691406 18.585938 21.691406 19.542969 C 21.636719 19.566406 21.578125 19.585938 21.519531 19.597656 C 21.285156 19.738281 20.9375 21.207031 21.652344 23.1875 C 21.800781 23.605469 21.988281 24.046875 22.207031 24.496094 C 22.425781 24.941406 22.660156 25.359375 22.902344 25.734375 C 23.902344 27.3125 25.230469 28.179688 25.765625 28.179688 C 25.816406 28.144531 25.898438 28.121094 25.957031 28.097656 C 26.535156 27.867188 27.015625 27.761719 27.46875 27.761719 C 28.679688 27.761719 29.617188 28.515625 30.824219 29.820312 C 31.925781 30.945312 33.007812 32.152344 32.902344 33.332031 C 32.824219 34.199219 31.773438 35.085938 31.375 35.355469 C 30.453125 35.984375 29.097656 36.425781 27.835938 36.507812 C 27.675781 36.519531 27.515625 36.523438 27.359375 36.523438 Z M 20.589844 12.082031 C 20.238281 12.082031 19.90625 12.128906 19.726562 12.171875 C 18.839844 12.378906 17.835938 12.945312 17.105469 13.648438 C 15.734375 14.972656 15.140625 17 15.050781 18.328125 C 14.878906 20.765625 15.625 23.914062 17.039062 26.746094 C 18.421875 29.609375 20.492188 32.1875 22.578125 33.644531 C 23.667969 34.40625 25.496094 35.21875 27.359375 35.21875 C 27.488281 35.21875 27.621094 35.214844 27.75 35.207031 C 28.792969 35.136719 29.902344 34.78125 30.644531 34.277344 C 31.101562 33.972656 31.578125 33.410156 31.605469 33.210938 C 31.667969 32.539062 30.414062 31.265625 29.878906 30.722656 C 28.746094 29.492188 28.117188 29.0625 27.46875 29.0625 C 27.199219 29.0625 26.894531 29.132812 26.503906 29.28125 C 26.296875 29.414062 26.042969 29.484375 25.765625 29.484375 C 24.59375 29.484375 22.925781 28.203125 21.804688 26.4375 C 21.539062 26.019531 21.28125 25.5625 21.039062 25.070312 C 20.796875 24.574219 20.59375 24.09375 20.425781 23.632812 C 19.792969 21.867188 19.753906 20.023438 20.332031 19.035156 C 20.59375 18.585938 20.929688 18.402344 21.195312 18.335938 C 22.234375 17.828125 22.5625 17.402344 22.1875 15.066406 C 22.082031 14.25 21.867188 12.589844 21.265625 12.183594 C 21.222656 12.15625 21.019531 12.082031 20.589844 12.082031 Z M 20.589844 12.082031 " fill-opacity="1" fill-rule="nonzero"/><path fill="#000000" d="M 34.484375 27.050781 C 34.386719 27.050781 34.285156 27.027344 34.1875 26.980469 C 33.867188 26.8125 33.742188 26.421875 33.90625 26.101562 C 34.535156 24.882812 34.871094 23.503906 34.871094 22.117188 C 34.871094 18.074219 32.015625 14.496094 28.082031 13.609375 C 27.730469 13.53125 27.507812 13.179688 27.585938 12.832031 C 27.667969 12.480469 28.015625 12.257812 28.367188 12.335938 C 32.890625 13.355469 36.171875 17.46875 36.171875 22.117188 C 36.171875 23.710938 35.789062 25.296875 35.066406 26.699219 C 34.949219 26.921875 34.722656 27.050781 34.484375 27.050781 Z M 34.484375 27.050781 " fill-opacity="1" fill-rule="nonzero"/><path fill="#000000" d="M 30.515625 24.417969 C 30.417969 24.417969 30.320312 24.394531 30.226562 24.347656 C 29.90625 24.1875 29.773438 23.796875 29.929688 23.476562 C 30.191406 22.945312 30.324219 22.378906 30.324219 21.785156 C 30.324219 20.207031 29.378906 18.808594 27.910156 18.226562 C 27.578125 18.089844 27.414062 17.714844 27.546875 17.378906 C 27.679688 17.042969 28.058594 16.878906 28.394531 17.015625 C 30.359375 17.796875 31.628906 19.671875 31.628906 21.785156 C 31.628906 22.582031 31.449219 23.34375 31.097656 24.054688 C 30.984375 24.28125 30.753906 24.417969 30.515625 24.417969 Z M 30.515625 24.417969 " fill-opacity="1" fill-rule="nonzero"/></svg>