<svg xmlns="http://www.w3.org/2000/svg" xmlns:xlink="http://www.w3.org/1999/xlink" width="64" zoomAndPan="magnify" viewBox="0 0 48 48" height="64" preserveAspectRatio="xMidYMid meet" version="1.0"><defs><g/></defs><g fill="#000000" fill-opacity="1"><g transform="translate(3.445791, 25.34694)"><g><path d="M 1.984375 -5.15625 L 0.15625 -5.15625 L 0.15625 -7.078125 L 5.9375 -7.078125 L 5.9375 -5.15625 L 4.078125 -5.15625 L 4.078125 0 L 1.984375 0 Z M 1.984375 -5.15625 "/></g></g></g><g fill="#000000" fill-opacity="1"><g transform="translate(9.52725, 25.34694)"><g><path d="M 2.21875 0 L 0.203125 0 L 0.203125 -5.25 L 2.21875 -5.25 Z M 0.015625 -6.625 C 0.015625 -6.96875 0.128906 -7.253906 0.359375 -7.484375 C 0.585938 -7.710938 0.875 -7.828125 1.21875 -7.828125 C 1.5625 -7.828125 1.847656 -7.710938 2.078125 -7.484375 C 2.304688 -7.253906 2.421875 -6.96875 2.421875 -6.625 C 2.421875 -6.28125 2.304688 -5.992188 2.078125 -5.765625 C 1.847656 -5.535156 1.5625 -5.421875 1.21875 -5.421875 C 0.875 -5.421875 0.585938 -5.535156 0.359375 -5.765625 C 0.128906 -5.992188 0.015625 -6.28125 0.015625 -6.625 Z M 0.015625 -6.625 "/></g></g></g><g fill="#000000" fill-opacity="1"><g transform="translate(11.951753, 25.34694)"><g><path d="M 1.96875 0 L 0 -5.25 L 2.078125 -5.25 L 2.96875 -2.5625 L 3.84375 -5.25 L 5.921875 -5.25 L 3.953125 0 Z M 1.96875 0 "/></g></g></g><g fill="#000000" fill-opacity="1"><g transform="translate(17.871579, 25.34694)"><g><path d="M 2.21875 0 L 0.203125 0 L 0.203125 -5.25 L 2.21875 -5.25 Z M 0.015625 -6.625 C 0.015625 -6.96875 0.128906 -7.253906 0.359375 -7.484375 C 0.585938 -7.710938 0.875 -7.828125 1.21875 -7.828125 C 1.5625 -7.828125 1.847656 -7.710938 2.078125 -7.484375 C 2.304688 -7.253906 2.421875 -6.96875 2.421875 -6.625 C 2.421875 -6.28125 2.304688 -5.992188 2.078125 -5.765625 C 1.847656 -5.535156 1.5625 -5.421875 1.21875 -5.421875 C 0.875 -5.421875 0.585938 -5.535156 0.359375 -5.765625 C 0.128906 -5.992188 0.015625 -6.28125 0.015625 -6.625 Z M 0.015625 -6.625 "/></g></g></g><g fill="#000000" fill-opacity="1"><g transform="translate(20.296082, 25.34694)"><g><path d="M 2.296875 0 L 0.25 0 L 0.25 -7.078125 L 2.296875 -7.078125 L 4.359375 -3.421875 L 6.40625 -7.078125 L 8.453125 -7.078125 L 8.453125 0 L 6.40625 0 L 6.40625 -3.21875 L 5.046875 -0.671875 L 3.65625 -0.671875 L 2.296875 -3.21875 Z M 2.296875 0 "/></g></g></g><g fill="#000000" fill-opacity="1"><g transform="translate(28.993991, 25.34694)"><g><path d="M 2.453125 -5.359375 C 2.867188 -5.359375 3.253906 -5.242188 3.609375 -5.015625 L 3.609375 -5.25 L 5.625 -5.25 L 5.625 0 L 3.609375 0 L 3.609375 -0.25 C 3.253906 -0.0195312 2.867188 0.09375 2.453125 0.09375 C 1.785156 0.09375 1.222656 -0.160156 0.765625 -0.671875 C 0.316406 -1.203125 0.09375 -1.851562 0.09375 -2.625 C 0.09375 -3.40625 0.316406 -4.050781 0.765625 -4.5625 C 1.222656 -5.09375 1.785156 -5.359375 2.453125 -5.359375 Z M 2.21875 -2.65625 C 2.21875 -2.425781 2.285156 -2.238281 2.421875 -2.09375 C 2.554688 -1.945312 2.71875 -1.875 2.90625 -1.875 C 3.09375 -1.875 3.253906 -1.945312 3.390625 -2.09375 C 3.523438 -2.238281 3.59375 -2.425781 3.59375 -2.65625 C 3.59375 -2.851562 3.523438 -3.023438 3.390625 -3.171875 C 3.253906 -3.316406 3.09375 -3.390625 2.90625 -3.390625 C 2.71875 -3.390625 2.554688 -3.316406 2.421875 -3.171875 C 2.285156 -3.023438 2.21875 -2.851562 2.21875 -2.65625 Z M 2.21875 -2.65625 "/></g></g></g><g fill="#000000" fill-opacity="1"><g transform="translate(34.8229, 25.34694)"><g><path d="M 0.046875 -3.515625 L 0.046875 -5.25 L 0.703125 -5.25 L 0.703125 -6.25 L 2.734375 -6.25 L 2.734375 -5.25 L 3.6875 -5.25 L 3.6875 -3.515625 L 2.734375 -3.515625 L 2.734375 -2.21875 C 2.734375 -2.101562 2.769531 -2.007812 2.84375 -1.9375 C 2.925781 -1.863281 3.035156 -1.828125 3.171875 -1.828125 L 3.703125 -1.828125 L 3.703125 0 L 2.65625 0 C 2.101562 0 1.640625 -0.160156 1.265625 -0.484375 C 0.890625 -0.804688 0.703125 -1.210938 0.703125 -1.703125 L 0.703125 -3.515625 Z M 0.046875 -3.515625 "/></g></g></g><g fill="#000000" fill-opacity="1"><g transform="translate(38.671803, 25.34694)"><g><path d="M 5.6875 -1.921875 L 2.296875 -1.921875 C 2.453125 -1.617188 2.707031 -1.46875 3.0625 -1.46875 C 3.320312 -1.46875 3.539062 -1.566406 3.71875 -1.765625 L 5.65625 -1.46875 C 5.4375 -0.988281 5.09375 -0.609375 4.625 -0.328125 C 4.164062 -0.046875 3.628906 0.09375 3.015625 0.09375 C 2.179688 0.09375 1.488281 -0.164062 0.9375 -0.6875 C 0.375 -1.207031 0.09375 -1.851562 0.09375 -2.625 C 0.09375 -3.394531 0.363281 -4.039062 0.90625 -4.5625 C 1.457031 -5.09375 2.132812 -5.359375 2.9375 -5.359375 C 3.75 -5.359375 4.421875 -5.09375 4.953125 -4.5625 C 5.492188 -4.039062 5.765625 -3.394531 5.765625 -2.625 C 5.765625 -2.375 5.738281 -2.140625 5.6875 -1.921875 Z M 2.296875 -3.34375 L 3.734375 -3.34375 C 3.585938 -3.644531 3.347656 -3.796875 3.015625 -3.796875 C 2.691406 -3.796875 2.453125 -3.644531 2.296875 -3.34375 Z M 2.296875 -3.34375 "/></g></g></g></svg>