<svg xmlns="http://www.w3.org/2000/svg" xmlns:xlink="http://www.w3.org/1999/xlink" width="64" zoomAndPan="magnify" viewBox="0 0 48 48" height="64" preserveAspectRatio="xMidYMid meet" version="1.0"><defs><g/><clipPath id="5a98f0f985"><path d="M 0.78125 1 L 16 1 L 16 16 L 0.78125 16 Z M 0.78125 1 " clip-rule="nonzero"/></clipPath><clipPath id="e97398e9ee"><rect x="0" width="42" y="0" height="21"/></clipPath></defs><g transform="matrix(1, 0, 0, 1, 3, 13)"><g clip-path="url(#e97398e9ee)"><g clip-path="url(#5a98f0f985)"><g fill="#000000" fill-opacity="1"><g transform="translate(0.932465, 15.43334)"><g><path d="M 9.015625 0 L 5.59375 0 L 0 -13.9375 L 4.296875 -13.9375 L 7.328125 -5.984375 L 10.3125 -13.9375 L 14.609375 -13.9375 Z M 9.015625 0 "/></g></g></g></g><g fill="#000000" fill-opacity="1"><g transform="translate(15.527883, 15.43334)"><g><path d="M 0.5 -13.9375 L 4.625 -13.9375 L 4.625 -3.78125 L 10.796875 -3.78125 L 10.796875 0 L 0.5 0 Z M 0.5 -13.9375 "/></g></g></g><g fill="#000000" fill-opacity="1"><g transform="translate(26.205682, 15.43334)"><g><path d="M 7.796875 -14.140625 C 9.367188 -14.140625 10.757812 -13.753906 11.96875 -12.984375 C 13.1875 -12.234375 14.085938 -11.222656 14.671875 -9.953125 L 10.65625 -8.484375 C 10.394531 -8.992188 10.015625 -9.40625 9.515625 -9.71875 C 9.015625 -10.03125 8.441406 -10.1875 7.796875 -10.1875 C 6.921875 -10.1875 6.1875 -9.875 5.59375 -9.25 C 5 -8.644531 4.703125 -7.890625 4.703125 -6.984375 C 4.703125 -6.066406 4.992188 -5.296875 5.578125 -4.671875 C 6.171875 -4.066406 6.910156 -3.765625 7.796875 -3.765625 C 8.453125 -3.765625 9.023438 -3.914062 9.515625 -4.21875 C 10.015625 -4.519531 10.394531 -4.929688 10.65625 -5.453125 L 14.671875 -3.984375 C 14.097656 -2.734375 13.195312 -1.71875 11.96875 -0.9375 C 10.757812 -0.175781 9.367188 0.203125 7.796875 0.203125 C 5.691406 0.203125 3.9375 -0.476562 2.53125 -1.84375 C 1.101562 -3.226562 0.390625 -4.9375 0.390625 -6.96875 C 0.390625 -8.988281 1.101562 -10.6875 2.53125 -12.0625 C 3.945312 -13.445312 5.703125 -14.140625 7.796875 -14.140625 Z M 7.796875 -14.140625 "/></g></g></g></g></g></svg>