<svg xmlns="http://www.w3.org/2000/svg" xmlns:xlink="http://www.w3.org/1999/xlink" width="64" zoomAndPan="magnify" viewBox="0 0 48 48" height="64" preserveAspectRatio="xMidYMid meet" version="1.0"><defs><clipPath id="8bf2d282ce"><path d="M 4.222656 2.691406 L 43.894531 2.691406 L 43.894531 44.570312 L 4.222656 44.570312 Z M 4.222656 2.691406 " clip-rule="nonzero"/></clipPath></defs><g clip-path="url(#8bf2d282ce)"><path fill="#000000" d="M 6.308594 2.695312 L 6.308594 13.164062 L 16.75 13.164062 L 13.488281 9.890625 C 16.191406 8.003906 19.460938 6.882812 23.015625 6.882812 C 32.265625 6.882812 39.71875 14.355469 39.71875 23.628906 C 39.71875 32.90625 32.265625 40.378906 23.015625 40.378906 C 19.027344 40.378906 15.386719 38.984375 12.515625 36.65625 L 9.890625 39.910156 C 13.476562 42.820312 18.054688 44.5625 23.015625 44.5625 C 34.523438 44.5625 43.894531 35.167969 43.894531 23.628906 C 43.894531 12.089844 34.523438 2.695312 23.015625 2.695312 C 18.324219 2.695312 13.976562 4.253906 10.484375 6.882812 Z M 4.222656 17.347656 L 4.222656 34.097656 L 8.398438 34.097656 L 8.398438 17.347656 Z M 15.707031 17.347656 C 12.847656 17.347656 10.484375 19.71875 10.484375 22.582031 C 10.484375 23.761719 10.898438 24.84375 11.566406 25.722656 C 10.898438 26.601562 10.484375 27.683594 10.484375 28.863281 C 10.484375 31.730469 12.847656 34.097656 15.707031 34.097656 C 18.5625 34.097656 20.925781 31.730469 20.925781 28.863281 C 20.925781 27.683594 20.515625 26.601562 19.84375 25.722656 C 20.515625 24.84375 20.925781 23.761719 20.925781 22.582031 C 20.925781 19.71875 18.5625 17.347656 15.707031 17.347656 Z M 28.234375 17.347656 C 25.375 17.347656 23.015625 19.714844 23.015625 22.582031 L 23.015625 28.863281 C 23.015625 31.730469 25.375 34.097656 28.234375 34.097656 C 31.09375 34.097656 33.453125 31.730469 33.453125 28.863281 L 33.453125 22.582031 C 33.453125 19.714844 31.09375 17.347656 28.234375 17.347656 Z M 15.707031 21.535156 C 16.308594 21.535156 16.75 21.980469 16.75 22.582031 C 16.75 23.1875 16.308594 23.628906 15.707031 23.628906 C 15.105469 23.628906 14.660156 23.1875 14.660156 22.582031 C 14.660156 21.980469 15.105469 21.535156 15.707031 21.535156 Z M 28.234375 21.535156 C 28.832031 21.535156 29.277344 21.980469 29.277344 22.582031 L 29.277344 28.863281 C 29.277344 29.464844 28.832031 29.910156 28.234375 29.910156 C 27.636719 29.910156 27.191406 29.464844 27.191406 28.863281 L 27.191406 22.582031 C 27.191406 21.980469 27.636719 21.535156 28.234375 21.535156 Z M 15.707031 27.816406 C 16.308594 27.816406 16.75 28.261719 16.75 28.863281 C 16.75 29.464844 16.308594 29.910156 15.707031 29.910156 C 15.105469 29.910156 14.660156 29.464844 14.660156 28.863281 C 14.660156 28.261719 15.105469 27.816406 15.707031 27.816406 Z M 15.707031 27.816406 " fill-opacity="1" fill-rule="nonzero"/></g></svg>