<svg xmlns="http://www.w3.org/2000/svg" xmlns:xlink="http://www.w3.org/1999/xlink" width="64" zoomAndPan="magnify" viewBox="0 0 48 48" height="64" preserveAspectRatio="xMidYMid meet" version="1.0"><defs><clipPath id="a5b55fd38c"><path d="M 5 2.667969 L 43.402344 2.667969 L 43.402344 44 L 5 44 Z M 5 2.667969 " clip-rule="nonzero"/></clipPath></defs><path fill="#000000" d="M 25.75 11.222656 C 25.742188 10.8125 25.777344 10.328125 25.433594 10.09375 C 25.164062 9.90625 24.71875 9.949219 24.511719 10.222656 C 24.363281 10.421875 24.363281 10.6875 24.359375 10.941406 C 24.367188 11.308594 24.351562 11.804688 24.375 12.210938 C 24.382812 12.769531 24.753906 13.253906 25.320312 12.972656 C 25.894531 12.644531 25.738281 11.808594 25.75 11.25 Z M 25.75 11.222656 " fill-opacity="1" fill-rule="nonzero"/><path fill="#000000" d="M 12.753906 24.363281 C 12.226562 24.3125 11.5625 24.347656 11.070312 24.335938 C 10.589844 24.347656 10.1875 24.800781 10.386719 25.289062 C 10.523438 25.679688 10.917969 25.726562 11.277344 25.730469 C 11.632812 25.734375 11.941406 25.730469 12.308594 25.726562 C 12.550781 25.726562 12.761719 25.738281 12.976562 25.625 C 13.574219 25.328125 13.328125 24.480469 12.777344 24.367188 Z M 12.753906 24.363281 " fill-opacity="1" fill-rule="nonzero"/><path fill="#000000" d="M 39.25 24.390625 C 38.734375 24.292969 38.132812 24.371094 37.636719 24.355469 C 37.386719 24.359375 37.101562 24.429688 36.929688 24.613281 C 36.601562 24.976562 36.832031 25.609375 37.285156 25.707031 C 37.578125 25.765625 37.804688 25.722656 38.113281 25.734375 C 38.402344 25.726562 38.855469 25.769531 39.125 25.71875 C 39.910156 25.59375 39.929688 24.613281 39.273438 24.394531 L 39.25 24.386719 Z M 39.25 24.390625 " fill-opacity="1" fill-rule="nonzero"/><path fill="#000000" d="M 25.703125 37.800781 C 25.582031 37.449219 25.160156 37.203125 24.800781 37.359375 C 24.246094 37.613281 24.324219 38.382812 24.351562 38.960938 C 24.371094 39.46875 24.289062 40.214844 24.984375 40.195312 C 25.078125 40.195312 25.179688 40.171875 25.273438 40.144531 C 25.796875 39.980469 25.777344 39.472656 25.753906 39.023438 C 25.734375 38.667969 25.792969 38.171875 25.714844 37.824219 Z M 25.703125 37.800781 " fill-opacity="1" fill-rule="nonzero"/><path fill="#000000" d="M 16.851562 15.679688 C 16.507812 15.261719 16.015625 14.804688 15.675781 14.4375 C 15.324219 14.097656 14.722656 14.132812 14.527344 14.625 C 14.351562 15.003906 14.597656 15.324219 14.851562 15.589844 C 15.101562 15.847656 15.324219 16.070312 15.585938 16.332031 C 15.753906 16.507812 15.898438 16.671875 16.132812 16.742188 C 16.761719 16.964844 17.175781 16.183594 16.863281 15.703125 L 16.851562 15.683594 Z M 16.851562 15.679688 " fill-opacity="1" fill-rule="nonzero"/><path fill="#000000" d="M 35.582031 34.875 C 35.28125 34.429688 34.800781 34.050781 34.460938 33.675781 C 34.28125 33.496094 34.03125 33.339844 33.78125 33.351562 C 33.296875 33.371094 33.023438 33.992188 33.273438 34.386719 C 33.441406 34.640625 33.632812 34.777344 33.839844 35.007812 C 34.054688 35.214844 34.34375 35.574219 34.570312 35.730469 C 35.210938 36.214844 35.902344 35.527344 35.59375 34.894531 Z M 35.582031 34.875 " fill-opacity="1" fill-rule="nonzero"/><path fill="#000000" d="M 16.742188 34.566406 C 16.898438 34.226562 16.765625 33.746094 16.402344 33.59375 C 15.828125 33.371094 15.355469 33.972656 14.972656 34.402344 C 14.546875 34.847656 14.007812 35.375 14.726562 35.859375 C 15.058594 36.089844 15.449219 36.015625 15.695312 35.714844 C 15.910156 35.492188 16.050781 35.339844 16.28125 35.101562 C 16.476562 34.890625 16.605469 34.8125 16.730469 34.589844 Z M 16.742188 34.566406 " fill-opacity="1" fill-rule="nonzero"/><g clip-path="url(#a5b55fd38c)"><path fill="#000000" d="M 41.28125 8.148438 C 40.796875 8.609375 40.335938 8.390625 39.921875 7.980469 C 36.066406 4.558594 30.929688 2.667969 25.828125 2.710938 C 16.238281 2.703125 7.148438 10.398438 5.644531 20.152344 C 4.480469 27.460938 7.332031 35.425781 13.191406 39.875 C 17.746094 43.332031 23.851562 44.546875 29.355469 43.230469 C 33.042969 42.335938 36.601562 40.269531 38.863281 37.097656 C 38.9375 37 39.03125 36.839844 38.875 37 C 37.308594 38.597656 35.445312 39.882812 33.414062 40.796875 C 30.167969 42.261719 26.507812 42.785156 23.007812 42.171875 C 12.707031 40.433594 5.800781 28.609375 10.171875 18.660156 C 14.257812 8.230469 27.257812 5.265625 35.335938 12.785156 C 35.832031 13.230469 35.753906 13.648438 35.296875 14.066406 C 34.53125 14.847656 33.761719 15.628906 33 16.40625 C 32.820312 16.578125 32.855469 16.675781 33.101562 16.679688 C 36.207031 16.835938 39.320312 16.921875 42.429688 16.917969 C 42.75 16.925781 43.109375 16.820312 43.191406 16.460938 C 43.355469 13.234375 43.285156 9.988281 43.371094 6.753906 C 43.371094 6.664062 43.371094 6.488281 43.3125 6.472656 C 43.242188 6.453125 43.167969 6.519531 43.105469 6.570312 C 42.503906 7.089844 41.90625 7.617188 41.300781 8.132812 Z M 41.28125 8.148438 " fill-opacity="1" fill-rule="nonzero"/></g><path fill="#000000" d="M 18.960938 20.75 C 18.925781 20.808594 18.878906 20.820312 18.816406 20.808594 C 18.4375 20.714844 17.175781 20.542969 16.851562 20.402344 C 16.800781 20.316406 16.875 20.15625 16.90625 20.054688 C 17.496094 18.316406 18.84375 17.316406 20.832031 17.4375 C 22.566406 17.476562 23.953125 18.648438 23.914062 20.542969 C 23.914062 21.039062 23.804688 21.566406 23.574219 21.96875 C 23.34375 22.382812 22.984375 22.726562 22.519531 22.984375 C 22.4375 23.035156 22.304688 23.117188 22.429688 23.199219 C 22.96875 23.453125 23.460938 23.78125 23.734375 24.261719 C 24.21875 25.054688 24.230469 26.203125 23.988281 27.09375 C 23.589844 28.574219 22.128906 29.351562 20.710938 29.40625 C 18.523438 29.535156 16.71875 28.324219 16.570312 26.03125 C 16.585938 25.976562 16.632812 25.957031 16.6875 25.949219 C 17.050781 25.882812 18.171875 25.695312 18.5625 25.628906 C 18.695312 25.605469 18.738281 25.65625 18.773438 25.835938 C 18.808594 26 18.851562 26.210938 18.914062 26.371094 C 19.164062 27.261719 20.269531 27.609375 21 27.09375 C 21.585938 26.65625 21.652344 25.738281 21.457031 25.078125 C 21.179688 24.171875 20.121094 24.109375 19.265625 24.144531 C 19.167969 24.136719 19.128906 24.125 19.113281 24.054688 C 19.105469 23.9375 19.113281 23.644531 19.109375 23.328125 C 19.121094 23.035156 19.085938 22.539062 19.128906 22.324219 C 19.152344 22.257812 19.335938 22.265625 19.425781 22.265625 C 19.90625 22.253906 20.433594 22.300781 20.839844 22.066406 C 21.46875 21.691406 21.527344 20.738281 21.300781 20.066406 C 21.125 19.546875 20.566406 19.339844 20.058594 19.429688 C 19.46875 19.515625 19.171875 20.097656 18.96875 20.730469 L 18.960938 20.746094 Z M 18.960938 20.75 " fill-opacity="1" fill-rule="nonzero"/><path fill="#000000" d="M 33.125 23.308594 C 33.066406 25.84375 32.863281 28.320312 30.765625 29.179688 C 30.296875 29.363281 29.703125 29.4375 29.171875 29.417969 C 26.625 29.378906 25.847656 27.347656 25.605469 25.035156 C 25.421875 22.882812 25.566406 20.015625 26.605469 18.648438 C 27.402344 17.449219 29.402344 17.148438 30.796875 17.675781 C 32.792969 18.476562 33.078125 21.011719 33.125 23.273438 Z M 30.5 23.417969 C 30.464844 22.019531 30.523438 20.523438 30.148438 19.777344 C 29.761719 19.007812 28.636719 19.199219 28.410156 20.003906 C 28.167969 20.667969 28.152344 23.089844 28.175781 24.234375 C 28.242188 25.652344 28.152344 26.847656 28.757812 27.371094 C 29.046875 27.613281 29.550781 27.625 29.863281 27.410156 C 30.109375 27.242188 30.273438 26.917969 30.320312 26.644531 C 30.457031 26.105469 30.507812 24.375 30.5 23.441406 Z M 30.5 23.417969 " fill-opacity="1" fill-rule="nonzero"/><path fill="#000000" d="M 19.765625 31.113281 C 20.738281 31.101562 21.914062 30.9375 22.21875 32.203125 C 22.390625 33.015625 22.351562 34.238281 21.527344 34.707031 C 21.039062 34.945312 20.332031 34.839844 19.828125 34.863281 C 19.785156 34.859375 19.730469 34.863281 19.734375 34.808594 C 19.734375 34.546875 19.734375 32.957031 19.734375 31.953125 C 19.75 31.492188 19.703125 31.1875 19.757812 31.113281 Z M 20.570312 31.757812 C 20.515625 31.78125 20.554688 31.839844 20.542969 31.949219 C 20.542969 32.285156 20.542969 32.648438 20.542969 33.027344 C 20.542969 33.554688 20.539062 34.074219 20.542969 34.183594 C 20.550781 34.195312 20.554688 34.203125 20.570312 34.207031 C 21.21875 34.308594 21.433594 33.75 21.445312 33.164062 C 21.484375 32.507812 21.402344 31.652344 20.582031 31.753906 Z M 20.570312 31.757812 " fill-opacity="1" fill-rule="nonzero"/><path fill="#000000" d="M 23.476562 31.113281 C 23.628906 31.101562 23.863281 31.109375 24.027344 31.105469 C 24.179688 31.105469 24.246094 31.105469 24.265625 31.128906 C 24.285156 31.152344 24.289062 31.199219 24.3125 31.273438 C 24.554688 32.132812 25.207031 34.453125 25.308594 34.8125 C 25.316406 34.863281 25.289062 34.855469 25.21875 34.859375 C 25.054688 34.847656 24.703125 34.890625 24.527344 34.835938 C 24.445312 34.769531 24.449219 34.660156 24.402344 34.488281 C 24.339844 34.300781 24.375 34.101562 24.195312 34.085938 C 24.042969 34.082031 23.613281 34.085938 23.417969 34.085938 C 23.277344 34.085938 23.257812 34.121094 23.214844 34.292969 C 23.15625 34.488281 23.152344 34.714844 23.058594 34.828125 C 22.96875 34.882812 22.867188 34.851562 22.710938 34.863281 C 22.589844 34.847656 22.308594 34.902344 22.355469 34.800781 C 22.496094 34.390625 23.328125 31.371094 23.46875 31.113281 L 23.476562 31.109375 Z M 24.148438 33.441406 C 24.070312 33.058594 23.882812 32.339844 23.785156 31.917969 C 23.761719 31.898438 23.476562 33.25 23.425781 33.414062 C 23.421875 33.453125 23.433594 33.445312 23.476562 33.445312 C 23.574219 33.445312 24.035156 33.449219 24.144531 33.445312 Z M 24.148438 33.441406 " fill-opacity="1" fill-rule="nonzero"/><path fill="#000000" d="M 24.988281 31.117188 C 25.132812 31.097656 25.425781 31.113281 25.597656 31.105469 C 25.71875 31.117188 25.816406 31.078125 25.878906 31.171875 C 25.992188 31.4375 26.308594 32.3125 26.371094 32.425781 C 26.398438 32.476562 26.425781 32.359375 26.511719 32.160156 C 26.636719 31.859375 26.824219 31.398438 26.898438 31.21875 C 26.945312 31.097656 27.003906 31.109375 27.15625 31.105469 C 27.25 31.105469 27.367188 31.105469 27.464844 31.105469 C 27.570312 31.117188 27.753906 31.078125 27.710938 31.167969 C 27.621094 31.367188 27.171875 32.304688 26.910156 32.851562 C 26.828125 33.054688 26.730469 33.152344 26.710938 33.339844 C 26.703125 33.550781 26.722656 34.539062 26.703125 34.808594 C 26.65625 34.902344 26.453125 34.847656 26.335938 34.863281 C 26.230469 34.863281 26.121094 34.863281 26.042969 34.863281 C 25.964844 34.859375 25.902344 34.867188 25.894531 34.78125 C 25.886719 34.539062 25.894531 33.6875 25.890625 33.316406 C 25.804688 32.957031 25.027344 31.398438 24.984375 31.121094 Z M 24.988281 31.117188 " fill-opacity="1" fill-rule="nonzero"/><path fill="#000000" d="M 30.132812 31.878906 C 30.101562 31.964844 29.957031 32.003906 29.863281 32.042969 C 29.773438 32.078125 29.683594 32.121094 29.589844 32.117188 C 29.46875 32.117188 29.417969 31.972656 29.308594 31.867188 C 29.164062 31.726562 28.925781 31.691406 28.757812 31.796875 C 28.6875 31.84375 28.640625 31.910156 28.621094 31.988281 C 28.539062 32.453125 29.289062 32.53125 29.578125 32.71875 C 30.53125 33.09375 30.4375 34.507812 29.496094 34.824219 C 28.902344 35.042969 28.113281 34.894531 27.8125 34.328125 C 27.726562 34.160156 27.566406 33.929688 27.816406 33.839844 C 27.984375 33.800781 28.257812 33.636719 28.386719 33.832031 C 28.453125 33.933594 28.515625 34.0625 28.621094 34.132812 C 28.945312 34.390625 29.582031 34.132812 29.351562 33.664062 C 29.042969 33.269531 28.34375 33.292969 28.027344 32.875 C 27.558594 32.347656 27.792969 31.378906 28.460938 31.140625 C 29.066406 30.898438 30.015625 31.113281 30.136719 31.859375 L 30.132812 31.875 Z M 30.132812 31.878906 " fill-opacity="1" fill-rule="nonzero"/></svg>