<svg xmlns="http://www.w3.org/2000/svg" xmlns:xlink="http://www.w3.org/1999/xlink" width="64" zoomAndPan="magnify" viewBox="0 0 48 48" height="64" preserveAspectRatio="xMidYMid meet" version="1.0"><defs><g/><clipPath id="39402e36e7"><path d="M 9.011719 2.792969 L 39.132812 2.792969 L 39.132812 32.914062 L 9.011719 32.914062 Z M 9.011719 2.792969 " clip-rule="nonzero"/></clipPath><clipPath id="44a91245cd"><path d="M 1 0.148438 L 11 0.148438 L 11 10 L 1 10 Z M 1 0.148438 " clip-rule="nonzero"/></clipPath><clipPath id="edf2824d92"><path d="M 10 0.148438 L 20 0.148438 L 20 10 L 10 10 Z M 10 0.148438 " clip-rule="nonzero"/></clipPath><clipPath id="5d27133dea"><path d="M 20 0.148438 L 23 0.148438 L 23 10 L 20 10 Z M 20 0.148438 " clip-rule="nonzero"/></clipPath><clipPath id="7980ef082a"><rect x="0" width="25" y="0" height="14"/></clipPath></defs><g clip-path="url(#39402e36e7)"><path fill="#000000" d="M 24.074219 2.792969 C 23.085938 2.792969 22.105469 2.886719 21.136719 3.082031 C 20.164062 3.273438 19.222656 3.558594 18.308594 3.9375 C 17.394531 4.316406 16.527344 4.78125 15.707031 5.332031 C 14.882812 5.878906 14.121094 6.503906 13.421875 7.203125 C 12.722656 7.902344 12.101562 8.664062 11.550781 9.484375 C 11 10.308594 10.539062 11.175781 10.160156 12.089844 C 9.78125 13.003906 9.496094 13.945312 9.300781 14.914062 C 9.109375 15.882812 9.011719 16.863281 9.011719 17.851562 C 9.011719 18.84375 9.109375 19.820312 9.300781 20.792969 C 9.496094 21.761719 9.78125 22.703125 10.160156 23.617188 C 10.539062 24.53125 11 25.398438 11.550781 26.21875 C 12.101562 27.042969 12.722656 27.804688 13.421875 28.503906 C 14.121094 29.203125 14.882812 29.828125 15.707031 30.375 C 16.527344 30.925781 17.394531 31.390625 18.308594 31.769531 C 19.222656 32.144531 20.164062 32.433594 21.136719 32.625 C 22.105469 32.816406 23.085938 32.914062 24.074219 32.914062 C 25.0625 32.914062 26.042969 32.816406 27.011719 32.625 C 27.980469 32.433594 28.921875 32.144531 29.835938 31.769531 C 30.75 31.390625 31.617188 30.925781 32.441406 30.375 C 33.261719 29.828125 34.023438 29.203125 34.722656 28.503906 C 35.421875 27.804688 36.046875 27.042969 36.597656 26.21875 C 37.144531 25.398438 37.609375 24.53125 37.988281 23.617188 C 38.367188 22.703125 38.652344 21.761719 38.84375 20.792969 C 39.039062 19.820312 39.132812 18.84375 39.132812 17.851562 C 39.132812 16.863281 39.035156 15.886719 38.84375 14.914062 C 38.648438 13.945312 38.363281 13.003906 37.984375 12.09375 C 37.605469 11.179688 37.140625 10.3125 36.589844 9.488281 C 36.042969 8.667969 35.417969 7.90625 34.71875 7.207031 C 34.019531 6.507812 33.257812 5.886719 32.4375 5.335938 C 31.613281 4.785156 30.746094 4.320312 29.835938 3.941406 C 28.921875 3.5625 27.980469 3.277344 27.011719 3.085938 C 26.042969 2.890625 25.0625 2.792969 24.074219 2.792969 Z M 31.640625 18.699219 L 20.597656 25.730469 C 20.261719 25.941406 19.921875 25.953125 19.574219 25.761719 C 19.226562 25.570312 19.054688 25.277344 19.054688 24.882812 L 19.054688 10.824219 C 19.054688 10.429688 19.226562 10.132812 19.574219 9.945312 C 19.921875 9.753906 20.261719 9.765625 20.597656 9.976562 L 31.640625 17.003906 C 31.785156 17.097656 31.898438 17.21875 31.984375 17.371094 C 32.066406 17.519531 32.105469 17.679688 32.105469 17.851562 C 32.105469 18.023438 32.066406 18.1875 31.984375 18.335938 C 31.898438 18.488281 31.785156 18.609375 31.640625 18.699219 Z M 31.640625 18.699219 " fill-opacity="1" fill-rule="nonzero"/></g><g transform="matrix(1, 0, 0, 1, 12, 33)"><g clip-path="url(#7980ef082a)"><g clip-path="url(#44a91245cd)"><g fill="#000000" fill-opacity="1"><g transform="translate(1.089903, 9.551291)"><g><path d="M 3.078125 -4.46875 L 0.125 -8.765625 L 3.203125 -8.765625 L 4.625 -6.71875 L 6.046875 -8.765625 L 9.125 -8.765625 L 6.171875 -4.46875 L 9.25 0 L 6.171875 0 L 4.625 -2.25 L 3.078125 0 L 0 0 Z M 3.078125 -4.46875 "/></g></g></g></g><g clip-path="url(#edf2824d92)"><g fill="#000000" fill-opacity="1"><g transform="translate(10.33365, 9.551291)"><g><path d="M 4.90625 -8.890625 C 5.894531 -8.890625 6.769531 -8.648438 7.53125 -8.171875 C 8.300781 -7.703125 8.867188 -7.066406 9.234375 -6.265625 L 6.703125 -5.34375 C 6.546875 -5.664062 6.304688 -5.925781 5.984375 -6.125 C 5.671875 -6.320312 5.3125 -6.421875 4.90625 -6.421875 C 4.351562 -6.421875 3.890625 -6.222656 3.515625 -5.828125 C 3.140625 -5.441406 2.953125 -4.96875 2.953125 -4.40625 C 2.953125 -3.820312 3.140625 -3.332031 3.515625 -2.9375 C 3.890625 -2.5625 4.351562 -2.375 4.90625 -2.375 C 5.320312 -2.375 5.6875 -2.46875 6 -2.65625 C 6.3125 -2.84375 6.546875 -3.101562 6.703125 -3.4375 L 9.234375 -2.5 C 8.878906 -1.71875 8.3125 -1.082031 7.53125 -0.59375 C 6.769531 -0.113281 5.894531 0.125 4.90625 0.125 C 3.582031 0.125 2.476562 -0.304688 1.59375 -1.171875 C 0.695312 -2.035156 0.25 -3.109375 0.25 -4.390625 C 0.25 -5.660156 0.695312 -6.726562 1.59375 -7.59375 C 2.488281 -8.457031 3.59375 -8.890625 4.90625 -8.890625 Z M 4.90625 -8.890625 "/></g></g></g></g><g clip-path="url(#5d27133dea)"><g fill="#000000" fill-opacity="1"><g transform="translate(19.690121, 9.551291)"><g><path d="M 2.90625 0 L 0.3125 0 L 0.3125 -8.765625 L 2.90625 -8.765625 Z M 2.90625 0 "/></g></g></g></g></g></g></svg>