<svg xmlns="http://www.w3.org/2000/svg" xmlns:xlink="http://www.w3.org/1999/xlink" width="64" zoomAndPan="magnify" viewBox="0 0 48 48" height="64" preserveAspectRatio="xMidYMid meet" version="1.0"><defs><clipPath id="cb7b4238ba"><path d="M 9 2.144531 L 46.90625 2.144531 L 46.90625 44.757812 L 9 44.757812 Z M 9 2.144531 " clip-rule="nonzero"/></clipPath><clipPath id="876eb71117"><path d="M 1.390625 35 L 10 35 L 10 43 L 1.390625 43 Z M 1.390625 35 " clip-rule="nonzero"/></clipPath></defs><g clip-path="url(#cb7b4238ba)"><path fill="#000000" d="M 21.574219 3.21875 C 21.59375 3.222656 21.582031 3.238281 21.574219 3.238281 C 21.578125 3.351562 21.628906 3.226562 21.652344 3.199219 C 21.679688 3.160156 21.726562 3.101562 21.75 3.0625 C 21.78125 3.011719 21.882812 2.804688 21.941406 2.792969 C 21.96875 2.789062 22.019531 2.785156 22 2.851562 C 22.050781 2.785156 22.078125 2.726562 22.136719 2.675781 C 22.175781 2.644531 22.242188 2.632812 22.292969 2.601562 C 22.347656 2.5625 22.398438 2.472656 22.46875 2.464844 C 22.484375 2.464844 22.515625 2.5 22.546875 2.484375 C 22.625 2.445312 22.675781 2.347656 22.761719 2.308594 C 22.804688 2.292969 22.875 2.308594 22.9375 2.292969 C 22.980469 2.28125 23.019531 2.238281 23.054688 2.234375 C 23.089844 2.226562 23.148438 2.253906 23.191406 2.253906 C 23.289062 2.25 23.363281 2.207031 23.480469 2.214844 C 23.539062 2.21875 23.597656 2.253906 23.640625 2.253906 C 23.742188 2.246094 23.863281 2.171875 23.96875 2.15625 C 24.109375 2.136719 24.289062 2.136719 24.359375 2.195312 C 24.433594 2.257812 24.65625 2.113281 24.75 2.15625 C 24.824219 2.191406 24.730469 2.175781 24.769531 2.214844 C 25.035156 2.234375 25.253906 2.300781 25.429688 2.40625 C 25.382812 2.449219 25.296875 2.363281 25.199219 2.386719 C 25.230469 2.488281 25.460938 2.472656 25.527344 2.503906 C 25.640625 2.554688 25.699219 2.664062 25.800781 2.753906 C 25.832031 2.78125 25.878906 2.808594 25.898438 2.832031 C 25.953125 2.894531 25.996094 2.992188 26.054688 3.0625 C 26.117188 3.140625 26.199219 3.179688 26.230469 3.257812 C 26.253906 3.308594 26.25 3.382812 26.269531 3.449219 C 26.316406 3.601562 26.425781 3.753906 26.484375 3.929688 C 26.511719 4.015625 26.53125 4.117188 26.5625 4.203125 C 26.597656 4.296875 26.648438 4.378906 26.660156 4.453125 C 26.667969 4.5 26.640625 4.539062 26.640625 4.605469 C 26.640625 4.671875 26.675781 4.757812 26.679688 4.839844 C 26.679688 4.90625 26.65625 4.972656 26.660156 5.03125 C 26.664062 5.15625 26.761719 5.300781 26.640625 5.339844 C 26.601562 5.351562 26.601562 5.332031 26.582031 5.359375 C 26.53125 5.425781 26.570312 5.597656 26.5625 5.707031 C 26.554688 5.785156 26.507812 5.890625 26.503906 5.996094 C 26.496094 6.132812 26.589844 6.289062 26.445312 6.304688 C 26.429688 6.304688 26.414062 6.277344 26.386719 6.304688 C 26.386719 6.304688 26.3125 6.511719 26.308594 6.574219 C 26.308594 6.609375 26.332031 6.640625 26.328125 6.671875 C 26.316406 6.726562 26.273438 6.761719 26.269531 6.804688 C 26.226562 7.179688 26.253906 7.335938 26.347656 7.636719 C 26.433594 7.902344 26.5 8.042969 26.640625 8.292969 C 26.726562 8.445312 26.765625 8.632812 26.992188 8.582031 C 27.03125 8.734375 27.175781 8.824219 27.339844 8.8125 C 27.4375 8.804688 27.515625 8.714844 27.632812 8.640625 C 27.742188 8.570312 27.859375 8.523438 27.945312 8.484375 C 28.140625 8.394531 28.394531 8.273438 28.609375 8.234375 C 28.933594 8.171875 29.3125 8.179688 29.660156 8.195312 C 30.070312 8.210938 30.488281 8.269531 30.90625 8.328125 C 31.324219 8.390625 31.734375 8.425781 32.15625 8.445312 C 32.394531 8.457031 32.636719 8.5 32.875 8.503906 C 33.042969 8.507812 33.183594 8.476562 33.34375 8.542969 C 33.4375 8.582031 33.484375 8.6875 33.597656 8.714844 C 33.742188 8.75 34.003906 8.6875 34.21875 8.65625 C 34.625 8.601562 34.910156 8.480469 35.332031 8.40625 C 35.535156 8.371094 35.742188 8.324219 35.914062 8.3125 C 36.203125 8.289062 36.511719 8.335938 36.8125 8.347656 C 37.839844 8.394531 38.941406 8.394531 39.96875 8.347656 C 40.171875 8.339844 40.363281 8.359375 40.554688 8.347656 C 40.945312 8.332031 41.414062 8.238281 41.878906 8.273438 C 42.132812 8.292969 42.371094 8.367188 42.621094 8.40625 C 42.871094 8.445312 43.144531 8.472656 43.417969 8.484375 C 43.585938 8.492188 43.769531 8.460938 43.945312 8.484375 C 44.148438 8.507812 44.359375 8.65625 44.609375 8.753906 C 44.832031 8.84375 45.054688 8.925781 45.25 9.023438 C 45.453125 9.125 45.632812 9.277344 45.816406 9.390625 C 45.914062 9.453125 46 9.523438 46.089844 9.585938 C 46.242188 9.6875 46.339844 9.742188 46.457031 9.875 C 46.492188 9.910156 46.523438 9.960938 46.554688 9.988281 C 46.664062 10.085938 46.902344 10.164062 46.90625 10.296875 C 46.914062 10.453125 46.742188 10.492188 46.554688 10.53125 C 46.503906 10.539062 46.453125 10.566406 46.417969 10.566406 C 46.347656 10.570312 46.261719 10.511719 46.207031 10.53125 C 46.140625 10.550781 46.171875 10.613281 46.128906 10.664062 C 46.132812 10.65625 46.003906 10.738281 45.992188 10.742188 C 45.703125 10.8125 45.433594 10.519531 45.328125 10.375 C 45.261719 10.285156 45.015625 10.207031 44.878906 10.144531 C 44.816406 10.113281 44.746094 10.082031 44.683594 10.046875 C 44.621094 10.011719 44.5625 9.957031 44.511719 9.929688 C 44.453125 9.90625 44.382812 9.914062 44.335938 9.894531 C 44.257812 9.863281 44.175781 9.808594 44.082031 9.757812 C 43.972656 9.699219 43.945312 9.660156 43.730469 9.660156 C 43.664062 9.660156 43.578125 9.691406 43.496094 9.699219 C 43.265625 9.71875 43.050781 9.6875 43.027344 9.757812 C 43.003906 9.835938 43.289062 9.898438 43.378906 9.929688 C 43.644531 10.019531 44.328125 10.210938 44.199219 10.625 C 44.144531 10.796875 43.996094 10.890625 43.710938 10.855469 C 43.457031 10.828125 43.207031 10.679688 42.949219 10.546875 C 42.769531 10.453125 42.578125 10.410156 42.328125 10.355469 C 42.265625 10.34375 42.191406 10.308594 42.132812 10.296875 C 41.953125 10.269531 41.808594 10.296875 41.683594 10.222656 C 41.539062 10.132812 41.410156 9.953125 41.292969 9.796875 C 41.253906 9.738281 41.195312 9.648438 41.175781 9.640625 C 41.074219 9.597656 40.683594 9.78125 40.554688 9.835938 C 39.957031 10.070312 39.3125 10.335938 38.742188 10.546875 C 37.925781 10.851562 37.003906 11.175781 36.03125 11.222656 C 35.3125 11.261719 34.824219 11.148438 34.105469 11.167969 C 33.984375 11.167969 33.828125 11.160156 33.773438 11.183594 C 33.664062 11.234375 33.613281 11.4375 33.5 11.511719 C 33.351562 11.613281 32.949219 11.648438 32.699219 11.6875 C 32.371094 11.738281 32.089844 11.746094 31.707031 11.765625 C 31.398438 11.777344 31.09375 11.765625 30.828125 11.785156 C 30.667969 11.792969 30.457031 11.820312 30.34375 11.898438 C 30.15625 12.023438 30.042969 12.492188 29.914062 12.785156 C 29.710938 13.246094 29.480469 13.648438 29.230469 14.078125 C 29.191406 14.148438 29.136719 14.199219 29.09375 14.273438 C 29.058594 14.339844 29.039062 14.429688 28.996094 14.503906 C 28.890625 14.703125 28.746094 14.910156 28.609375 15.101562 C 28.554688 15.175781 28.480469 15.253906 28.453125 15.332031 C 28.378906 15.527344 28.363281 15.773438 28.316406 16.027344 C 28.214844 16.582031 28.074219 17.195312 27.925781 17.707031 C 27.90625 17.769531 27.90625 17.824219 27.886719 17.878906 C 27.867188 17.929688 27.835938 17.972656 27.828125 18.015625 C 27.78125 18.296875 27.875 18.554688 27.886719 18.75 C 27.917969 19.171875 27.847656 19.511719 27.710938 19.828125 C 27.679688 19.910156 27.628906 19.980469 27.59375 20.058594 C 27.5625 20.144531 27.550781 20.234375 27.515625 20.3125 C 27.492188 20.363281 27.429688 20.457031 27.378906 20.523438 C 27.335938 20.582031 27.277344 20.640625 27.222656 20.695312 C 27.113281 20.816406 27.007812 20.949219 26.894531 21.042969 C 26.839844 21.089844 26.667969 21.144531 26.660156 21.199219 C 26.648438 21.265625 26.816406 21.394531 26.835938 21.449219 C 26.871094 21.5625 26.84375 21.734375 26.855469 21.875 C 26.871094 22.0625 26.902344 22.285156 26.894531 22.53125 C 26.851562 23.464844 26.660156 24.179688 26.347656 24.863281 C 26.304688 24.957031 26.246094 25.074219 26.191406 25.191406 C 26.136719 25.3125 26.035156 25.449219 26.035156 25.5 C 26.035156 25.574219 26.117188 25.621094 26.152344 25.695312 C 26.242188 25.867188 26.289062 26.050781 26.386719 26.273438 C 26.441406 26.402344 26.609375 26.128906 26.660156 26.078125 C 26.816406 25.914062 27 25.785156 27.1875 25.65625 C 27.460938 25.464844 27.777344 25.328125 28.101562 25.152344 C 28.304688 25.042969 28.484375 24.90625 28.667969 24.789062 C 29.050781 24.53125 29.417969 24.3125 29.777344 24.015625 C 30.011719 23.820312 30.292969 23.601562 30.558594 23.378906 C 30.652344 23.296875 30.773438 23.195312 30.789062 23.148438 C 30.804688 23.101562 30.765625 23.015625 30.769531 22.972656 C 30.78125 22.914062 30.859375 22.832031 30.886719 22.78125 C 30.929688 22.707031 30.980469 22.640625 31.003906 22.585938 C 31.023438 22.542969 31.007812 22.480469 31.023438 22.433594 C 31.050781 22.355469 31.144531 22.195312 31.199219 22.105469 C 31.34375 21.867188 31.515625 21.722656 31.726562 21.546875 C 31.789062 21.492188 31.878906 21.453125 31.882812 21.332031 C 31.953125 21.339844 31.957031 21.410156 32.019531 21.410156 C 32.140625 21.414062 32.144531 21.234375 32.273438 21.332031 C 32.316406 21.367188 32.363281 21.4375 32.292969 21.546875 C 32.386719 21.601562 32.433594 21.4375 32.542969 21.488281 C 32.582031 21.503906 32.660156 21.558594 32.601562 21.660156 C 32.660156 21.691406 32.6875 21.667969 32.71875 21.679688 C 32.726562 21.683594 32.792969 21.703125 32.816406 21.738281 C 32.863281 21.808594 32.78125 21.832031 32.796875 21.894531 C 32.808594 21.925781 32.878906 21.984375 32.894531 21.988281 C 33.042969 22.023438 33.019531 21.859375 33.148438 21.914062 C 33.164062 21.917969 33.222656 21.949219 33.226562 21.949219 C 33.277344 22.027344 33.1875 22.09375 33.207031 22.164062 C 33.226562 22.234375 33.441406 22.332031 33.519531 22.375 C 33.574219 22.40625 33.640625 22.441406 33.695312 22.472656 C 33.753906 22.503906 33.820312 22.566406 33.851562 22.570312 C 33.960938 22.578125 34.007812 22.460938 34.085938 22.511719 C 34.167969 22.566406 34.066406 22.59375 34.105469 22.683594 C 34.113281 22.710938 34.324219 22.871094 34.375 22.878906 C 34.433594 22.882812 34.511719 22.828125 34.570312 22.839844 C 34.597656 22.871094 34.625 22.902344 34.609375 22.972656 C 34.675781 22.949219 34.851562 22.855469 34.84375 23.011719 C 34.839844 23.117188 34.820312 23.136719 34.921875 23.207031 C 35.019531 23.269531 35.035156 23.25 35.136719 23.222656 C 35.199219 23.207031 35.265625 23.207031 35.253906 23.300781 C 35.234375 23.433594 35.246094 23.410156 35.371094 23.496094 C 35.421875 23.527344 35.464844 23.585938 35.488281 23.589844 C 35.570312 23.605469 35.621094 23.523438 35.683594 23.570312 C 35.75 23.625 35.648438 23.636719 35.683594 23.746094 C 35.722656 23.878906 35.859375 23.859375 35.953125 23.917969 C 35.867188 24.167969 35.992188 24.109375 35.953125 24.207031 C 35.933594 24.269531 35.910156 24.246094 35.855469 24.285156 C 35.789062 24.339844 35.703125 24.492188 35.605469 24.515625 C 35.410156 24.566406 34.996094 24.417969 34.785156 24.363281 C 34.746094 24.351562 34.71875 24.328125 34.6875 24.324219 C 34.652344 24.316406 34.605469 24.347656 34.570312 24.34375 C 34.539062 24.339844 34.476562 24.316406 34.433594 24.304688 C 34.386719 24.292969 34.339844 24.277344 34.296875 24.265625 C 34.253906 24.253906 34.1875 24.257812 34.140625 24.246094 C 34.105469 24.238281 34.078125 24.195312 34.042969 24.1875 C 34.007812 24.179688 33.957031 24.199219 33.910156 24.1875 C 33.875 24.183594 33.859375 24.152344 33.832031 24.152344 C 33.78125 24.144531 33.648438 24.144531 33.578125 24.152344 C 33.542969 24.152344 33.519531 24.183594 33.480469 24.1875 C 33.4375 24.195312 33.386719 24.164062 33.363281 24.171875 C 33.3125 24.179688 33.277344 24.234375 33.226562 24.246094 C 33.191406 24.257812 33.148438 24.226562 33.109375 24.226562 C 33.035156 24.230469 32.96875 24.300781 32.933594 24.304688 C 32.882812 24.3125 32.828125 24.273438 32.777344 24.285156 C 32.640625 24.316406 32.523438 24.480469 32.328125 24.402344 C 32.300781 24.390625 32.273438 24.34375 32.253906 24.34375 C 32.175781 24.34375 31.929688 24.515625 31.84375 24.574219 C 31.710938 24.667969 31.605469 24.753906 31.492188 24.84375 C 31.210938 25.078125 30.988281 25.242188 30.789062 25.40625 C 30.195312 25.894531 29.785156 26.378906 29.328125 26.929688 C 29.042969 27.273438 28.707031 27.683594 28.433594 28.046875 C 28.386719 28.109375 28.320312 28.160156 28.277344 28.222656 C 28.230469 28.28125 28.207031 28.355469 28.160156 28.414062 C 28.066406 28.527344 27.953125 28.617188 27.867188 28.742188 C 27.722656 28.960938 27.660156 29.230469 27.554688 29.515625 C 27.507812 29.640625 27.449219 29.714844 27.339844 29.84375 C 27.273438 29.921875 27.203125 30.007812 27.148438 30.015625 C 27.046875 30.027344 26.984375 29.929688 26.933594 29.9375 C 26.839844 29.953125 26.785156 30.109375 26.71875 30.191406 C 26.621094 30.300781 26.402344 30.5 26.25 30.574219 C 25.976562 30.707031 25.441406 30.640625 25.121094 30.554688 C 24.566406 30.40625 24.335938 30.097656 23.988281 29.726562 C 23.929688 29.664062 23.832031 29.527344 23.773438 29.515625 C 23.703125 29.496094 23.597656 29.546875 23.523438 29.550781 C 23.472656 29.558594 23.371094 29.535156 23.328125 29.550781 C 23.292969 29.566406 23.273438 29.621094 23.230469 29.6875 C 23.09375 29.902344 22.9375 30.183594 22.820312 30.421875 C 22.769531 30.527344 22.714844 30.632812 22.683594 30.730469 C 22.648438 30.84375 22.644531 31.078125 22.566406 31.117188 C 22.523438 31.136719 22.308594 31.085938 22.214844 31.058594 C 22.113281 31.027344 22.015625 30.972656 21.941406 30.941406 C 21.871094 30.914062 21.773438 30.875 21.671875 30.824219 C 21.570312 30.78125 21.441406 30.703125 21.398438 30.710938 C 21.359375 30.714844 21.242188 30.867188 21.144531 31 C 20.90625 31.316406 20.671875 31.628906 20.460938 31.945312 C 20.324219 32.152344 20.179688 32.363281 20.09375 32.660156 C 20.058594 32.773438 20.027344 32.941406 19.996094 33.101562 C 19.960938 33.261719 19.902344 33.46875 19.917969 33.566406 C 19.929688 33.671875 19.996094 33.667969 20.011719 33.757812 C 20.023438 33.808594 20.007812 34.015625 19.996094 34.105469 C 19.96875 34.265625 19.894531 34.453125 19.859375 34.644531 C 19.78125 35.050781 19.730469 35.394531 19.585938 35.726562 C 19.378906 36.191406 19.144531 36.628906 18.84375 37.019531 C 18.65625 37.261719 18.449219 37.484375 18.222656 37.734375 C 17.753906 38.25 17.371094 38.714844 16.992188 39.199219 C 16.714844 39.558594 16.464844 40.011719 16.195312 40.433594 C 16.109375 40.566406 15.953125 40.742188 15.941406 40.839844 C 15.929688 40.90625 15.976562 40.980469 15.980469 41.050781 C 15.984375 41.148438 15.945312 41.25 15.941406 41.339844 C 15.929688 41.648438 15.992188 41.921875 15.960938 42.191406 C 15.933594 42.421875 15.832031 42.664062 15.746094 42.867188 C 15.734375 42.890625 15.707031 42.933594 15.707031 42.941406 C 15.699219 42.996094 15.746094 43.105469 15.726562 43.15625 C 15.691406 43.230469 15.5625 43.230469 15.492188 43.289062 C 15.398438 43.371094 15.429688 43.457031 15.355469 43.484375 C 15.265625 43.511719 15.234375 43.425781 15.140625 43.425781 C 15.09375 43.421875 14.886719 43.5 14.8125 43.519531 C 14.761719 43.535156 14.699219 43.535156 14.695312 43.539062 C 14.574219 43.613281 14.632812 43.769531 14.421875 43.695312 C 14.300781 43.652344 14.25 43.683594 14.070312 43.753906 C 13.644531 43.914062 13.277344 44.128906 12.882812 44.3125 C 12.800781 44.347656 12.726562 44.398438 12.648438 44.429688 C 12.554688 44.464844 12.460938 44.464844 12.394531 44.503906 C 12.359375 44.527344 12.351562 44.53125 12.316406 44.582031 C 12.292969 44.613281 12.277344 44.652344 12.257812 44.660156 C 12.191406 44.679688 12.101562 44.605469 12.023438 44.601562 C 11.96875 44.597656 11.890625 44.628906 11.808594 44.640625 C 11.726562 44.652344 11.636719 44.644531 11.574219 44.660156 C 11.484375 44.683594 11.429688 44.75 11.378906 44.757812 C 11.320312 44.761719 11.285156 44.710938 11.207031 44.699219 C 11.132812 44.683594 11.003906 44.707031 10.894531 44.699219 C 10.78125 44.691406 10.679688 44.652344 10.621094 44.660156 C 10.53125 44.667969 10.472656 44.75 10.40625 44.738281 C 10.339844 44.722656 10.355469 44.644531 10.289062 44.601562 C 10.253906 44.578125 10.15625 44.566406 10.074219 44.542969 C 10 44.523438 9.910156 44.484375 9.878906 44.484375 C 9.804688 44.488281 9.765625 44.5625 9.703125 44.542969 C 9.609375 44.511719 9.683594 44.449219 9.628906 44.390625 C 9.605469 44.367188 9.492188 44.339844 9.433594 44.3125 C 9.285156 44.246094 9.027344 44.160156 9.023438 43.925781 C 9.019531 43.742188 9.074219 43.847656 9.121094 43.714844 C 9.140625 43.652344 9.121094 43.5625 9.140625 43.503906 C 9.144531 43.480469 9.183594 43.460938 9.199219 43.425781 C 9.230469 43.347656 9.261719 43.242188 9.316406 43.191406 C 9.378906 43.136719 9.511719 43.105469 9.628906 43.058594 C 9.925781 42.933594 10.269531 42.820312 10.542969 42.652344 C 10.804688 42.492188 11.105469 42.339844 11.402344 42.191406 C 11.527344 42.125 11.695312 42.09375 11.789062 41.996094 C 11.820312 41.964844 11.8125 41.921875 11.847656 41.902344 C 11.886719 41.878906 11.933594 41.914062 11.964844 41.902344 C 11.980469 41.894531 12.070312 41.820312 12.082031 41.785156 C 12.09375 41.753906 12.070312 41.71875 12.101562 41.6875 C 12.128906 41.660156 12.183594 41.667969 12.21875 41.648438 C 12.265625 41.625 12.332031 41.578125 12.355469 41.515625 C 12.371094 41.476562 12.34375 41.433594 12.375 41.398438 C 12.40625 41.363281 12.4375 41.390625 12.492188 41.359375 C 12.550781 41.324219 12.5625 41.285156 12.609375 41.226562 C 12.613281 41.21875 12.644531 41.210938 12.648438 41.207031 C 12.664062 41.167969 12.636719 41.125 12.667969 41.089844 C 12.683594 41.070312 12.757812 41.042969 12.804688 41.011719 C 12.820312 41.003906 12.828125 40.964844 12.84375 40.953125 C 12.871094 40.9375 12.898438 40.953125 12.921875 40.9375 C 13.046875 40.828125 13.027344 40.769531 13.191406 40.742188 C 13.292969 40.726562 13.328125 40.699219 13.445312 40.589844 C 13.472656 40.5625 13.488281 40.519531 13.523438 40.492188 C 13.597656 40.429688 13.695312 40.347656 13.777344 40.261719 C 13.804688 40.230469 13.824219 40.199219 13.855469 40.164062 C 14.265625 39.683594 14.609375 39.023438 14.964844 38.484375 C 15.316406 37.957031 15.613281 37.382812 15.882812 36.769531 C 16.019531 36.457031 16.140625 36.148438 16.292969 35.863281 C 16.445312 35.566406 16.605469 35.285156 16.71875 34.972656 C 16.78125 34.808594 16.832031 34.648438 16.894531 34.492188 C 16.988281 34.269531 17.078125 34.113281 17.167969 33.855469 C 17.191406 33.789062 17.238281 33.722656 17.246094 33.679688 C 17.289062 33.472656 17.253906 33.226562 17.285156 33.007812 C 17.285156 33.003906 17.359375 32.675781 17.382812 32.660156 C 17.417969 32.632812 17.5625 32.65625 17.578125 32.640625 C 17.605469 32.613281 17.644531 32.304688 17.675781 32.136719 C 17.746094 31.742188 17.800781 31.503906 17.910156 31.171875 C 17.957031 31.023438 17.988281 30.867188 18.046875 30.730469 C 18.070312 30.671875 18.148438 30.589844 18.164062 30.515625 C 18.179688 30.4375 18.15625 30.328125 18.164062 30.226562 C 18.183594 29.863281 18.277344 29.515625 18.394531 29.1875 C 18.441406 29.0625 18.515625 28.945312 18.511719 28.898438 C 18.507812 28.820312 18.464844 28.84375 18.417969 28.761719 C 18.386719 28.714844 18.382812 28.644531 18.355469 28.605469 C 18.289062 28.507812 18.167969 28.445312 18.164062 28.335938 C 18.15625 28.195312 18.351562 28.09375 18.4375 27.988281 C 18.480469 27.9375 18.527344 27.847656 18.570312 27.777344 C 18.871094 27.3125 19.15625 26.769531 19.449219 26.253906 C 19.535156 26.101562 19.636719 25.96875 19.722656 25.828125 C 19.894531 25.539062 20.015625 25.285156 20.207031 24.960938 C 20.296875 24.8125 20.453125 24.628906 20.460938 24.535156 C 20.472656 24.457031 20.394531 24.277344 20.34375 24.132812 C 20.148438 23.550781 20.054688 22.835938 20.09375 22.007812 C 20.105469 21.679688 20.171875 21.335938 20.246094 20.988281 C 20.277344 20.847656 20.335938 20.683594 20.382812 20.523438 C 20.433594 20.363281 20.445312 20.171875 20.519531 20.078125 C 20.570312 20.019531 20.636719 20.023438 20.675781 19.984375 C 20.714844 19.945312 20.769531 19.875 20.773438 19.828125 C 20.785156 19.703125 20.640625 19.5625 20.597656 19.402344 C 20.582031 19.335938 20.5625 19.214844 20.578125 19.132812 C 20.609375 18.980469 20.824219 18.859375 20.910156 18.730469 C 21.035156 18.539062 21.101562 18.199219 21.183594 17.839844 C 21.289062 17.375 21.296875 16.886719 21.339844 16.355469 C 21.347656 16.253906 21.34375 16.082031 21.339844 15.949219 C 21.324219 15.636719 21.246094 15.101562 21.164062 14.773438 C 21.140625 14.6875 21.066406 14.425781 21.066406 14.425781 C 21.011719 14.394531 20.910156 14.5 20.851562 14.542969 C 20.71875 14.644531 20.773438 14.59375 20.675781 14.675781 C 20.535156 14.800781 20.449219 14.894531 20.324219 14.96875 C 20.027344 15.140625 19.699219 15.230469 19.429688 15.332031 C 19.136719 15.445312 18.800781 15.5625 18.4375 15.621094 C 18.070312 15.683594 17.660156 15.722656 17.285156 15.738281 C 16.925781 15.753906 16.523438 15.71875 16.195312 15.738281 C 16.078125 15.746094 15.839844 15.753906 15.765625 15.796875 C 15.691406 15.835938 15.65625 16.015625 15.570312 16.125 C 15.523438 16.183594 15.414062 16.277344 15.316406 16.316406 C 15.214844 16.359375 15.09375 16.355469 14.984375 16.394531 C 14.933594 16.414062 14.886719 16.464844 14.832031 16.492188 C 14.765625 16.519531 14.699219 16.519531 14.65625 16.550781 C 14.457031 16.671875 14.441406 16.769531 14.363281 16.972656 C 14.34375 17.023438 14.300781 17.078125 14.285156 17.128906 C 14.25 17.230469 14.214844 17.582031 14.050781 17.511719 C 13.871094 17.441406 14.074219 16.9375 14.128906 16.761719 C 14.152344 16.683594 14.210938 16.546875 14.207031 16.53125 C 14.160156 16.394531 13.957031 16.480469 13.875 16.566406 C 13.828125 16.617188 13.777344 16.738281 13.71875 16.839844 C 13.660156 16.9375 13.59375 17.011719 13.5625 17.089844 C 13.519531 17.195312 13.46875 17.636719 13.25 17.53125 C 13.03125 17.429688 13.335938 16.90625 13.347656 16.761719 C 13.300781 16.730469 13.261719 16.753906 13.214844 16.761719 C 13.171875 16.765625 13.097656 16.761719 13.058594 16.78125 C 12.914062 16.847656 12.898438 17.140625 12.707031 17.222656 C 12.652344 17.246094 12.574219 17.304688 12.511719 17.242188 C 12.433594 17.167969 12.554688 16.984375 12.589844 16.894531 C 12.644531 16.757812 12.675781 16.6875 12.726562 16.585938 C 12.53125 16.609375 12.484375 16.851562 12.21875 16.859375 C 12.03125 16.863281 12.042969 16.746094 12.179688 16.625 C 12.199219 16.609375 12.199219 16.589844 12.21875 16.566406 C 12.304688 16.472656 12.355469 16.425781 12.414062 16.375 C 12.566406 16.238281 12.683594 16.089844 12.804688 16.007812 C 12.863281 15.96875 12.941406 15.949219 13.019531 15.914062 C 13.203125 15.820312 13.40625 15.699219 13.601562 15.585938 C 13.863281 15.433594 14.179688 15.34375 14.480469 15.257812 C 14.789062 15.164062 15.09375 15.085938 15.394531 14.96875 C 15.679688 14.855469 15.953125 14.722656 16.234375 14.601562 C 16.523438 14.472656 16.804688 14.355469 17.070312 14.214844 C 17.71875 13.871094 18.304688 13.472656 19.136719 13.269531 C 19.398438 13.203125 19.585938 13.199219 19.722656 13.019531 C 19.75 12.980469 19.8125 12.898438 19.820312 12.882812 C 19.851562 12.789062 19.824219 12.683594 19.859375 12.59375 C 19.898438 12.488281 20.019531 12.367188 20.113281 12.246094 C 20.363281 11.921875 20.644531 11.554688 20.871094 11.222656 C 21.042969 10.972656 21.15625 10.714844 21.300781 10.472656 C 21.375 10.347656 21.453125 10.230469 21.535156 10.105469 C 21.902344 9.53125 22.519531 8.972656 23.445312 8.964844 C 23.492188 8.964844 23.710938 9.015625 23.753906 8.984375 C 23.828125 8.9375 23.765625 8.605469 23.714844 8.582031 C 23.703125 8.574219 23.40625 8.703125 23.367188 8.714844 C 23.03125 8.820312 22.679688 8.828125 22.566406 8.503906 C 22.539062 8.417969 22.558594 8.316406 22.527344 8.214844 C 22.511719 8.167969 22.480469 8.109375 22.449219 8.058594 C 22.425781 8.019531 22.371094 7.984375 22.351562 7.945312 C 22.328125 7.894531 22.355469 7.832031 22.332031 7.789062 C 22.296875 7.726562 22.21875 7.699219 22.195312 7.65625 C 22.171875 7.601562 22.175781 7.519531 22.15625 7.460938 C 22.140625 7.414062 22.121094 7.332031 22.097656 7.308594 C 22.011719 7.21875 21.8125 7.273438 21.769531 7.09375 C 21.738281 6.980469 21.820312 6.851562 21.847656 6.730469 C 21.882812 6.542969 21.898438 6.363281 21.847656 6.207031 C 21.832031 6.167969 21.835938 6.113281 21.824219 6.09375 C 21.785156 6.015625 21.636719 5.9375 21.574219 5.839844 C 21.394531 5.574219 21.457031 5.238281 21.4375 4.875 C 21.429688 4.765625 21.457031 4.640625 21.4375 4.566406 C 21.40625 4.460938 21.328125 4.472656 21.28125 4.394531 C 21.230469 4.308594 21.203125 4.175781 21.222656 4.046875 C 21.238281 3.945312 21.335938 3.878906 21.359375 3.796875 C 21.378906 3.726562 21.347656 3.652344 21.359375 3.582031 C 21.386719 3.433594 21.492188 3.351562 21.574219 3.21875 " fill-opacity="1" fill-rule="evenodd"/></g><g clip-path="url(#876eb71117)"><path fill="#000000" d="M 3.289062 41.308594 C 3.675781 41.640625 4.089844 41.894531 4.519531 42.070312 C 4.558594 42.109375 4.589844 42.140625 4.71875 42.261719 C 3.996094 42.121094 3.410156 41.820312 2.675781 40.980469 C 2.910156 41.15625 3.160156 41.277344 3.289062 41.308594 Z M 3.378906 40.332031 C 3.570312 40.332031 4.28125 40.195312 4.507812 40.148438 C 4.914062 40.515625 5.378906 40.773438 5.691406 40.949219 C 5.707031 41.152344 5.6875 41.632812 5.660156 41.828125 C 5.359375 41.972656 4.714844 42.027344 4.527344 42.023438 C 4.433594 41.992188 3.800781 41.683594 3.34375 41.296875 C 3.328125 41.113281 3.347656 40.566406 3.378906 40.332031 Z M 1.933594 39.207031 C 1.96875 39.351562 2.015625 39.46875 2.039062 39.507812 C 2.027344 39.617188 2.027344 39.734375 2.027344 39.785156 C 1.996094 39.660156 1.9375 39.351562 1.933594 39.207031 Z M 2.402344 37.121094 C 2.558594 37 2.691406 36.945312 2.8125 36.910156 C 2.695312 37.421875 2.808594 37.652344 2.894531 37.914062 C 2.699219 38.355469 2.59375 38.742188 2.527344 39.179688 C 2.386719 39.261719 2.195312 39.375 2.0625 39.46875 C 1.886719 39.027344 1.859375 38.199219 2.402344 37.121094 Z M 4.339844 35.5625 C 4.21875 35.667969 4.046875 35.847656 3.949219 35.964844 C 3.566406 36.152344 3.128906 36.515625 2.855469 36.828125 C 2.722656 36.871094 2.648438 36.898438 2.457031 37.015625 C 2.882812 36.402344 3.386719 35.886719 4.339844 35.5625 Z M 6.351562 35.5 C 6.503906 35.609375 6.621094 35.71875 6.8125 35.90625 C 6.691406 35.957031 6.46875 36.101562 6.277344 36.332031 C 5.757812 36.261719 5.183594 36.292969 4.859375 36.402344 C 4.597656 36.144531 4.339844 36.003906 4.019531 35.953125 C 4.101562 35.855469 4.289062 35.628906 4.425781 35.53125 C 4.71875 35.433594 5.550781 35.261719 6.351562 35.5 Z M 8.195312 36.644531 C 8.175781 36.640625 8.152344 36.640625 8.132812 36.640625 C 7.636719 36.089844 7.265625 35.945312 6.875 35.886719 C 6.675781 35.675781 6.578125 35.617188 6.4375 35.519531 C 6.75 35.585938 7.605469 35.910156 8.195312 36.644531 Z M 8.949219 39.253906 C 8.914062 39.15625 8.84375 39 8.691406 38.871094 C 8.59375 38.425781 8.367188 37.886719 8.1875 37.664062 C 8.226562 37.453125 8.195312 36.902344 8.152344 36.695312 C 8.175781 36.691406 8.214844 36.695312 8.246094 36.703125 C 8.707031 37.335938 9.085938 38.3125 8.949219 39.253906 Z M 6.945312 39.960938 C 6.878906 39.710938 6.714844 39.089844 6.523438 38.574219 C 6.691406 38.296875 6.976562 37.867188 7.097656 37.554688 C 7.328125 37.601562 7.773438 37.691406 8.144531 37.699219 C 8.421875 38.148438 8.546875 38.484375 8.636719 38.914062 C 8.488281 39.417969 8.292969 39.726562 7.992188 40.113281 C 7.832031 40.101562 7.417969 40.019531 6.945312 39.960938 Z M 4.199219 37.535156 C 4.269531 37.355469 4.660156 36.777344 4.890625 36.445312 C 5.292969 36.316406 5.960938 36.355469 6.269531 36.398438 C 6.425781 36.640625 6.878906 37.269531 7.042969 37.507812 C 6.902344 37.84375 6.699219 38.179688 6.484375 38.542969 C 6.34375 38.535156 5.238281 38.628906 4.980469 38.636719 C 4.800781 38.402344 4.367188 37.804688 4.199219 37.535156 Z M 4.933594 38.679688 C 4.742188 39.101562 4.542969 39.851562 4.496094 40.078125 C 4.308594 40.128906 3.652344 40.242188 3.359375 40.285156 C 3.078125 39.976562 2.6875 39.394531 2.585938 39.171875 C 2.605469 38.90625 2.792969 38.28125 2.96875 37.929688 C 3.242188 37.804688 3.84375 37.660156 4.15625 37.589844 C 4.296875 37.808594 4.722656 38.414062 4.933594 38.679688 Z M 7.96875 41.160156 C 7.605469 41.492188 7.140625 41.765625 6.84375 41.925781 C 6.664062 41.945312 6.0625 41.910156 5.726562 41.824219 C 5.75 41.660156 5.78125 41.21875 5.773438 40.941406 C 6.121094 40.742188 6.730469 40.242188 6.945312 40.03125 C 7.183594 40.085938 7.824219 40.160156 7.96875 40.171875 C 8.023438 40.609375 7.980469 40.988281 7.96875 41.160156 Z M 6.71875 42.117188 C 6.746094 42.085938 6.800781 42.027344 6.84375 41.976562 C 7.429688 41.671875 7.933594 41.320312 8.457031 40.722656 C 7.941406 41.492188 7.308594 41.902344 6.71875 42.117188 Z M 8.132812 41.292969 C 9.488281 39.828125 9.382812 37.554688 7.902344 36.214844 C 6.425781 34.875 4.128906 34.976562 2.777344 36.441406 C 1.421875 37.90625 1.523438 40.179688 3.003906 41.519531 C 4.484375 42.859375 6.78125 42.757812 8.132812 41.292969 " fill-opacity="1" fill-rule="nonzero"/></g></svg>