<svg xmlns="http://www.w3.org/2000/svg" xmlns:xlink="http://www.w3.org/1999/xlink" width="64" zoomAndPan="magnify" viewBox="0 0 48 48" height="64" preserveAspectRatio="xMidYMid meet" version="1.0"><defs><g/></defs><g fill="#000000" fill-opacity="1"><g transform="translate(11.418367, 20.407028)"><g><path d="M 5.171875 -9.265625 C 6.140625 -9.265625 7.035156 -9.019531 7.859375 -8.53125 C 8.660156 -8.050781 9.269531 -7.382812 9.6875 -6.53125 L 7.046875 -5.5625 C 6.867188 -5.914062 6.613281 -6.191406 6.28125 -6.390625 C 5.945312 -6.585938 5.578125 -6.6875 5.171875 -6.6875 C 4.578125 -6.6875 4.078125 -6.476562 3.671875 -6.0625 C 3.273438 -5.664062 3.078125 -5.171875 3.078125 -4.578125 C 3.078125 -3.984375 3.269531 -3.484375 3.65625 -3.078125 C 4.039062 -2.671875 4.523438 -2.46875 5.109375 -2.46875 C 5.828125 -2.46875 6.382812 -2.734375 6.78125 -3.265625 L 4.6875 -3.265625 L 4.6875 -5.34375 L 9.859375 -5.34375 C 9.878906 -5.226562 9.894531 -5.117188 9.90625 -5.015625 C 9.914062 -4.921875 9.921875 -4.84375 9.921875 -4.78125 C 9.921875 -3.363281 9.460938 -2.1875 8.546875 -1.25 C 7.648438 -0.332031 6.5 0.125 5.09375 0.125 C 3.75 0.125 2.609375 -0.316406 1.671875 -1.203125 C 0.734375 -2.109375 0.265625 -3.226562 0.265625 -4.5625 C 0.265625 -5.914062 0.738281 -7.035156 1.6875 -7.921875 C 2.632812 -8.816406 3.796875 -9.265625 5.171875 -9.265625 Z M 5.171875 -9.265625 "/></g></g></g><g fill="#000000" fill-opacity="1"><g transform="translate(21.329256, 20.407028)"><g><path d="M 7.015625 -6.9375 L 4.34375 -6.5 C 4.3125 -6.625 4.226562 -6.722656 4.09375 -6.796875 C 3.96875 -6.867188 3.820312 -6.90625 3.65625 -6.90625 C 3.5 -6.90625 3.367188 -6.875 3.265625 -6.8125 C 3.171875 -6.75 3.125 -6.671875 3.125 -6.578125 C 3.125 -6.429688 3.234375 -6.304688 3.453125 -6.203125 L 3.828125 -6.078125 C 3.941406 -6.046875 4.101562 -6 4.3125 -5.9375 C 4.519531 -5.875 4.695312 -5.820312 4.84375 -5.78125 C 5.1875 -5.664062 5.492188 -5.539062 5.765625 -5.40625 C 6.035156 -5.28125 6.3125 -5.101562 6.59375 -4.875 C 7.175781 -4.4375 7.46875 -3.769531 7.46875 -2.875 C 7.46875 -1.957031 7.144531 -1.222656 6.5 -0.671875 C 5.851562 -0.140625 5.019531 0.125 4 0.125 C 3.039062 0.125 2.195312 -0.109375 1.46875 -0.578125 C 0.78125 -1.035156 0.332031 -1.65625 0.125 -2.4375 L 2.890625 -2.90625 C 2.941406 -2.71875 3.070312 -2.5625 3.28125 -2.4375 C 3.488281 -2.3125 3.726562 -2.25 4 -2.25 C 4.207031 -2.25 4.382812 -2.28125 4.53125 -2.34375 C 4.6875 -2.414062 4.765625 -2.503906 4.765625 -2.609375 C 4.765625 -2.671875 4.738281 -2.726562 4.6875 -2.78125 C 4.644531 -2.832031 4.554688 -2.882812 4.421875 -2.9375 L 4.078125 -3.0625 C 4.035156 -3.082031 3.972656 -3.109375 3.890625 -3.140625 C 3.804688 -3.171875 3.707031 -3.203125 3.59375 -3.234375 L 3.109375 -3.390625 C 2.742188 -3.523438 2.425781 -3.65625 2.15625 -3.78125 C 1.894531 -3.914062 1.613281 -4.09375 1.3125 -4.3125 C 1.03125 -4.539062 0.8125 -4.828125 0.65625 -5.171875 C 0.5 -5.515625 0.421875 -5.910156 0.421875 -6.359375 C 0.421875 -7.222656 0.710938 -7.921875 1.296875 -8.453125 C 1.878906 -8.992188 2.644531 -9.265625 3.59375 -9.265625 C 4.4375 -9.265625 5.179688 -9.046875 5.828125 -8.609375 C 6.484375 -8.171875 6.878906 -7.613281 7.015625 -6.9375 Z M 7.015625 -6.9375 "/></g></g></g><g fill="#000000" fill-opacity="1"><g transform="translate(28.984227, 20.407028)"><g><path d="M 0.328125 -9.140625 L 7.3125 -9.140625 L 7.3125 -6.65625 L 3.03125 -6.65625 L 3.03125 -5.828125 L 6.515625 -5.828125 L 6.515625 -3.359375 L 3.03125 -3.359375 L 3.03125 -2.484375 L 7.390625 -2.484375 L 7.390625 0 L 0.328125 0 Z M 0.328125 -9.140625 "/></g></g></g><g fill="#000000" fill-opacity="1"><g transform="translate(6.218112, 28.48866)"><g><path d="M 7.015625 -6.9375 L 4.34375 -6.5 C 4.3125 -6.625 4.226562 -6.722656 4.09375 -6.796875 C 3.96875 -6.867188 3.820312 -6.90625 3.65625 -6.90625 C 3.5 -6.90625 3.367188 -6.875 3.265625 -6.8125 C 3.171875 -6.75 3.125 -6.671875 3.125 -6.578125 C 3.125 -6.429688 3.234375 -6.304688 3.453125 -6.203125 L 3.828125 -6.078125 C 3.941406 -6.046875 4.101562 -6 4.3125 -5.9375 C 4.519531 -5.875 4.695312 -5.820312 4.84375 -5.78125 C 5.1875 -5.664062 5.492188 -5.539062 5.765625 -5.40625 C 6.035156 -5.28125 6.3125 -5.101562 6.59375 -4.875 C 7.175781 -4.4375 7.46875 -3.769531 7.46875 -2.875 C 7.46875 -1.957031 7.144531 -1.222656 6.5 -0.671875 C 5.851562 -0.140625 5.019531 0.125 4 0.125 C 3.039062 0.125 2.195312 -0.109375 1.46875 -0.578125 C 0.78125 -1.035156 0.332031 -1.65625 0.125 -2.4375 L 2.890625 -2.90625 C 2.941406 -2.71875 3.070312 -2.5625 3.28125 -2.4375 C 3.488281 -2.3125 3.726562 -2.25 4 -2.25 C 4.207031 -2.25 4.382812 -2.28125 4.53125 -2.34375 C 4.6875 -2.414062 4.765625 -2.503906 4.765625 -2.609375 C 4.765625 -2.671875 4.738281 -2.726562 4.6875 -2.78125 C 4.644531 -2.832031 4.554688 -2.882812 4.421875 -2.9375 L 4.078125 -3.0625 C 4.035156 -3.082031 3.972656 -3.109375 3.890625 -3.140625 C 3.804688 -3.171875 3.707031 -3.203125 3.59375 -3.234375 L 3.109375 -3.390625 C 2.742188 -3.523438 2.425781 -3.65625 2.15625 -3.78125 C 1.894531 -3.914062 1.613281 -4.09375 1.3125 -4.3125 C 1.03125 -4.539062 0.8125 -4.828125 0.65625 -5.171875 C 0.5 -5.515625 0.421875 -5.910156 0.421875 -6.359375 C 0.421875 -7.222656 0.710938 -7.921875 1.296875 -8.453125 C 1.878906 -8.992188 2.644531 -9.265625 3.59375 -9.265625 C 4.4375 -9.265625 5.179688 -9.046875 5.828125 -8.609375 C 6.484375 -8.171875 6.878906 -7.613281 7.015625 -6.9375 Z M 7.015625 -6.9375 "/></g></g></g><g fill="#000000" fill-opacity="1"><g transform="translate(13.873082, 28.48866)"><g><path d="M 2.875 0 L 0.265625 0 L 0.265625 -6.78125 L 2.875 -6.78125 L 2.875 -6.34375 C 3.269531 -6.71875 3.75 -6.90625 4.3125 -6.90625 C 5.125 -6.90625 5.757812 -6.59375 6.21875 -5.96875 C 6.257812 -6.03125 6.300781 -6.085938 6.34375 -6.140625 C 6.394531 -6.191406 6.445312 -6.25 6.5 -6.3125 C 6.613281 -6.425781 6.8125 -6.550781 7.09375 -6.6875 C 7.382812 -6.832031 7.695312 -6.90625 8.03125 -6.90625 C 8.6875 -6.90625 9.257812 -6.660156 9.75 -6.171875 C 10.226562 -5.691406 10.46875 -5.097656 10.46875 -4.390625 L 10.46875 0 L 7.859375 0 L 7.859375 -3.765625 C 7.859375 -3.984375 7.800781 -4.164062 7.6875 -4.3125 C 7.570312 -4.46875 7.429688 -4.546875 7.265625 -4.546875 C 7.085938 -4.546875 6.941406 -4.46875 6.828125 -4.3125 C 6.722656 -4.164062 6.671875 -3.984375 6.671875 -3.765625 L 6.671875 0 L 4.0625 0 L 4.0625 -3.765625 C 4.0625 -3.984375 4.003906 -4.164062 3.890625 -4.3125 C 3.773438 -4.46875 3.632812 -4.546875 3.46875 -4.546875 C 3.289062 -4.546875 3.144531 -4.46875 3.03125 -4.3125 C 2.925781 -4.164062 2.875 -3.984375 2.875 -3.765625 Z M 2.875 0 "/></g></g></g><g fill="#000000" fill-opacity="1"><g transform="translate(24.592644, 28.48866)"><g><path d="M 3.15625 -6.921875 C 3.707031 -6.921875 4.207031 -6.769531 4.65625 -6.46875 L 4.65625 -6.78125 L 7.265625 -6.78125 L 7.265625 0 L 4.65625 0 L 4.65625 -0.3125 C 4.207031 -0.0195312 3.707031 0.125 3.15625 0.125 C 2.300781 0.125 1.578125 -0.207031 0.984375 -0.875 C 0.410156 -1.550781 0.125 -2.390625 0.125 -3.390625 C 0.125 -4.398438 0.410156 -5.234375 0.984375 -5.890625 C 1.578125 -6.578125 2.300781 -6.921875 3.15625 -6.921875 Z M 2.859375 -3.421875 C 2.859375 -3.128906 2.941406 -2.882812 3.109375 -2.6875 C 3.285156 -2.5 3.5 -2.40625 3.75 -2.40625 C 3.988281 -2.40625 4.191406 -2.5 4.359375 -2.6875 C 4.535156 -2.882812 4.625 -3.128906 4.625 -3.421875 C 4.625 -3.679688 4.535156 -3.90625 4.359375 -4.09375 C 4.191406 -4.28125 3.988281 -4.375 3.75 -4.375 C 3.5 -4.375 3.285156 -4.28125 3.109375 -4.09375 C 2.941406 -3.90625 2.859375 -3.679688 2.859375 -3.421875 Z M 2.859375 -3.421875 "/></g></g></g><g fill="#000000" fill-opacity="1"><g transform="translate(32.117202, 28.48866)"><g><path d="M 2.875 -6.78125 L 2.875 -6.34375 C 3.28125 -6.726562 3.78125 -6.921875 4.375 -6.921875 C 4.425781 -6.921875 4.46875 -6.921875 4.5 -6.921875 C 4.539062 -6.921875 4.582031 -6.914062 4.625 -6.90625 L 4.625 -4.28125 C 4.425781 -4.457031 4.171875 -4.546875 3.859375 -4.546875 C 3.578125 -4.546875 3.34375 -4.445312 3.15625 -4.25 C 2.96875 -4.050781 2.875 -3.804688 2.875 -3.515625 L 2.875 0 L 0.265625 0 L 0.265625 -6.78125 Z M 2.875 -6.78125 "/></g></g></g><g fill="#000000" fill-opacity="1"><g transform="translate(36.798858, 28.48866)"><g><path d="M 0.0625 -4.53125 L 0.0625 -6.78125 L 0.90625 -6.78125 L 0.90625 -8.0625 L 3.515625 -8.0625 L 3.515625 -6.78125 L 4.765625 -6.78125 L 4.765625 -4.53125 L 3.515625 -4.53125 L 3.515625 -2.859375 C 3.515625 -2.710938 3.566406 -2.59375 3.671875 -2.5 C 3.773438 -2.40625 3.910156 -2.359375 4.078125 -2.359375 L 4.78125 -2.359375 L 4.78125 0 L 3.421875 0 C 2.710938 0 2.113281 -0.207031 1.625 -0.625 C 1.144531 -1.039062 0.90625 -1.5625 0.90625 -2.1875 L 0.90625 -4.53125 Z M 0.0625 -4.53125 "/></g></g></g></svg>