<svg xmlns="http://www.w3.org/2000/svg" xmlns:xlink="http://www.w3.org/1999/xlink" width="64" zoomAndPan="magnify" viewBox="0 0 48 48" height="64" preserveAspectRatio="xMidYMid meet" version="1.0"><defs><g/></defs><g fill="#000000" fill-opacity="1"><g transform="translate(12.841836, 19.155982)"><g><path d="M 2.34375 0 L 0.25 0 L 0.25 -7.078125 L 2.34375 -7.078125 Z M 2.34375 0 "/></g></g></g><g fill="#000000" fill-opacity="1"><g transform="translate(15.438074, 19.155982)"><g><path d="M 2.34375 -1.96875 L 2.34375 0 L 0.25 0 L 0.25 -7.078125 L 3.546875 -7.078125 C 4.335938 -7.078125 4.992188 -6.832031 5.515625 -6.34375 C 6.046875 -5.863281 6.3125 -5.257812 6.3125 -4.53125 C 6.3125 -3.800781 6.046875 -3.191406 5.515625 -2.703125 C 4.992188 -2.210938 4.335938 -1.96875 3.546875 -1.96875 Z M 3.546875 -5.15625 L 2.34375 -5.15625 L 2.34375 -3.890625 L 3.546875 -3.890625 C 3.710938 -3.890625 3.851562 -3.945312 3.96875 -4.0625 C 4.082031 -4.1875 4.140625 -4.34375 4.140625 -4.53125 C 4.140625 -4.707031 4.082031 -4.851562 3.96875 -4.96875 C 3.851562 -5.09375 3.710938 -5.15625 3.546875 -5.15625 Z M 3.546875 -5.15625 "/></g></g></g><g fill="#000000" fill-opacity="1"><g transform="translate(21.650707, 19.155982)"><g><path d="M 1.984375 -5.15625 L 0.15625 -5.15625 L 0.15625 -7.078125 L 5.9375 -7.078125 L 5.9375 -5.15625 L 4.078125 -5.15625 L 4.078125 0 L 1.984375 0 Z M 1.984375 -5.15625 "/></g></g></g><g fill="#000000" fill-opacity="1"><g transform="translate(27.732167, 19.155982)"><g><path d="M 4.578125 0 L 2.84375 0 L 0 -7.078125 L 2.1875 -7.078125 L 3.71875 -3.046875 L 5.234375 -7.078125 L 7.421875 -7.078125 Z M 4.578125 0 "/></g></g></g><g fill="#000000" fill-opacity="1"><g transform="translate(3.003826, 27.237614)"><g><path d="M 5.4375 -5.375 L 3.359375 -5.03125 C 3.335938 -5.125 3.273438 -5.195312 3.171875 -5.25 C 3.066406 -5.3125 2.953125 -5.34375 2.828125 -5.34375 C 2.710938 -5.34375 2.613281 -5.316406 2.53125 -5.265625 C 2.457031 -5.222656 2.421875 -5.164062 2.421875 -5.09375 C 2.421875 -4.976562 2.503906 -4.882812 2.671875 -4.8125 L 2.96875 -4.71875 C 3.050781 -4.6875 3.175781 -4.644531 3.34375 -4.59375 C 3.507812 -4.550781 3.644531 -4.515625 3.75 -4.484375 C 4.019531 -4.390625 4.257812 -4.289062 4.46875 -4.1875 C 4.675781 -4.09375 4.890625 -3.957031 5.109375 -3.78125 C 5.554688 -3.4375 5.78125 -2.914062 5.78125 -2.21875 C 5.78125 -1.507812 5.53125 -0.945312 5.03125 -0.53125 C 4.53125 -0.113281 3.882812 0.09375 3.09375 0.09375 C 2.351562 0.09375 1.703125 -0.0820312 1.140625 -0.4375 C 0.597656 -0.800781 0.25 -1.285156 0.09375 -1.890625 L 2.234375 -2.25 C 2.273438 -2.101562 2.375 -1.976562 2.53125 -1.875 C 2.695312 -1.78125 2.890625 -1.734375 3.109375 -1.734375 C 3.265625 -1.734375 3.398438 -1.757812 3.515625 -1.8125 C 3.628906 -1.875 3.6875 -1.941406 3.6875 -2.015625 C 3.6875 -2.066406 3.664062 -2.113281 3.625 -2.15625 C 3.59375 -2.195312 3.523438 -2.238281 3.421875 -2.28125 L 3.171875 -2.375 C 3.128906 -2.382812 3.078125 -2.398438 3.015625 -2.421875 C 2.953125 -2.453125 2.878906 -2.476562 2.796875 -2.5 L 2.40625 -2.625 C 2.125 -2.726562 1.878906 -2.828125 1.671875 -2.921875 C 1.460938 -3.023438 1.242188 -3.164062 1.015625 -3.34375 C 0.796875 -3.519531 0.625 -3.738281 0.5 -4 C 0.382812 -4.269531 0.328125 -4.578125 0.328125 -4.921875 C 0.328125 -5.597656 0.550781 -6.140625 1 -6.546875 C 1.457031 -6.960938 2.054688 -7.171875 2.796875 -7.171875 C 3.441406 -7.171875 4.015625 -7.003906 4.515625 -6.671875 C 5.023438 -6.335938 5.332031 -5.90625 5.4375 -5.375 Z M 5.4375 -5.375 "/></g></g></g><g fill="#000000" fill-opacity="1"><g transform="translate(8.933753, 27.237614)"><g><path d="M 2.21875 0 L 0.203125 0 L 0.203125 -5.25 L 2.21875 -5.25 L 2.21875 -4.90625 C 2.53125 -5.195312 2.90625 -5.34375 3.34375 -5.34375 C 3.96875 -5.34375 4.460938 -5.101562 4.828125 -4.625 C 4.859375 -4.675781 4.890625 -4.722656 4.921875 -4.765625 C 4.953125 -4.804688 4.988281 -4.847656 5.03125 -4.890625 C 5.125 -4.984375 5.28125 -5.082031 5.5 -5.1875 C 5.71875 -5.289062 5.960938 -5.34375 6.234375 -5.34375 C 6.734375 -5.34375 7.171875 -5.15625 7.546875 -4.78125 C 7.921875 -4.40625 8.109375 -3.941406 8.109375 -3.390625 L 8.109375 0 L 6.078125 0 L 6.078125 -2.921875 C 6.078125 -3.085938 6.035156 -3.226562 5.953125 -3.34375 C 5.867188 -3.46875 5.757812 -3.53125 5.625 -3.53125 C 5.488281 -3.53125 5.378906 -3.46875 5.296875 -3.34375 C 5.210938 -3.226562 5.171875 -3.085938 5.171875 -2.921875 L 5.171875 0 L 3.140625 0 L 3.140625 -2.921875 C 3.140625 -3.085938 3.09375 -3.226562 3 -3.34375 C 2.914062 -3.46875 2.8125 -3.53125 2.6875 -3.53125 C 2.550781 -3.53125 2.4375 -3.46875 2.34375 -3.34375 C 2.257812 -3.226562 2.21875 -3.085938 2.21875 -2.921875 Z M 2.21875 0 "/></g></g></g><g fill="#000000" fill-opacity="1"><g transform="translate(17.237679, 27.237614)"><g><path d="M 2.453125 -5.359375 C 2.867188 -5.359375 3.253906 -5.242188 3.609375 -5.015625 L 3.609375 -5.25 L 5.625 -5.25 L 5.625 0 L 3.609375 0 L 3.609375 -0.25 C 3.253906 -0.0195312 2.867188 0.09375 2.453125 0.09375 C 1.785156 0.09375 1.222656 -0.160156 0.765625 -0.671875 C 0.316406 -1.203125 0.09375 -1.851562 0.09375 -2.625 C 0.09375 -3.40625 0.316406 -4.050781 0.765625 -4.5625 C 1.222656 -5.09375 1.785156 -5.359375 2.453125 -5.359375 Z M 2.21875 -2.65625 C 2.21875 -2.425781 2.285156 -2.238281 2.421875 -2.09375 C 2.554688 -1.945312 2.71875 -1.875 2.90625 -1.875 C 3.09375 -1.875 3.253906 -1.945312 3.390625 -2.09375 C 3.523438 -2.238281 3.59375 -2.425781 3.59375 -2.65625 C 3.59375 -2.851562 3.523438 -3.023438 3.390625 -3.171875 C 3.253906 -3.316406 3.09375 -3.390625 2.90625 -3.390625 C 2.71875 -3.390625 2.554688 -3.316406 2.421875 -3.171875 C 2.285156 -3.023438 2.21875 -2.851562 2.21875 -2.65625 Z M 2.21875 -2.65625 "/></g></g></g><g fill="#000000" fill-opacity="1"><g transform="translate(23.066587, 27.237614)"><g><path d="M 2.21875 -5.25 L 2.21875 -4.90625 C 2.539062 -5.207031 2.929688 -5.359375 3.390625 -5.359375 C 3.429688 -5.359375 3.460938 -5.359375 3.484375 -5.359375 C 3.515625 -5.359375 3.546875 -5.351562 3.578125 -5.34375 L 3.578125 -3.3125 C 3.429688 -3.457031 3.238281 -3.53125 3 -3.53125 C 2.78125 -3.53125 2.59375 -3.453125 2.4375 -3.296875 C 2.289062 -3.140625 2.21875 -2.945312 2.21875 -2.71875 L 2.21875 0 L 0.203125 0 L 0.203125 -5.25 Z M 2.21875 -5.25 "/></g></g></g><g fill="#000000" fill-opacity="1"><g transform="translate(26.693241, 27.237614)"><g><path d="M 0.046875 -3.515625 L 0.046875 -5.25 L 0.703125 -5.25 L 0.703125 -6.25 L 2.734375 -6.25 L 2.734375 -5.25 L 3.6875 -5.25 L 3.6875 -3.515625 L 2.734375 -3.515625 L 2.734375 -2.21875 C 2.734375 -2.101562 2.769531 -2.007812 2.84375 -1.9375 C 2.925781 -1.863281 3.035156 -1.828125 3.171875 -1.828125 L 3.703125 -1.828125 L 3.703125 0 L 2.65625 0 C 2.101562 0 1.640625 -0.160156 1.265625 -0.484375 C 0.890625 -0.804688 0.703125 -1.210938 0.703125 -1.703125 L 0.703125 -3.515625 Z M 0.046875 -3.515625 "/></g></g></g><g fill="#000000" fill-opacity="1"><g transform="translate(30.542144, 27.237614)"><g><path d="M 5.6875 -1.921875 L 2.296875 -1.921875 C 2.453125 -1.617188 2.707031 -1.46875 3.0625 -1.46875 C 3.320312 -1.46875 3.539062 -1.566406 3.71875 -1.765625 L 5.65625 -1.46875 C 5.4375 -0.988281 5.09375 -0.609375 4.625 -0.328125 C 4.164062 -0.046875 3.628906 0.09375 3.015625 0.09375 C 2.179688 0.09375 1.488281 -0.164062 0.9375 -0.6875 C 0.375 -1.207031 0.09375 -1.851562 0.09375 -2.625 C 0.09375 -3.394531 0.363281 -4.039062 0.90625 -4.5625 C 1.457031 -5.09375 2.132812 -5.359375 2.9375 -5.359375 C 3.75 -5.359375 4.421875 -5.09375 4.953125 -4.5625 C 5.492188 -4.039062 5.765625 -3.394531 5.765625 -2.625 C 5.765625 -2.375 5.738281 -2.140625 5.6875 -1.921875 Z M 2.296875 -3.34375 L 3.734375 -3.34375 C 3.585938 -3.644531 3.347656 -3.796875 3.015625 -3.796875 C 2.691406 -3.796875 2.453125 -3.644531 2.296875 -3.34375 Z M 2.296875 -3.34375 "/></g></g></g><g fill="#000000" fill-opacity="1"><g transform="translate(36.411466, 27.237614)"><g><path d="M 2.21875 -5.25 L 2.21875 -4.90625 C 2.539062 -5.207031 2.929688 -5.359375 3.390625 -5.359375 C 3.429688 -5.359375 3.460938 -5.359375 3.484375 -5.359375 C 3.515625 -5.359375 3.546875 -5.351562 3.578125 -5.34375 L 3.578125 -3.3125 C 3.429688 -3.457031 3.238281 -3.53125 3 -3.53125 C 2.78125 -3.53125 2.59375 -3.453125 2.4375 -3.296875 C 2.289062 -3.140625 2.21875 -2.945312 2.21875 -2.71875 L 2.21875 0 L 0.203125 0 L 0.203125 -5.25 Z M 2.21875 -5.25 "/></g></g></g><g fill="#000000" fill-opacity="1"><g transform="translate(40.038121, 27.237614)"><g><path d="M 4.765625 -3.875 L 2.953125 -3.59375 C 2.898438 -3.78125 2.734375 -3.875 2.453125 -3.875 C 2.234375 -3.875 2.125 -3.835938 2.125 -3.765625 C 2.125 -3.691406 2.222656 -3.625 2.421875 -3.5625 L 3.09375 -3.390625 C 3.738281 -3.210938 4.191406 -2.988281 4.453125 -2.71875 C 4.710938 -2.457031 4.84375 -2.113281 4.84375 -1.6875 C 4.84375 -1.113281 4.640625 -0.671875 4.234375 -0.359375 C 3.835938 -0.0546875 3.257812 0.09375 2.5 0.09375 C 1.050781 0.09375 0.25 -0.445312 0.09375 -1.53125 L 1.90625 -1.78125 C 1.976562 -1.5625 2.1875 -1.453125 2.53125 -1.453125 C 2.78125 -1.453125 2.90625 -1.492188 2.90625 -1.578125 C 2.90625 -1.660156 2.769531 -1.734375 2.5 -1.796875 L 1.78125 -1.9375 C 1.195312 -2.0625 0.78125 -2.253906 0.53125 -2.515625 C 0.28125 -2.773438 0.15625 -3.125 0.15625 -3.5625 C 0.15625 -4.757812 0.921875 -5.359375 2.453125 -5.359375 C 3.859375 -5.359375 4.628906 -4.863281 4.765625 -3.875 Z M 4.765625 -3.875 "/></g></g></g></svg>