<svg xmlns="http://www.w3.org/2000/svg" xmlns:xlink="http://www.w3.org/1999/xlink" width="64" zoomAndPan="magnify" viewBox="0 0 48 48" height="64" preserveAspectRatio="xMidYMid meet" version="1.0"><defs><g/></defs><g fill="#000000" fill-opacity="1"><g transform="translate(1.718112, 26.081634)"><g><path d="M 4.1875 0 L 0.328125 0 L 0.328125 -9.140625 L 4.1875 -9.140625 C 5.5625 -9.140625 6.710938 -8.695312 7.640625 -7.8125 C 8.578125 -6.9375 9.046875 -5.851562 9.046875 -4.5625 C 9.046875 -3.28125 8.578125 -2.195312 7.640625 -1.3125 C 6.710938 -0.4375 5.5625 0 4.1875 0 Z M 4.1875 -6.65625 L 3.03125 -6.65625 L 3.03125 -2.484375 L 4.1875 -2.484375 C 4.757812 -2.484375 5.242188 -2.679688 5.640625 -3.078125 C 6.023438 -3.484375 6.21875 -3.976562 6.21875 -4.5625 C 6.21875 -5.144531 6.023438 -5.640625 5.640625 -6.046875 C 5.242188 -6.453125 4.757812 -6.65625 4.1875 -6.65625 Z M 4.1875 -6.65625 "/></g></g></g><g fill="#000000" fill-opacity="1"><g transform="translate(11.016222, 26.081634)"><g><path d="M 0.265625 -2.390625 L 0.265625 -6.78125 L 2.875 -6.78125 L 2.875 -3.015625 C 2.875 -2.796875 2.9375 -2.609375 3.0625 -2.453125 C 3.1875 -2.304688 3.335938 -2.234375 3.515625 -2.234375 C 3.710938 -2.234375 3.875 -2.304688 4 -2.453125 C 4.125 -2.597656 4.1875 -2.785156 4.1875 -3.015625 L 4.1875 -6.78125 L 6.796875 -6.78125 L 6.796875 0 L 4.1875 0 L 4.1875 -0.4375 C 3.78125 -0.0625 3.28125 0.125 2.6875 0.125 C 2.03125 0.125 1.460938 -0.113281 0.984375 -0.59375 C 0.503906 -1.070312 0.265625 -1.671875 0.265625 -2.390625 Z M 0.265625 -2.390625 "/></g></g></g><g fill="#000000" fill-opacity="1"><g transform="translate(18.071317, 26.081634)"><g><path d="M 2.875 2.9375 L 0.265625 2.9375 L 0.265625 -6.78125 L 2.875 -6.78125 L 2.875 -6.46875 C 3.320312 -6.769531 3.820312 -6.921875 4.375 -6.921875 C 5.226562 -6.921875 5.945312 -6.578125 6.53125 -5.890625 C 7.101562 -5.234375 7.390625 -4.398438 7.390625 -3.390625 C 7.390625 -2.378906 7.101562 -1.539062 6.53125 -0.875 C 5.945312 -0.207031 5.226562 0.125 4.375 0.125 C 3.820312 0.125 3.320312 -0.0195312 2.875 -0.3125 Z M 2.890625 -3.359375 C 2.890625 -3.097656 2.976562 -2.875 3.15625 -2.6875 C 3.332031 -2.5 3.539062 -2.40625 3.78125 -2.40625 C 4.03125 -2.40625 4.238281 -2.5 4.40625 -2.6875 C 4.582031 -2.875 4.671875 -3.097656 4.671875 -3.359375 C 4.671875 -3.648438 4.582031 -3.890625 4.40625 -4.078125 C 4.238281 -4.273438 4.03125 -4.375 3.78125 -4.375 C 3.539062 -4.375 3.332031 -4.273438 3.15625 -4.078125 C 2.976562 -3.890625 2.890625 -3.648438 2.890625 -3.359375 Z M 2.890625 -3.359375 "/></g></g></g><g fill="#000000" fill-opacity="1"><g transform="translate(25.595875, 26.081634)"><g><path d="M 2.875 0 L 0.265625 0 L 0.265625 -9.78125 L 2.875 -9.78125 Z M 2.875 0 "/></g></g></g><g fill="#000000" fill-opacity="1"><g transform="translate(28.725678, 26.081634)"><g><path d="M 7.328125 -2.484375 L 2.96875 -2.484375 C 3.164062 -2.085938 3.492188 -1.890625 3.953125 -1.890625 C 4.296875 -1.890625 4.578125 -2.015625 4.796875 -2.265625 L 7.3125 -1.890625 C 7.019531 -1.273438 6.570312 -0.785156 5.96875 -0.421875 C 5.375 -0.0546875 4.6875 0.125 3.90625 0.125 C 2.820312 0.125 1.921875 -0.210938 1.203125 -0.890625 C 0.484375 -1.566406 0.125 -2.398438 0.125 -3.390625 C 0.125 -4.378906 0.472656 -5.210938 1.171875 -5.890625 C 1.878906 -6.578125 2.753906 -6.921875 3.796875 -6.921875 C 4.835938 -6.921875 5.703125 -6.578125 6.390625 -5.890625 C 7.097656 -5.210938 7.453125 -4.378906 7.453125 -3.390625 C 7.453125 -3.066406 7.410156 -2.765625 7.328125 -2.484375 Z M 2.96875 -4.3125 L 4.8125 -4.3125 C 4.625 -4.695312 4.316406 -4.890625 3.890625 -4.890625 C 3.472656 -4.890625 3.164062 -4.695312 2.96875 -4.3125 Z M 2.96875 -4.3125 "/></g></g></g><g fill="#000000" fill-opacity="1"><g transform="translate(35.584745, 26.081634)"><g><path d="M 4.78125 0 L 3.90625 -1.546875 L 3.046875 0 L 0 0 L 2.328125 -3.515625 L 0.15625 -6.78125 L 3.203125 -6.78125 L 3.90625 -5.5 L 4.609375 -6.78125 L 7.640625 -6.78125 L 5.5 -3.515625 L 7.8125 0 Z M 4.78125 0 "/></g></g></g><g fill="#000000" fill-opacity="1"><g transform="translate(43.400509, 26.081634)"><g/></g></g></svg>