<svg xmlns="http://www.w3.org/2000/svg" xmlns:xlink="http://www.w3.org/1999/xlink" width="64" zoomAndPan="magnify" viewBox="0 0 48 48" height="64" preserveAspectRatio="xMidYMid meet" version="1.0"><defs><clipPath id="0ce64859cc"><path d="M 10.898438 2.070312 L 35.140625 2.070312 L 35.140625 44.652344 L 10.898438 44.652344 Z M 10.898438 2.070312 " clip-rule="nonzero"/></clipPath></defs><g clip-path="url(#0ce64859cc)"><path fill="#100f0d" d="M 11.609375 44.652344 C 11.480469 44.652344 11.355469 44.621094 11.238281 44.550781 C 10.9375 44.367188 10.816406 43.992188 10.953125 43.667969 L 18.945312 24.78125 L 11.609375 24.78125 C 11.363281 24.78125 11.132812 24.652344 11.003906 24.445312 C 10.875 24.234375 10.863281 23.972656 10.972656 23.753906 L 21.667969 2.460938 C 21.792969 2.222656 22.039062 2.070312 22.308594 2.070312 L 33.71875 2.070312 C 33.976562 2.070312 34.21875 2.210938 34.34375 2.4375 C 34.46875 2.664062 34.460938 2.941406 34.320312 3.160156 L 25.980469 16.265625 L 34.433594 16.265625 C 34.710938 16.265625 34.960938 16.425781 35.078125 16.675781 C 35.195312 16.925781 35.15625 17.21875 34.976562 17.433594 L 12.15625 44.402344 C 12.015625 44.566406 11.816406 44.652344 11.609375 44.652344 " fill-opacity="1" fill-rule="nonzero"/></g></svg>