<svg xmlns="http://www.w3.org/2000/svg" xmlns:xlink="http://www.w3.org/1999/xlink" width="64" zoomAndPan="magnify" viewBox="0 0 48 48" height="64" preserveAspectRatio="xMidYMid meet" version="1.0"><defs><clipPath id="2222a7e47b"><path d="M 4.308594 3.820312 L 43.984375 3.820312 L 43.984375 43.492188 L 4.308594 43.492188 Z M 4.308594 3.820312 " clip-rule="nonzero"/></clipPath></defs><g clip-path="url(#2222a7e47b)"><path fill="#000000" d="M 24.148438 6.765625 C 25.113281 6.765625 26.074219 6.847656 27.027344 7.015625 C 27.980469 7.179688 28.910156 7.425781 29.824219 7.75 C 30.734375 8.074219 31.609375 8.476562 32.453125 8.953125 C 33.292969 9.429688 34.089844 9.972656 34.835938 10.585938 C 35.585938 11.199219 36.277344 11.871094 36.910156 12.601562 C 37.542969 13.332031 38.109375 14.109375 38.609375 14.941406 C 39.105469 15.769531 39.53125 16.632812 39.882812 17.535156 C 40.234375 18.433594 40.503906 19.359375 40.695312 20.308594 C 40.890625 21.253906 41 22.210938 41.027344 23.179688 C 41.054688 24.144531 41 25.109375 40.859375 26.066406 C 40.722656 27.023438 40.503906 27.960938 40.207031 28.882812 C 39.90625 29.800781 39.53125 30.6875 39.082031 31.542969 C 38.628906 32.398438 38.109375 33.210938 37.519531 33.976562 C 36.929688 34.742188 36.277344 35.453125 35.566406 36.105469 C 34.851562 36.761719 34.089844 37.347656 33.277344 37.871094 C 32.464844 38.394531 31.613281 38.847656 30.722656 39.222656 C 30.210938 39.4375 29.691406 39.628906 29.164062 39.792969 C 28.636719 39.957031 28.101562 40.09375 27.558594 40.207031 C 27.015625 40.316406 26.46875 40.402344 25.917969 40.460938 C 25.367188 40.519531 24.816406 40.550781 24.265625 40.554688 C 23.710938 40.558594 23.160156 40.535156 22.605469 40.484375 C 22.054688 40.433594 21.507812 40.355469 20.964844 40.25 C 20.421875 40.148438 19.882812 40.015625 19.355469 39.859375 C 18.824219 39.703125 18.300781 39.519531 17.789062 39.3125 C 17.277344 39.105469 16.773438 38.871094 16.285156 38.613281 C 15.796875 38.355469 15.320312 38.074219 14.855469 37.769531 C 14.394531 37.464844 13.949219 37.140625 13.519531 36.792969 C 13.089844 36.445312 12.675781 36.074219 12.28125 35.6875 C 11.886719 35.300781 11.515625 34.890625 11.160156 34.464844 C 10.804688 34.042969 10.472656 33.597656 10.164062 33.140625 C 9.851562 32.683594 9.566406 32.210938 9.300781 31.726562 C 9.035156 31.238281 8.796875 30.742188 8.582031 30.230469 C 8.367188 29.722656 8.175781 29.203125 8.011719 28.671875 C 7.847656 28.144531 7.710938 27.609375 7.597656 27.066406 C 7.484375 26.527344 7.402344 25.980469 7.34375 25.429688 C 7.285156 24.878906 7.253906 24.328125 7.25 23.773438 C 7.246094 23.21875 7.269531 22.667969 7.320312 22.117188 C 7.371094 21.566406 7.449219 21.019531 7.550781 20.476562 C 7.65625 19.933594 7.785156 19.394531 7.945312 18.863281 C 8.101562 18.332031 8.285156 17.8125 8.492188 17.300781 C 8.699219 16.785156 8.933594 16.285156 9.191406 15.796875 C 9.449219 15.304688 9.730469 14.828125 10.03125 14.367188 C 10.335938 13.90625 10.664062 13.457031 11.011719 13.027344 C 11.359375 12.597656 11.726562 12.1875 12.117188 11.792969 C 12.503906 11.398438 12.914062 11.023438 13.335938 10.671875 C 13.761719 10.316406 14.203125 9.984375 14.664062 9.671875 C 15.121094 9.363281 15.59375 9.074219 16.078125 8.8125 C 16.566406 8.546875 17.0625 8.308594 17.574219 8.089844 C 19.675781 7.203125 21.867188 6.761719 24.148438 6.765625 M 24.148438 3.820312 C 13.191406 3.820312 4.308594 12.703125 4.308594 23.65625 C 4.308594 34.613281 13.191406 43.492188 24.148438 43.492188 C 35.101562 43.492188 43.984375 34.613281 43.984375 23.65625 C 43.984375 12.703125 35.101562 3.820312 24.148438 3.820312 Z M 24.148438 3.820312 " fill-opacity="1" fill-rule="nonzero"/></g><path fill="#000000" d="M 29.765625 30.835938 C 29.359375 30.835938 29.011719 30.695312 28.726562 30.40625 L 23.105469 24.785156 C 22.816406 24.5 22.675781 24.152344 22.675781 23.746094 L 22.675781 12.105469 C 22.675781 11.910156 22.710938 11.722656 22.785156 11.542969 C 22.863281 11.363281 22.96875 11.203125 23.105469 11.0625 C 23.242188 10.925781 23.402344 10.820312 23.582031 10.746094 C 23.765625 10.671875 23.953125 10.632812 24.148438 10.632812 C 24.34375 10.632812 24.53125 10.671875 24.710938 10.746094 C 24.890625 10.820312 25.050781 10.925781 25.1875 11.0625 C 25.324219 11.203125 25.433594 11.363281 25.507812 11.542969 C 25.582031 11.722656 25.621094 11.910156 25.621094 12.105469 L 25.621094 23.136719 L 30.8125 28.328125 C 31.023438 28.539062 31.15625 28.789062 31.214844 29.082031 C 31.273438 29.375 31.246094 29.65625 31.128906 29.933594 C 31.015625 30.207031 30.835938 30.425781 30.585938 30.59375 C 30.339844 30.757812 30.066406 30.839844 29.769531 30.839844 Z M 29.765625 30.835938 " fill-opacity="1" fill-rule="nonzero"/></svg>