<svg xmlns="http://www.w3.org/2000/svg" xmlns:xlink="http://www.w3.org/1999/xlink" width="64" zoomAndPan="magnify" viewBox="0 0 48 48" height="64" preserveAspectRatio="xMidYMid meet" version="1.0"><defs><g/></defs><g fill="#000000" fill-opacity="1"><g transform="translate(2.320791, 26.089555)"><g><path d="M 6.921875 -6.84375 L 4.28125 -6.40625 C 4.25 -6.519531 4.164062 -6.613281 4.03125 -6.6875 C 3.90625 -6.757812 3.757812 -6.796875 3.59375 -6.796875 C 3.445312 -6.796875 3.320312 -6.765625 3.21875 -6.703125 C 3.125 -6.648438 3.078125 -6.578125 3.078125 -6.484375 C 3.078125 -6.335938 3.1875 -6.21875 3.40625 -6.125 L 3.765625 -6 C 3.878906 -5.957031 4.039062 -5.90625 4.25 -5.84375 C 4.457031 -5.789062 4.628906 -5.742188 4.765625 -5.703125 C 5.109375 -5.585938 5.410156 -5.460938 5.671875 -5.328125 C 5.941406 -5.203125 6.21875 -5.03125 6.5 -4.8125 C 7.070312 -4.375 7.359375 -3.710938 7.359375 -2.828125 C 7.359375 -1.929688 7.039062 -1.210938 6.40625 -0.671875 C 5.769531 -0.140625 4.945312 0.125 3.9375 0.125 C 2.988281 0.125 2.160156 -0.101562 1.453125 -0.5625 C 0.765625 -1.019531 0.320312 -1.632812 0.125 -2.40625 L 2.84375 -2.875 C 2.894531 -2.675781 3.019531 -2.515625 3.21875 -2.390625 C 3.425781 -2.273438 3.671875 -2.21875 3.953125 -2.21875 C 4.148438 -2.21875 4.320312 -2.25 4.46875 -2.3125 C 4.613281 -2.382812 4.6875 -2.472656 4.6875 -2.578125 C 4.6875 -2.628906 4.660156 -2.679688 4.609375 -2.734375 C 4.566406 -2.785156 4.484375 -2.835938 4.359375 -2.890625 L 4.03125 -3.015625 C 3.976562 -3.035156 3.910156 -3.0625 3.828125 -3.09375 C 3.753906 -3.125 3.660156 -3.15625 3.546875 -3.1875 L 3.0625 -3.34375 C 2.695312 -3.46875 2.382812 -3.59375 2.125 -3.71875 C 1.863281 -3.851562 1.585938 -4.03125 1.296875 -4.25 C 1.015625 -4.476562 0.796875 -4.757812 0.640625 -5.09375 C 0.484375 -5.4375 0.40625 -5.828125 0.40625 -6.265625 C 0.40625 -7.117188 0.691406 -7.804688 1.265625 -8.328125 C 1.847656 -8.859375 2.609375 -9.125 3.546875 -9.125 C 4.378906 -9.125 5.113281 -8.910156 5.75 -8.484375 C 6.394531 -8.054688 6.785156 -7.507812 6.921875 -6.84375 Z M 6.921875 -6.84375 "/></g></g></g><g fill="#000000" fill-opacity="1"><g transform="translate(9.739331, 26.089555)"><g><path d="M 6.921875 -6.84375 L 4.28125 -6.40625 C 4.25 -6.519531 4.164062 -6.613281 4.03125 -6.6875 C 3.90625 -6.757812 3.757812 -6.796875 3.59375 -6.796875 C 3.445312 -6.796875 3.320312 -6.765625 3.21875 -6.703125 C 3.125 -6.648438 3.078125 -6.578125 3.078125 -6.484375 C 3.078125 -6.335938 3.1875 -6.21875 3.40625 -6.125 L 3.765625 -6 C 3.878906 -5.957031 4.039062 -5.90625 4.25 -5.84375 C 4.457031 -5.789062 4.628906 -5.742188 4.765625 -5.703125 C 5.109375 -5.585938 5.410156 -5.460938 5.671875 -5.328125 C 5.941406 -5.203125 6.21875 -5.03125 6.5 -4.8125 C 7.070312 -4.375 7.359375 -3.710938 7.359375 -2.828125 C 7.359375 -1.929688 7.039062 -1.210938 6.40625 -0.671875 C 5.769531 -0.140625 4.945312 0.125 3.9375 0.125 C 2.988281 0.125 2.160156 -0.101562 1.453125 -0.5625 C 0.765625 -1.019531 0.320312 -1.632812 0.125 -2.40625 L 2.84375 -2.875 C 2.894531 -2.675781 3.019531 -2.515625 3.21875 -2.390625 C 3.425781 -2.273438 3.671875 -2.21875 3.953125 -2.21875 C 4.148438 -2.21875 4.320312 -2.25 4.46875 -2.3125 C 4.613281 -2.382812 4.6875 -2.472656 4.6875 -2.578125 C 4.6875 -2.628906 4.660156 -2.679688 4.609375 -2.734375 C 4.566406 -2.785156 4.484375 -2.835938 4.359375 -2.890625 L 4.03125 -3.015625 C 3.976562 -3.035156 3.910156 -3.0625 3.828125 -3.09375 C 3.753906 -3.125 3.660156 -3.15625 3.546875 -3.1875 L 3.0625 -3.34375 C 2.695312 -3.46875 2.382812 -3.59375 2.125 -3.71875 C 1.863281 -3.851562 1.585938 -4.03125 1.296875 -4.25 C 1.015625 -4.476562 0.796875 -4.757812 0.640625 -5.09375 C 0.484375 -5.4375 0.40625 -5.828125 0.40625 -6.265625 C 0.40625 -7.117188 0.691406 -7.804688 1.265625 -8.328125 C 1.847656 -8.859375 2.609375 -9.125 3.546875 -9.125 C 4.378906 -9.125 5.113281 -8.910156 5.75 -8.484375 C 6.394531 -8.054688 6.785156 -7.507812 6.921875 -6.84375 Z M 6.921875 -6.84375 "/></g></g></g><g fill="#000000" fill-opacity="1"><g transform="translate(17.286445, 26.089555)"><g><path d="M 2.984375 0 L 0.328125 0 L 0.328125 -9 L 2.984375 -9 Z M 2.984375 0 "/></g></g></g><g fill="#000000" fill-opacity="1"><g transform="translate(20.590717, 26.089555)"><g><path d="M 2.984375 -2.5 L 2.984375 0 L 0.328125 0 L 0.328125 -9 L 4.515625 -9 C 5.515625 -9 6.347656 -8.691406 7.015625 -8.078125 C 7.691406 -7.460938 8.03125 -6.691406 8.03125 -5.765625 C 8.03125 -4.835938 7.691406 -4.0625 7.015625 -3.4375 C 6.347656 -2.8125 5.515625 -2.5 4.515625 -2.5 Z M 4.515625 -6.5625 L 2.984375 -6.5625 L 2.984375 -4.953125 L 4.515625 -4.953125 C 4.722656 -4.953125 4.898438 -5.023438 5.046875 -5.171875 C 5.191406 -5.328125 5.265625 -5.523438 5.265625 -5.765625 C 5.265625 -5.984375 5.191406 -6.171875 5.046875 -6.328125 C 4.898438 -6.484375 4.722656 -6.5625 4.515625 -6.5625 Z M 4.515625 -6.5625 "/></g></g></g><g fill="#000000" fill-opacity="1"><g transform="translate(28.497824, 26.089555)"><g><path d="M 2.53125 -6.5625 L 0.1875 -6.5625 L 0.1875 -9 L 7.546875 -9 L 7.546875 -6.5625 L 5.1875 -6.5625 L 5.1875 0 L 2.53125 0 Z M 2.53125 -6.5625 "/></g></g></g><g fill="#000000" fill-opacity="1"><g transform="translate(36.237793, 26.089555)"><g><path d="M 5.828125 0 L 3.609375 0 L 0 -9 L 2.78125 -9 L 4.734375 -3.875 L 6.65625 -9 L 9.4375 -9 Z M 5.828125 0 "/></g></g></g></svg>