<svg xmlns="http://www.w3.org/2000/svg" xmlns:xlink="http://www.w3.org/1999/xlink" width="64" zoomAndPan="magnify" viewBox="0 0 48 48" height="64" preserveAspectRatio="xMidYMid meet" version="1.0"><defs><clipPath id="47d3cd4209"><path d="M 2.417969 22 L 3 22 L 3 24 L 2.417969 24 Z M 2.417969 22 " clip-rule="nonzero"/></clipPath><clipPath id="b59184cc66"><path d="M 2.417969 24 L 3 24 L 3 26 L 2.417969 26 Z M 2.417969 24 " clip-rule="nonzero"/></clipPath><clipPath id="43cc9a7dbe"><path d="M 2.417969 26 L 3 26 L 3 29 L 2.417969 29 Z M 2.417969 26 " clip-rule="nonzero"/></clipPath><clipPath id="a546992ade"><path d="M 3 19 L 15 19 L 15 37.402344 L 3 37.402344 Z M 3 19 " clip-rule="nonzero"/></clipPath><clipPath id="d5845bb4a4"><path d="M 8 14 L 27 14 L 27 37.402344 L 8 37.402344 Z M 8 14 " clip-rule="nonzero"/></clipPath><clipPath id="630623d46e"><path d="M 14 9.484375 L 45.765625 9.484375 L 45.765625 37.402344 L 14 37.402344 Z M 14 9.484375 " clip-rule="nonzero"/></clipPath></defs><g clip-path="url(#47d3cd4209)"><path fill="#000000" d="M 2.386719 22.875 L 2.386719 23.308594 C 2.386719 23.503906 2.546875 23.664062 2.75 23.664062 L 2.976562 23.664062 L 2.976562 22.515625 L 2.75 22.515625 C 2.546875 22.515625 2.386719 22.675781 2.386719 22.875 Z M 2.386719 22.875 " fill-opacity="1" fill-rule="nonzero"/></g><g clip-path="url(#b59184cc66)"><path fill="#000000" d="M 2.386719 24.449219 L 2.386719 25.59375 C 2.386719 25.792969 2.546875 25.953125 2.75 25.953125 L 2.976562 25.953125 L 2.976562 24.089844 L 2.75 24.089844 C 2.546875 24.089844 2.386719 24.25 2.386719 24.449219 Z M 2.386719 24.449219 " fill-opacity="1" fill-rule="nonzero"/></g><path fill="#000000" d="M 15.113281 26.527344 L 15.113281 25.378906 C 15.113281 25.183594 14.949219 25.023438 14.75 25.023438 L 14.527344 25.023438 L 14.527344 26.882812 L 14.75 26.882812 C 14.949219 26.882812 15.113281 26.722656 15.113281 26.527344 Z M 15.113281 26.527344 " fill-opacity="1" fill-rule="nonzero"/><g clip-path="url(#43cc9a7dbe)"><path fill="#000000" d="M 2.386719 26.753906 L 2.386719 27.902344 C 2.386719 28.097656 2.546875 28.257812 2.75 28.257812 L 2.976562 28.257812 L 2.976562 26.394531 L 2.75 26.394531 C 2.546875 26.398438 2.386719 26.558594 2.386719 26.753906 Z M 2.386719 26.753906 " fill-opacity="1" fill-rule="nonzero"/></g><g clip-path="url(#a546992ade)"><path fill="#000000" d="M 12.074219 19.5 L 11.578125 19.5 L 11.1875 20.402344 C 11.109375 20.582031 10.882812 20.730469 10.6875 20.730469 L 6.816406 20.730469 C 6.617188 20.730469 6.390625 20.582031 6.3125 20.402344 L 5.921875 19.5 L 5.425781 19.5 C 4.234375 19.5 3.269531 20.457031 3.269531 21.636719 L 3.269531 35.113281 C 3.269531 36.292969 4.234375 37.25 5.425781 37.25 L 12.074219 37.25 C 13.265625 37.25 14.230469 36.292969 14.230469 35.113281 L 14.230469 21.636719 C 14.230469 20.457031 13.265625 19.5 12.074219 19.5 Z M 13.0625 34.5625 C 13.0625 34.957031 12.742188 35.277344 12.34375 35.277344 L 5.15625 35.277344 C 4.757812 35.277344 4.4375 34.957031 4.4375 34.5625 L 4.4375 22.453125 C 4.4375 22.058594 4.757812 21.742188 5.15625 21.742188 L 12.34375 21.742188 C 12.742188 21.742188 13.0625 22.058594 13.0625 22.453125 Z M 13.0625 34.5625 " fill-opacity="1" fill-rule="nonzero"/></g><g clip-path="url(#d5845bb4a4)"><path fill="#000000" d="M 24.023438 14.410156 L 10.90625 14.410156 C 9.714844 14.410156 8.75 15.367188 8.75 16.546875 L 8.75 18.429688 L 10.277344 18.429688 L 10.277344 16.539062 C 10.277344 16.144531 10.597656 15.824219 10.996094 15.824219 L 23.933594 15.824219 C 24.332031 15.824219 24.652344 16.144531 24.652344 16.539062 L 24.652344 33.695312 C 24.652344 34.089844 24.332031 34.410156 23.933594 34.410156 L 15.308594 34.410156 L 15.308594 35.113281 C 15.308594 35.9375 14.984375 36.683594 14.46875 37.25 L 24.023438 37.25 C 25.21875 37.25 26.179688 36.292969 26.179688 35.113281 L 26.179688 16.546875 C 26.179688 15.367188 25.21875 14.410156 24.023438 14.410156 Z M 17.46875 36.425781 C 17.101562 36.425781 16.808594 36.132812 16.808594 35.773438 C 16.808594 35.410156 17.101562 35.121094 17.46875 35.121094 C 17.832031 35.121094 18.125 35.410156 18.125 35.773438 C 18.125 36.132812 17.832031 36.425781 17.46875 36.425781 Z M 17.46875 36.425781 " fill-opacity="1" fill-rule="nonzero"/></g><g clip-path="url(#630623d46e)"><path fill="#000000" d="M 43.570312 9.5625 L 16.652344 9.5625 C 15.460938 9.5625 14.496094 10.519531 14.496094 11.699219 L 14.496094 13.339844 L 16.226562 13.339844 L 16.226562 12.226562 C 16.226562 11.835938 16.550781 11.515625 16.945312 11.515625 L 43.277344 11.515625 C 43.675781 11.515625 43.996094 11.835938 43.996094 12.226562 L 43.996094 28.257812 C 43.996094 28.648438 43.675781 28.96875 43.277344 28.96875 L 27.261719 28.96875 L 27.261719 35.113281 C 27.261719 35.9375 26.9375 36.683594 26.417969 37.25 L 36.71875 37.25 C 37.113281 37.25 37.4375 36.933594 37.4375 36.539062 L 37.4375 35.960938 C 37.4375 35.566406 37.113281 35.246094 36.71875 35.246094 L 34.605469 35.246094 L 34.605469 32 L 43.570312 32 C 44.761719 32 45.726562 31.042969 45.726562 29.863281 L 45.726562 11.699219 C 45.726562 10.519531 44.761719 9.5625 43.570312 9.5625 Z M 30.113281 31.09375 C 29.746094 31.09375 29.453125 30.804688 29.453125 30.441406 C 29.453125 30.082031 29.746094 29.789062 30.113281 29.789062 C 30.476562 29.789062 30.773438 30.082031 30.773438 30.441406 C 30.773438 30.804688 30.476562 31.09375 30.113281 31.09375 Z M 30.113281 31.09375 " fill-opacity="1" fill-rule="nonzero"/></g></svg>