<svg xmlns="http://www.w3.org/2000/svg" xmlns:xlink="http://www.w3.org/1999/xlink" width="64" zoomAndPan="magnify" viewBox="0 0 48 48" height="64" preserveAspectRatio="xMidYMid meet" version="1.0"><defs><clipPath id="52b03fa728"><path d="M 14 5.890625 L 44.808594 5.890625 L 44.808594 41.15625 L 14 41.15625 Z M 14 5.890625 " clip-rule="nonzero"/></clipPath><clipPath id="1aa315d58b"><path d="M 2.933594 16 L 14 16 L 14 30 L 2.933594 30 Z M 2.933594 16 " clip-rule="nonzero"/></clipPath></defs><g clip-path="url(#52b03fa728)"><path fill="#000000" d="M 43.433594 16.667969 C 42.554688 14.570312 41.292969 12.6875 39.6875 11.070312 C 38.082031 9.453125 36.210938 8.179688 34.125 7.292969 C 31.96875 6.375 29.679688 5.910156 27.316406 5.910156 C 22.851562 5.910156 18.601562 7.601562 15.347656 10.679688 C 14.980469 11.027344 14.960938 11.609375 15.308594 11.976562 L 15.933594 12.648438 L 15.953125 12.625 L 16.5625 13.238281 C 16.695312 13.375 16.871094 13.441406 17.046875 13.441406 C 17.222656 13.441406 17.398438 13.375 17.53125 13.238281 C 17.796875 12.96875 17.796875 12.535156 17.53125 12.265625 L 16.960938 11.6875 C 19.59375 9.347656 22.902344 7.980469 26.40625 7.773438 L 26.40625 9.515625 C 26.40625 10.023438 26.8125 10.433594 27.316406 10.433594 C 27.820312 10.433594 28.230469 10.023438 28.230469 9.515625 L 28.230469 7.773438 C 31.742188 7.976562 35.039062 9.34375 37.675781 11.6875 L 36.957031 12.410156 C 36.691406 12.679688 36.691406 13.117188 36.957031 13.386719 C 37.09375 13.519531 37.269531 13.585938 37.441406 13.585938 C 37.617188 13.585938 37.792969 13.519531 37.925781 13.386719 L 38.664062 12.644531 C 41.183594 15.308594 42.679688 18.707031 42.941406 22.355469 L 41.167969 22.355469 C 40.664062 22.355469 40.257812 22.765625 40.257812 23.273438 C 40.257812 23.78125 40.664062 24.191406 41.167969 24.191406 L 42.96875 24.191406 C 42.820312 27.824219 41.457031 31.238281 39.070312 33.957031 L 38.070312 32.949219 C 37.804688 32.679688 37.371094 32.679688 37.105469 32.949219 C 36.835938 33.21875 36.835938 33.65625 37.105469 33.925781 L 38.121094 34.949219 C 35.417969 37.546875 31.945312 39.0625 28.230469 39.273438 L 28.230469 37.449219 C 28.230469 36.941406 27.820312 36.53125 27.316406 36.53125 C 26.8125 36.53125 26.40625 36.941406 26.40625 37.449219 L 26.40625 39.277344 C 22.6875 39.0625 19.21875 37.546875 16.511719 34.949219 L 17.382812 34.070312 C 17.652344 33.804688 17.652344 33.367188 17.382812 33.097656 C 17.117188 32.828125 16.683594 32.828125 16.414062 33.097656 L 15.410156 34.109375 C 15.398438 34.121094 15.382812 34.136719 15.371094 34.152344 L 14.898438 34.625 C 14.539062 34.984375 14.539062 35.566406 14.890625 35.925781 C 16.5 37.558594 18.378906 38.84375 20.472656 39.742188 C 22.640625 40.667969 24.941406 41.140625 27.316406 41.140625 C 29.679688 41.140625 31.96875 40.675781 34.125 39.757812 C 36.210938 38.867188 38.082031 37.597656 39.6875 35.980469 C 41.292969 34.363281 42.554688 32.480469 43.433594 30.382812 C 44.347656 28.210938 44.808594 25.902344 44.808594 23.523438 C 44.808594 21.148438 44.347656 18.839844 43.433594 16.667969 Z M 43.433594 16.667969 " fill-opacity="1" fill-rule="nonzero"/></g><g clip-path="url(#1aa315d58b)"><path fill="#000000" d="M 12.640625 27.429688 L 7.5625 27.429688 L 9.765625 25.210938 C 10.398438 24.707031 10.945312 24.222656 11.40625 23.753906 C 11.867188 23.28125 12.21875 22.792969 12.460938 22.277344 C 12.703125 21.765625 12.828125 21.207031 12.828125 20.605469 C 12.828125 19.816406 12.644531 19.121094 12.285156 18.515625 C 11.921875 17.914062 11.390625 17.441406 10.679688 17.097656 C 9.96875 16.753906 9.09375 16.582031 8.046875 16.582031 C 7.289062 16.582031 6.609375 16.699219 6.011719 16.929688 C 5.414062 17.160156 4.902344 17.476562 4.480469 17.878906 C 4.058594 18.277344 3.730469 18.738281 3.5 19.25 C 3.269531 19.765625 3.148438 20.308594 3.136719 20.886719 C 3.136719 20.988281 3.175781 21.078125 3.25 21.160156 C 3.324219 21.242188 3.421875 21.28125 3.546875 21.28125 L 5.527344 21.28125 C 5.652344 21.28125 5.773438 21.25 5.890625 21.1875 C 6.007812 21.125 6.085938 21.011719 6.125 20.847656 C 6.175781 20.523438 6.273438 20.222656 6.421875 19.945312 C 6.570312 19.671875 6.78125 19.449219 7.046875 19.277344 C 7.316406 19.109375 7.648438 19.023438 8.046875 19.023438 C 8.644531 19.023438 9.078125 19.183594 9.34375 19.503906 C 9.613281 19.824219 9.746094 20.226562 9.746094 20.71875 C 9.746094 21.09375 9.609375 21.480469 9.335938 21.882812 C 9.0625 22.285156 8.640625 22.726562 8.074219 23.21875 C 7.507812 23.707031 6.769531 24.300781 5.863281 25.003906 L 3.398438 27.464844 C 3.199219 27.628906 3.070312 27.792969 3.015625 27.964844 C 2.960938 28.132812 2.933594 28.269531 2.933594 28.367188 L 2.933594 29.496094 C 2.933594 29.632812 2.976562 29.746094 3.0625 29.835938 C 3.148438 29.921875 3.261719 29.964844 3.398438 29.964844 L 12.640625 29.964844 C 12.777344 29.964844 12.886719 29.921875 12.976562 29.835938 C 13.0625 29.746094 13.105469 29.632812 13.105469 29.496094 L 13.105469 27.898438 C 13.105469 27.761719 13.0625 27.648438 12.976562 27.558594 C 12.886719 27.472656 12.777344 27.429688 12.640625 27.429688 Z M 12.640625 27.429688 " fill-opacity="1" fill-rule="nonzero"/></g><path fill="#000000" d="M 19.433594 29.496094 C 19.433594 29.632812 19.476562 29.746094 19.566406 29.835938 C 19.652344 29.921875 19.757812 29.964844 19.882812 29.964844 L 21.84375 29.964844 C 21.96875 29.964844 22.074219 29.921875 22.160156 29.835938 C 22.246094 29.746094 22.292969 29.632812 22.292969 29.496094 L 22.292969 27.238281 L 23.972656 27.238281 C 24.097656 27.238281 24.203125 27.195312 24.289062 27.109375 C 24.375 27.019531 24.417969 26.910156 24.417969 26.769531 L 24.417969 25.191406 C 24.417969 25.066406 24.378906 24.960938 24.296875 24.871094 C 24.21875 24.785156 24.101562 24.738281 23.953125 24.738281 L 22.292969 24.738281 L 22.292969 17.277344 C 22.292969 17.140625 22.246094 17.027344 22.160156 16.9375 C 22.074219 16.851562 21.96875 16.808594 21.84375 16.808594 L 19.472656 16.808594 C 19.171875 16.808594 18.945312 16.914062 18.78125 17.125 L 13.3125 24.683594 C 13.25 24.773438 13.199219 24.867188 13.160156 24.964844 C 13.125 25.066406 13.105469 25.160156 13.105469 25.246094 L 13.105469 26.769531 C 13.105469 26.910156 13.148438 27.019531 13.238281 27.109375 C 13.324219 27.195312 13.429688 27.238281 13.554688 27.238281 L 19.433594 27.238281 Z M 16 24.835938 L 19.492188 19.890625 L 19.492188 24.835938 Z M 16 24.835938 " fill-opacity="1" fill-rule="nonzero"/><path fill="#000000" d="M 28.011719 16.75 C 27.921875 16.664062 27.816406 16.617188 27.691406 16.617188 L 25.675781 16.617188 C 25.539062 16.617188 25.425781 16.664062 25.339844 16.75 C 25.253906 16.839844 25.210938 16.949219 25.210938 17.089844 L 25.210938 29.496094 C 25.210938 29.632812 25.253906 29.746094 25.339844 29.835938 C 25.425781 29.921875 25.539062 29.964844 25.675781 29.964844 L 27.691406 29.964844 C 27.816406 29.964844 27.921875 29.921875 28.011719 29.835938 C 28.097656 29.746094 28.140625 29.632812 28.140625 29.496094 L 28.140625 24.363281 C 28.140625 23.699219 28.316406 23.183594 28.671875 22.8125 C 29.027344 22.445312 29.496094 22.257812 30.082031 22.257812 C 30.679688 22.257812 31.140625 22.445312 31.464844 22.8125 C 31.785156 23.183594 31.949219 23.699219 31.949219 24.363281 L 31.949219 29.496094 C 31.949219 29.632812 31.992188 29.746094 32.078125 29.835938 C 32.167969 29.921875 32.273438 29.964844 32.398438 29.964844 L 34.433594 29.964844 C 34.570312 29.964844 34.679688 29.921875 34.769531 29.835938 C 34.855469 29.746094 34.898438 29.632812 34.898438 29.496094 L 34.898438 24.25 C 34.898438 23.347656 34.738281 22.582031 34.414062 21.949219 C 34.089844 21.316406 33.644531 20.832031 33.078125 20.5 C 32.511719 20.167969 31.863281 20.003906 31.128906 20.003906 C 30.441406 20.003906 29.859375 20.121094 29.371094 20.359375 C 28.886719 20.597656 28.476562 20.917969 28.140625 21.320312 L 28.140625 17.089844 C 28.140625 16.949219 28.097656 16.839844 28.011719 16.75 Z M 28.011719 16.75 " fill-opacity="1" fill-rule="nonzero"/></svg>