<svg xmlns="http://www.w3.org/2000/svg" xmlns:xlink="http://www.w3.org/1999/xlink" width="64" zoomAndPan="magnify" viewBox="0 0 48 48" height="64" preserveAspectRatio="xMidYMid meet" version="1.0"><defs><clipPath id="7a1e383fcc"><path d="M 3.171875 2.679688 L 45.050781 2.679688 L 45.050781 44.558594 L 3.171875 44.558594 Z M 3.171875 2.679688 " clip-rule="nonzero"/></clipPath></defs><path fill="#000000" d="M 20.277344 25 L 20.277344 20.277344 L 17.304688 25 Z M 20.277344 25 " fill-opacity="1" fill-rule="nonzero"/><path fill="#000000" d="M 24.101562 7.28125 C 15.09375 7.28125 7.761719 14.609375 7.761719 23.621094 C 7.761719 32.628906 15.09375 39.960938 24.101562 39.960938 C 33.109375 39.960938 40.441406 32.628906 40.441406 23.621094 C 40.441406 14.609375 33.109375 7.28125 24.101562 7.28125 Z M 23.75 26.722656 L 22.164062 26.722656 L 22.164062 28.847656 L 20.261719 28.847656 L 20.261719 26.722656 L 15.394531 26.722656 L 15.394531 25.050781 L 19.476562 18.390625 L 22.164062 18.390625 L 22.164062 25 L 23.75 25 Z M 30.261719 28.847656 L 27.117188 23.792969 L 27.117188 28.847656 L 25.117188 28.847656 L 25.117188 18.390625 L 27.117188 18.390625 L 27.117188 23.15625 L 30.242188 18.390625 L 32.621094 18.390625 L 29.070312 23.378906 L 32.808594 28.847656 Z M 30.261719 28.847656 " fill-opacity="1" fill-rule="nonzero"/><g clip-path="url(#7a1e383fcc)"><path fill="#000000" d="M 44.601562 19.398438 C 44.324219 18.054688 43.910156 16.730469 43.378906 15.472656 C 42.851562 14.230469 42.207031 13.035156 41.449219 11.914062 C 40.699219 10.804688 39.839844 9.761719 38.890625 8.8125 C 37.941406 7.867188 36.902344 7.003906 35.789062 6.257812 C 34.671875 5.5 33.472656 4.851562 32.234375 4.328125 C 30.964844 3.792969 29.648438 3.378906 28.304688 3.105469 C 26.925781 2.820312 25.503906 2.679688 24.085938 2.679688 C 22.664062 2.679688 21.242188 2.828125 19.863281 3.105469 C 18.519531 3.378906 17.195312 3.792969 15.9375 4.328125 C 14.695312 4.851562 13.5 5.5 12.378906 6.257812 C 11.269531 7.003906 10.226562 7.867188 9.277344 8.8125 C 8.332031 9.761719 7.46875 10.804688 6.71875 11.914062 C 5.960938 13.035156 5.316406 14.230469 4.789062 15.472656 C 4.257812 16.738281 3.84375 18.054688 3.566406 19.398438 C 3.316406 20.777344 3.171875 22.199219 3.171875 23.621094 C 3.171875 25.042969 3.316406 26.460938 3.59375 27.839844 C 3.867188 29.183594 4.28125 30.511719 4.816406 31.769531 C 5.34375 33.007812 5.988281 34.207031 6.746094 35.324219 C 7.496094 36.4375 8.355469 37.480469 9.304688 38.425781 C 10.25 39.375 11.292969 40.234375 12.40625 40.984375 C 13.523438 41.742188 14.722656 42.386719 15.960938 42.914062 C 17.226562 43.449219 18.546875 43.863281 19.890625 44.136719 C 21.269531 44.421875 22.6875 44.558594 24.109375 44.558594 C 25.53125 44.558594 26.953125 44.414062 28.332031 44.136719 C 29.675781 43.863281 31 43.449219 32.257812 42.914062 C 33.5 42.386719 34.695312 41.742188 35.816406 40.984375 C 36.925781 40.234375 37.96875 39.375 38.917969 38.425781 C 39.863281 37.480469 40.726562 36.4375 41.472656 35.324219 C 42.234375 34.207031 42.878906 33.007812 43.402344 31.769531 C 43.9375 30.503906 44.351562 29.183594 44.625 27.839844 C 44.910156 26.460938 45.050781 25.042969 45.050781 23.621094 C 45.050781 22.199219 44.886719 20.777344 44.601562 19.398438 Z M 24.101562 43.042969 C 13.386719 43.042969 4.679688 34.328125 4.679688 23.621094 C 4.679688 12.914062 13.386719 4.199219 24.101562 4.199219 C 34.816406 4.199219 43.523438 12.90625 43.523438 23.621094 C 43.523438 34.335938 34.808594 43.042969 24.101562 43.042969 Z M 24.101562 43.042969 " fill-opacity="1" fill-rule="nonzero"/></g></svg>