<svg xmlns="http://www.w3.org/2000/svg" xmlns:xlink="http://www.w3.org/1999/xlink" width="64" zoomAndPan="magnify" viewBox="0 0 48 48" height="64" preserveAspectRatio="xMidYMid meet" version="1.0"><defs><clipPath id="2b57ab1751"><path d="M 2.855469 6 L 45.46875 6 L 45.46875 41.25 L 2.855469 41.25 Z M 2.855469 6 " clip-rule="nonzero"/></clipPath></defs><g clip-path="url(#2b57ab1751)"><path fill="#000000" d="M 38.265625 27.585938 C 39.507812 26.855469 40.34375 25.507812 40.34375 23.96875 C 40.34375 21.65625 38.460938 19.777344 36.148438 19.777344 C 33.832031 19.777344 31.949219 21.65625 31.949219 23.96875 C 31.949219 25.507812 32.785156 26.859375 34.03125 27.585938 C 31.917969 28.023438 30.136719 29.550781 29.398438 31.597656 C 28.507812 31.039062 27.503906 30.65625 26.425781 30.496094 C 28.148438 29.65625 29.339844 27.890625 29.339844 25.847656 C 29.339844 23 27.019531 20.679688 24.164062 20.679688 C 21.3125 20.679688 18.988281 23 18.988281 25.847656 C 18.988281 27.890625 20.179688 29.65625 21.902344 30.496094 C 20.828125 30.65625 19.820312 31.039062 18.929688 31.597656 C 18.191406 29.550781 16.414062 28.023438 14.296875 27.585938 C 15.542969 26.859375 16.378906 25.507812 16.378906 23.96875 C 16.378906 21.65625 14.496094 19.777344 12.183594 19.777344 C 9.867188 19.777344 7.984375 21.65625 7.984375 23.96875 C 7.984375 25.507812 8.820312 26.855469 10.0625 27.585938 C 7.457031 28.113281 5.414062 30.261719 5.105469 32.992188 C 5.011719 33.839844 5.261719 34.621094 5.828125 35.257812 C 6.398438 35.890625 7.148438 36.226562 8 36.226562 L 15.542969 36.226562 C 15.453125 36.574219 15.386719 36.929688 15.34375 37.296875 C 15.230469 38.324219 15.53125 39.277344 16.222656 40.050781 C 16.917969 40.824219 17.832031 41.230469 18.867188 41.230469 L 29.457031 41.230469 C 30.492188 41.230469 31.410156 40.824219 32.101562 40.050781 C 32.792969 39.277344 33.097656 38.324219 32.980469 37.296875 C 32.9375 36.929688 32.871094 36.574219 32.78125 36.226562 L 40.324219 36.226562 C 41.175781 36.226562 41.925781 35.890625 42.496094 35.257812 C 43.0625 34.621094 43.3125 33.839844 43.21875 32.992188 C 42.914062 30.261719 40.875 28.113281 38.265625 27.585938 Z M 33.007812 23.96875 C 33.007812 22.238281 34.414062 20.832031 36.148438 20.832031 C 37.878906 20.832031 39.285156 22.238281 39.285156 23.96875 C 39.285156 25.695312 37.878906 27.101562 36.148438 27.101562 C 34.414062 27.101562 33.007812 25.695312 33.007812 23.96875 Z M 20.046875 25.847656 C 20.046875 23.582031 21.894531 21.738281 24.164062 21.738281 C 26.433594 21.738281 28.28125 23.582031 28.28125 25.847656 C 28.28125 28.113281 26.433594 29.957031 24.164062 29.957031 C 21.894531 29.957031 20.046875 28.113281 20.046875 25.847656 Z M 9.042969 23.96875 C 9.042969 22.238281 10.453125 20.832031 12.183594 20.832031 C 13.914062 20.832031 15.324219 22.238281 15.324219 23.96875 C 15.324219 25.695312 13.914062 27.101562 12.183594 27.101562 C 10.453125 27.101562 9.042969 25.695312 9.042969 23.96875 Z M 15.898438 35.167969 L 8.003906 35.167969 C 7.453125 35.167969 6.988281 34.960938 6.621094 34.550781 C 6.253906 34.144531 6.097656 33.660156 6.160156 33.113281 C 6.457031 30.492188 8.671875 28.515625 11.316406 28.515625 L 13.050781 28.515625 C 15.351562 28.515625 17.394531 30.070312 18.035156 32.257812 C 17.113281 33.039062 16.375 34.03125 15.898438 35.167969 Z M 31.3125 39.34375 C 30.820312 39.894531 30.199219 40.171875 29.457031 40.171875 L 18.871094 40.171875 C 18.132812 40.171875 17.507812 39.894531 17.019531 39.34375 C 16.523438 38.796875 16.316406 38.144531 16.398438 37.414062 C 16.78125 34.023438 19.648438 31.464844 23.066406 31.464844 L 25.261719 31.464844 C 28.683594 31.464844 31.550781 34.023438 31.929688 37.414062 C 32.011719 38.144531 31.804688 38.796875 31.3125 39.34375 Z M 41.710938 34.550781 C 41.34375 34.960938 40.878906 35.167969 40.328125 35.167969 L 32.429688 35.167969 C 31.957031 34.03125 31.21875 33.039062 30.296875 32.253906 C 30.933594 30.070312 32.976562 28.515625 35.28125 28.515625 L 37.015625 28.515625 C 39.65625 28.515625 41.875 30.492188 42.167969 33.113281 C 42.230469 33.660156 42.074219 34.140625 41.710938 34.550781 Z M 21.730469 11.609375 L 21.132812 14.160156 C 21.082031 14.367188 21.164062 14.582031 21.335938 14.707031 C 21.429688 14.773438 21.539062 14.808594 21.648438 14.808594 C 21.742188 14.808594 21.835938 14.785156 21.921875 14.730469 L 24.164062 13.375 L 26.40625 14.730469 C 26.589844 14.84375 26.820312 14.832031 26.992188 14.707031 C 27.164062 14.582031 27.246094 14.367188 27.195312 14.160156 L 26.597656 11.609375 L 28.582031 9.898438 C 28.746094 9.761719 28.804688 9.539062 28.742188 9.335938 C 28.675781 9.132812 28.492188 8.988281 28.28125 8.972656 L 25.667969 8.753906 L 24.652344 6.339844 C 24.570312 6.144531 24.375 6.015625 24.164062 6.015625 C 23.949219 6.015625 23.757812 6.144531 23.675781 6.339844 L 22.660156 8.753906 L 20.046875 8.972656 C 19.832031 8.988281 19.652344 9.132812 19.585938 9.335938 C 19.519531 9.539062 19.582031 9.761719 19.746094 9.898438 Z M 23.070312 9.78125 C 23.265625 9.761719 23.4375 9.640625 23.511719 9.457031 L 24.167969 7.910156 L 24.820312 9.457031 C 24.894531 9.640625 25.066406 9.765625 25.261719 9.78125 L 26.941406 9.921875 L 25.664062 11.019531 C 25.515625 11.148438 25.449219 11.347656 25.496094 11.539062 L 25.878906 13.175781 L 24.441406 12.304688 C 24.273438 12.203125 24.058594 12.203125 23.890625 12.304688 L 22.453125 13.175781 L 22.835938 11.539062 C 22.882812 11.347656 22.816406 11.148438 22.667969 11.019531 L 21.390625 9.921875 Z M 13.164062 13.585938 L 12.5625 16.136719 C 12.515625 16.34375 12.59375 16.558594 12.765625 16.683594 C 12.9375 16.808594 13.171875 16.816406 13.351562 16.707031 L 15.59375 15.351562 L 17.839844 16.707031 C 17.921875 16.757812 18.015625 16.785156 18.113281 16.785156 C 18.222656 16.785156 18.332031 16.75 18.425781 16.683594 C 18.597656 16.558594 18.675781 16.34375 18.628906 16.136719 L 18.027344 13.585938 L 20.015625 11.875 C 20.175781 11.734375 20.238281 11.511719 20.171875 11.3125 C 20.105469 11.109375 19.925781 10.964844 19.714844 10.949219 L 17.101562 10.726562 L 16.082031 8.3125 C 16 8.117188 15.808594 7.992188 15.59375 7.992188 C 15.382812 7.992188 15.1875 8.117188 15.105469 8.3125 L 14.089844 10.726562 L 11.476562 10.949219 C 11.265625 10.964844 11.082031 11.109375 11.019531 11.3125 C 10.953125 11.511719 11.015625 11.734375 11.175781 11.875 Z M 14.5 11.753906 C 14.695312 11.738281 14.867188 11.617188 14.945312 11.433594 L 15.597656 9.882812 L 16.25 11.433594 C 16.328125 11.617188 16.496094 11.738281 16.695312 11.753906 L 18.371094 11.894531 L 17.097656 12.996094 C 16.949219 13.125 16.882812 13.324219 16.925781 13.515625 L 17.3125 15.152344 L 15.871094 14.28125 C 15.789062 14.230469 15.691406 14.203125 15.597656 14.203125 C 15.503906 14.203125 15.40625 14.230469 15.324219 14.28125 L 13.882812 15.152344 L 14.269531 13.515625 C 14.3125 13.324219 14.246094 13.125 14.097656 12.996094 L 12.824219 11.894531 Z M 7.503906 17.328125 L 9.746094 18.683594 C 9.832031 18.734375 9.925781 18.761719 10.019531 18.761719 C 10.128906 18.761719 10.238281 18.726562 10.332031 18.660156 C 10.503906 18.535156 10.585938 18.316406 10.535156 18.109375 L 9.9375 15.5625 L 11.921875 13.851562 C 12.082031 13.710938 12.144531 13.488281 12.078125 13.285156 C 12.011719 13.082031 11.832031 12.941406 11.621094 12.921875 L 9.007812 12.703125 L 7.992188 10.289062 C 7.90625 10.09375 7.714844 9.96875 7.503906 9.96875 C 7.289062 9.96875 7.097656 10.09375 7.015625 10.289062 L 5.996094 12.703125 L 3.382812 12.921875 C 3.171875 12.941406 2.992188 13.085938 2.925781 13.285156 C 2.859375 13.488281 2.921875 13.710938 3.082031 13.851562 L 5.070312 15.5625 L 4.46875 18.109375 C 4.421875 18.316406 4.5 18.535156 4.671875 18.660156 C 4.84375 18.785156 5.078125 18.792969 5.257812 18.683594 Z M 4.726562 13.871094 L 6.40625 13.730469 C 6.601562 13.714844 6.773438 13.589844 6.851562 13.410156 L 7.503906 11.859375 L 8.15625 13.410156 C 8.234375 13.589844 8.402344 13.714844 8.601562 13.730469 L 10.277344 13.871094 L 9.003906 14.96875 C 8.855469 15.097656 8.789062 15.300781 8.835938 15.492188 L 9.21875 17.128906 L 7.777344 16.257812 C 7.695312 16.207031 7.597656 16.179688 7.503906 16.179688 C 7.410156 16.179688 7.316406 16.207031 7.230469 16.257812 L 5.789062 17.128906 L 6.175781 15.492188 C 6.21875 15.300781 6.152344 15.097656 6.003906 14.96875 Z M 28.15625 11.3125 C 28.089844 11.515625 28.152344 11.734375 28.3125 11.875 L 30.300781 13.585938 L 29.699219 16.136719 C 29.652344 16.34375 29.734375 16.558594 29.90625 16.683594 C 30.078125 16.808594 30.308594 16.816406 30.488281 16.707031 L 32.734375 15.351562 L 34.976562 16.707031 C 35.0625 16.757812 35.15625 16.785156 35.25 16.785156 C 35.359375 16.785156 35.46875 16.75 35.5625 16.683594 C 35.734375 16.558594 35.816406 16.34375 35.765625 16.136719 L 35.167969 13.585938 L 37.152344 11.875 C 37.3125 11.734375 37.375 11.511719 37.308594 11.3125 C 37.242188 11.109375 37.0625 10.964844 36.851562 10.949219 L 34.238281 10.726562 L 33.222656 8.3125 C 33.136719 8.117188 32.945312 7.992188 32.734375 7.992188 C 32.519531 7.992188 32.328125 8.117188 32.246094 8.3125 L 31.226562 10.726562 L 28.613281 10.949219 C 28.402344 10.964844 28.222656 11.109375 28.15625 11.3125 Z M 31.636719 11.753906 C 31.835938 11.738281 32.003906 11.617188 32.082031 11.433594 L 32.734375 9.882812 L 33.386719 11.433594 C 33.464844 11.617188 33.632812 11.738281 33.832031 11.753906 L 35.507812 11.894531 L 34.234375 12.996094 C 34.085938 13.125 34.019531 13.324219 34.066406 13.515625 L 34.449219 15.152344 L 33.011719 14.28125 C 32.839844 14.179688 32.628906 14.179688 32.460938 14.28125 L 31.019531 15.152344 L 31.40625 13.515625 C 31.449219 13.324219 31.386719 13.125 31.234375 12.996094 L 29.960938 11.894531 Z M 45.40625 13.285156 C 45.339844 13.082031 45.160156 12.941406 44.945312 12.921875 L 42.332031 12.703125 L 41.316406 10.289062 C 41.234375 10.09375 41.042969 9.96875 40.828125 9.96875 C 40.617188 9.96875 40.421875 10.09375 40.339844 10.289062 L 39.324219 12.703125 L 36.710938 12.921875 C 36.496094 12.941406 36.316406 13.085938 36.25 13.285156 C 36.1875 13.488281 36.25 13.710938 36.410156 13.851562 L 38.394531 15.5625 L 37.796875 18.109375 C 37.746094 18.316406 37.828125 18.535156 38 18.660156 C 38.171875 18.785156 38.402344 18.792969 38.585938 18.683594 L 40.828125 17.328125 L 43.070312 18.683594 C 43.15625 18.734375 43.25 18.761719 43.34375 18.761719 C 43.453125 18.761719 43.566406 18.726562 43.65625 18.660156 C 43.828125 18.535156 43.910156 18.316406 43.859375 18.109375 L 43.261719 15.5625 L 45.246094 13.851562 C 45.410156 13.710938 45.472656 13.488281 45.40625 13.285156 Z M 42.328125 14.96875 C 42.179688 15.097656 42.113281 15.300781 42.160156 15.492188 L 42.542969 17.128906 L 41.101562 16.257812 C 41.019531 16.207031 40.925781 16.179688 40.828125 16.179688 C 40.734375 16.179688 40.640625 16.207031 40.554688 16.257812 L 39.113281 17.128906 L 39.5 15.492188 C 39.542969 15.300781 39.480469 15.097656 39.328125 14.96875 L 38.054688 13.871094 L 39.734375 13.730469 C 39.929688 13.714844 40.101562 13.589844 40.175781 13.410156 L 40.828125 11.859375 L 41.484375 13.410156 C 41.558594 13.589844 41.730469 13.714844 41.925781 13.730469 L 43.605469 13.871094 Z M 42.328125 14.96875 " fill-opacity="1" fill-rule="nonzero"/></g></svg>