<svg xmlns="http://www.w3.org/2000/svg" xmlns:xlink="http://www.w3.org/1999/xlink" width="64" zoomAndPan="magnify" viewBox="0 0 48 48" height="64" preserveAspectRatio="xMidYMid meet" version="1.0"><defs><clipPath id="7baf84c5ea"><path d="M 4.339844 6.53125 L 44.015625 6.53125 L 44.015625 40.324219 L 4.339844 40.324219 Z M 4.339844 6.53125 " clip-rule="nonzero"/></clipPath></defs><g clip-path="url(#7baf84c5ea)"><path fill="#000000" d="M 43.523438 10.3125 C 43.207031 9.578125 42.757812 8.917969 42.183594 8.351562 C 41.609375 7.789062 40.941406 7.34375 40.199219 7.03125 C 39.425781 6.710938 38.609375 6.546875 37.765625 6.546875 L 21.460938 6.546875 C 20.617188 6.546875 19.796875 6.710938 19.027344 7.03125 C 18.285156 7.34375 17.613281 7.789062 17.042969 8.351562 C 16.46875 8.917969 16.015625 9.578125 15.703125 10.3125 C 15.375 11.070312 15.210938 11.878906 15.210938 12.710938 L 15.210938 14.585938 L 10.589844 14.585938 C 9.746094 14.585938 8.929688 14.75 8.160156 15.070312 C 7.414062 15.382812 6.746094 15.824219 6.171875 16.390625 C 5.597656 16.957031 5.148438 17.617188 4.832031 18.351562 C 4.507812 19.109375 4.339844 19.917969 4.339844 20.75 L 4.339844 28.789062 C 4.339844 30.03125 4.714844 31.226562 5.421875 32.25 C 6.109375 33.25 7.070312 34.019531 8.195312 34.480469 C 8.671875 34.675781 8.933594 35.175781 8.824219 35.671875 L 8.015625 39.332031 C 7.941406 39.667969 8.089844 40.011719 8.382812 40.191406 C 8.515625 40.269531 8.664062 40.308594 8.808594 40.308594 C 8.996094 40.308594 9.179688 40.246094 9.328125 40.125 L 13.851562 36.46875 C 15.058594 35.488281 16.585938 34.949219 18.148438 34.949219 L 26.894531 34.949219 C 27.738281 34.949219 28.558594 34.789062 29.328125 34.464844 C 30.074219 34.15625 30.742188 33.710938 31.316406 33.144531 C 31.886719 32.578125 32.339844 31.921875 32.652344 31.1875 C 32.980469 30.425781 33.144531 29.621094 33.144531 28.789062 L 33.144531 27.570312 C 33.628906 27.800781 34.085938 28.089844 34.507812 28.429688 L 39.027344 32.089844 C 39.179688 32.210938 39.363281 32.269531 39.546875 32.269531 C 39.691406 32.269531 39.839844 32.230469 39.972656 32.152344 C 40.265625 31.972656 40.417969 31.628906 40.34375 31.296875 L 39.53125 27.632812 C 39.421875 27.136719 39.6875 26.636719 40.160156 26.445312 C 41.285156 25.980469 42.246094 25.210938 42.933594 24.210938 C 43.640625 23.1875 44.015625 21.992188 44.015625 20.75 L 44.015625 12.710938 C 44.015625 11.878906 43.847656 11.070312 43.523438 10.3125 Z M 31.515625 28.789062 C 31.515625 31.300781 29.441406 33.34375 26.894531 33.34375 L 18.148438 33.34375 C 16.207031 33.34375 14.3125 34.011719 12.816406 35.222656 L 10.109375 37.414062 L 10.417969 36.011719 C 10.695312 34.757812 10.023438 33.488281 8.820312 32.996094 C 7.089844 32.289062 5.972656 30.636719 5.972656 28.789062 L 5.972656 20.75 C 5.972656 18.238281 8.042969 16.195312 10.589844 16.195312 L 26.894531 16.195312 C 26.933594 16.195312 26.976562 16.195312 27.015625 16.195312 C 28.753906 16.238281 30.257812 17.238281 31.007812 18.675781 C 31.042969 18.742188 31.074219 18.808594 31.105469 18.875 C 31.183594 19.042969 31.25 19.21875 31.308594 19.394531 C 31.328125 19.46875 31.351562 19.539062 31.371094 19.613281 C 31.386719 19.683594 31.40625 19.757812 31.421875 19.832031 C 31.484375 20.128906 31.515625 20.433594 31.515625 20.75 Z M 42.382812 20.75 C 42.382812 22.597656 41.265625 24.25 39.535156 24.957031 C 38.332031 25.449219 37.660156 26.71875 37.9375 27.976562 L 38.25 29.378906 L 35.539062 27.1875 C 34.820312 26.601562 34.015625 26.144531 33.144531 25.828125 L 33.144531 20.75 C 33.144531 19.917969 32.980469 19.109375 32.652344 18.351562 C 32.632812 18.304688 32.613281 18.257812 32.59375 18.214844 C 32.324219 17.625 31.964844 17.085938 31.523438 16.609375 C 31.457031 16.535156 31.386719 16.460938 31.316406 16.390625 C 30.742188 15.824219 30.074219 15.382812 29.328125 15.070312 C 28.558594 14.75 27.738281 14.585938 26.894531 14.585938 L 16.839844 14.585938 L 16.839844 12.710938 C 16.839844 10.199219 18.914062 8.15625 21.460938 8.15625 L 37.765625 8.15625 C 40.3125 8.15625 42.382812 10.199219 42.382812 12.710938 Z M 42.382812 20.75 " fill-opacity="1" fill-rule="nonzero"/></g><path fill="#000000" d="M 26.894531 19.945312 L 10.589844 19.945312 C 10.140625 19.945312 9.777344 20.304688 9.777344 20.75 C 9.777344 21.191406 10.140625 21.554688 10.589844 21.554688 L 26.894531 21.554688 C 27.347656 21.554688 27.710938 21.191406 27.710938 20.75 C 27.710938 20.304688 27.347656 19.945312 26.894531 19.945312 Z M 26.894531 19.945312 " fill-opacity="1" fill-rule="nonzero"/><path fill="#000000" d="M 18.742188 25.304688 L 10.589844 25.304688 C 10.140625 25.304688 9.777344 25.664062 9.777344 26.109375 C 9.777344 26.550781 10.140625 26.910156 10.589844 26.910156 L 18.742188 26.910156 C 19.195312 26.910156 19.558594 26.550781 19.558594 26.109375 C 19.558594 25.664062 19.195312 25.304688 18.742188 25.304688 Z M 18.742188 25.304688 " fill-opacity="1" fill-rule="nonzero"/></svg>