<svg xmlns="http://www.w3.org/2000/svg" xmlns:xlink="http://www.w3.org/1999/xlink" width="64" zoomAndPan="magnify" viewBox="0 0 48 48" height="64" preserveAspectRatio="xMidYMid meet" version="1.0"><defs><clipPath id="182a75192d"><path d="M 2.6875 4 L 45.296875 4 L 45.296875 43.386719 L 2.6875 43.386719 Z M 2.6875 4 " clip-rule="nonzero"/></clipPath></defs><g clip-path="url(#182a75192d)"><path fill="#000000" d="M 42.246094 42.792969 L 42.246094 43.386719 L 30.941406 43.386719 L 30.941406 42.792969 C 30.941406 42.46875 31.042969 42.195312 31.164062 42.195312 L 42.023438 42.195312 C 42.144531 42.195312 42.246094 42.46875 42.246094 42.792969 Z M 27.917969 38.652344 C 27.917969 38.777344 28.023438 38.882812 28.148438 38.882812 L 45.039062 38.882812 C 45.164062 38.882812 45.269531 38.777344 45.269531 38.652344 L 45.269531 37.609375 L 27.917969 37.609375 Z M 45.039062 24.648438 L 28.148438 24.648438 C 28.023438 24.648438 27.917969 24.753906 27.917969 24.878906 L 27.917969 36.140625 L 45.265625 36.140625 L 45.265625 24.878906 C 45.265625 24.753906 45.164062 24.648438 45.039062 24.648438 Z M 35.277344 40.355469 L 35.277344 41.242188 L 38.320312 41.242188 L 38.320312 40.355469 Z M 19.835938 24.648438 L 2.945312 24.648438 C 2.820312 24.648438 2.714844 24.753906 2.714844 24.878906 L 2.714844 36.140625 L 20.0625 36.140625 L 20.0625 24.878906 C 20.0625 24.753906 19.960938 24.648438 19.835938 24.648438 Z M 16.820312 42.195312 L 5.960938 42.195312 C 5.839844 42.195312 5.738281 42.46875 5.738281 42.792969 L 5.738281 43.386719 L 17.039062 43.386719 L 17.039062 42.792969 C 17.039062 42.46875 16.941406 42.195312 16.820312 42.195312 Z M 9.871094 40.28125 L 9.871094 41.167969 L 12.910156 41.167969 L 12.910156 40.28125 Z M 2.714844 38.652344 C 2.714844 38.777344 2.820312 38.882812 2.945312 38.882812 L 19.835938 38.882812 C 19.960938 38.882812 20.0625 38.777344 20.0625 38.652344 L 20.0625 37.609375 L 2.714844 37.609375 Z M 23.992188 13.726562 C 22.460938 13.726562 21.214844 14.949219 21.214844 16.453125 C 21.214844 17.957031 22.460938 19.183594 23.992188 19.183594 C 25.523438 19.183594 26.769531 17.957031 26.769531 16.453125 C 26.769531 14.949219 25.523438 13.726562 23.992188 13.726562 Z M 29.570312 10.832031 C 29.859375 10.546875 29.859375 10.078125 29.570312 9.792969 C 28.082031 8.296875 26.101562 7.476562 23.992188 7.476562 C 21.882812 7.476562 19.902344 8.296875 18.410156 9.792969 C 18.125 10.078125 18.125 10.546875 18.410156 10.832031 C 18.699219 11.121094 19.164062 11.121094 19.449219 10.832031 C 20.664062 9.617188 22.277344 8.945312 23.992188 8.945312 C 25.707031 8.945312 27.320312 9.617188 28.535156 10.832031 C 28.675781 10.976562 28.863281 11.046875 29.054688 11.046875 C 29.242188 11.046875 29.429688 10.976562 29.570312 10.832031 Z M 28.726562 16.523438 C 28.726562 16.929688 29.054688 17.257812 29.460938 17.257812 L 35.859375 17.257812 L 35.859375 23.140625 L 37.328125 23.140625 L 37.328125 16.523438 C 37.328125 16.117188 37 15.789062 36.59375 15.789062 L 29.460938 15.789062 C 29.054688 15.789062 28.726562 16.117188 28.726562 16.523438 Z M 17.527344 8.90625 C 21.089844 5.328125 26.890625 5.328125 30.457031 8.90625 C 30.601562 9.046875 30.789062 9.121094 30.976562 9.121094 C 31.164062 9.121094 31.351562 9.046875 31.496094 8.90625 C 31.78125 8.617188 31.78125 8.152344 31.496094 7.863281 C 27.359375 3.714844 20.625 3.714844 16.488281 7.863281 C 16.203125 8.152344 16.203125 8.617188 16.488281 8.90625 C 16.773438 9.191406 17.238281 9.191406 17.527344 8.90625 Z M 12.125 17.257812 L 18.523438 17.257812 C 18.925781 17.257812 19.253906 16.929688 19.253906 16.523438 C 19.253906 16.117188 18.925781 15.789062 18.523438 15.789062 L 11.390625 15.789062 C 10.984375 15.789062 10.65625 16.117188 10.65625 16.523438 L 10.65625 23.140625 L 12.125 23.140625 Z M 23.992188 10.203125 C 22.609375 10.203125 21.3125 10.742188 20.335938 11.71875 C 20.046875 12.007812 20.046875 12.472656 20.335938 12.761719 C 20.621094 13.046875 21.085938 13.046875 21.371094 12.761719 C 22.074219 12.058594 23.003906 11.671875 23.992188 11.671875 C 24.980469 11.671875 25.910156 12.058594 26.609375 12.761719 C 26.753906 12.90625 26.941406 12.976562 27.128906 12.976562 C 27.316406 12.976562 27.503906 12.90625 27.648438 12.761719 C 27.933594 12.472656 27.933594 12.007812 27.648438 11.71875 C 26.671875 10.742188 25.375 10.203125 23.992188 10.203125 Z M 23.992188 10.203125 " fill-opacity="1" fill-rule="nonzero"/></g></svg>