<svg xmlns="http://www.w3.org/2000/svg" xmlns:xlink="http://www.w3.org/1999/xlink" width="64" zoomAndPan="magnify" viewBox="0 0 48 48" height="64" preserveAspectRatio="xMidYMid meet" version="1.0"><defs><clipPath id="89c9f892e4"><path d="M 15 6 L 45.191406 6 L 45.191406 34 L 15 34 Z M 15 6 " clip-rule="nonzero"/></clipPath><clipPath id="5305582612"><path d="M 8 42 L 18 42 L 18 44.367188 L 8 44.367188 Z M 8 42 " clip-rule="nonzero"/></clipPath><clipPath id="685f4dcdac"><path d="M 5 42 L 8 42 L 8 44.367188 L 5 44.367188 Z M 5 42 " clip-rule="nonzero"/></clipPath><clipPath id="fcf3fc5dd1"><path d="M 2.578125 24 L 17 24 L 17 36 L 2.578125 36 Z M 2.578125 24 " clip-rule="nonzero"/></clipPath><clipPath id="8b1f2a262b"><path d="M 3 2.492188 L 21 2.492188 L 21 15 L 3 15 Z M 3 2.492188 " clip-rule="nonzero"/></clipPath><clipPath id="efd00c6706"><path d="M 27 2.492188 L 35 2.492188 L 35 5 L 27 5 Z M 27 2.492188 " clip-rule="nonzero"/></clipPath><clipPath id="fe7693194c"><path d="M 36 2.492188 L 38 2.492188 L 38 5 L 36 5 Z M 36 2.492188 " clip-rule="nonzero"/></clipPath><clipPath id="7a4dc3e378"><path d="M 39 2.492188 L 41 2.492188 L 41 5 L 39 5 Z M 39 2.492188 " clip-rule="nonzero"/></clipPath></defs><g clip-path="url(#89c9f892e4)"><path fill="#000000" d="M 42.132812 33.707031 L 15.523438 33.707031 L 15.523438 32.183594 L 42.132812 32.183594 C 42.972656 32.183594 43.652344 31.5 43.652344 30.660156 L 43.652344 9.339844 C 43.652344 8.5 42.972656 7.816406 42.132812 7.816406 L 19.320312 7.816406 L 19.320312 6.292969 L 42.132812 6.292969 C 43.808594 6.292969 45.175781 7.660156 45.175781 9.339844 L 45.175781 30.660156 C 45.175781 32.339844 43.808594 33.707031 42.132812 33.707031 Z M 42.132812 33.707031 " fill-opacity="1" fill-rule="nonzero"/></g><path fill="#000000" d="M 9.441406 13.910156 L 10.960938 13.910156 L 10.960938 25.332031 L 9.441406 25.332031 Z M 9.441406 13.910156 " fill-opacity="1" fill-rule="nonzero"/><path fill="#000000" d="M 17.042969 39.035156 L 37.570312 39.035156 L 37.570312 40.558594 L 17.042969 40.558594 Z M 17.042969 39.035156 " fill-opacity="1" fill-rule="nonzero"/><path fill="#000000" d="M 18.261719 39.492188 L 21.265625 32.636719 L 22.660156 33.25 L 19.652344 40.101562 Z M 18.261719 39.492188 " fill-opacity="1" fill-rule="nonzero"/><path fill="#000000" d="M 31.96875 33.253906 L 33.355469 32.628906 L 36.449219 39.480469 L 35.066406 40.109375 Z M 31.96875 33.253906 " fill-opacity="1" fill-rule="nonzero"/><g clip-path="url(#5305582612)"><path fill="#000000" d="M 8.679688 42.84375 L 17.042969 42.84375 L 17.042969 44.367188 L 8.679688 44.367188 Z M 8.679688 42.84375 " fill-opacity="1" fill-rule="nonzero"/></g><g clip-path="url(#685f4dcdac)"><path fill="#000000" d="M 5.636719 42.84375 L 7.160156 42.84375 L 7.160156 44.367188 L 5.636719 44.367188 Z M 5.636719 42.84375 " fill-opacity="1" fill-rule="nonzero"/></g><path fill="#000000" d="M 13.242188 29.136719 L 11.722656 29.136719 L 11.722656 30.660156 L 13.242188 30.660156 Z M 13.242188 29.136719 " fill-opacity="1" fill-rule="nonzero"/><path fill="#000000" d="M 10.199219 29.136719 L 8.679688 29.136719 L 8.679688 30.660156 L 10.199219 30.660156 Z M 10.199219 29.136719 " fill-opacity="1" fill-rule="nonzero"/><path fill="#000000" d="M 7.160156 29.136719 L 5.636719 29.136719 L 5.636719 30.660156 L 7.160156 30.660156 Z M 7.160156 29.136719 " fill-opacity="1" fill-rule="nonzero"/><g clip-path="url(#fcf3fc5dd1)"><path fill="#000000" d="M 14.761719 35.230469 L 4.117188 35.230469 C 3.28125 35.230469 2.597656 34.546875 2.597656 33.707031 L 2.597656 26.09375 C 2.597656 25.253906 3.28125 24.570312 4.117188 24.570312 L 14.761719 24.570312 C 15.601562 24.570312 16.28125 25.253906 16.28125 26.09375 L 16.28125 33.707031 C 16.28125 34.546875 15.601562 35.230469 14.761719 35.230469 Z M 4.117188 26.09375 L 4.117188 33.707031 L 14.761719 33.707031 L 14.761719 26.09375 Z M 4.117188 26.09375 " fill-opacity="1" fill-rule="nonzero"/></g><g clip-path="url(#8b1f2a262b)"><path fill="#000000" d="M 18.578125 14.667969 L 4.863281 14.667969 C 4.03125 14.667969 3.359375 13.992188 3.359375 13.164062 L 3.359375 3.992188 C 3.359375 3.164062 4.035156 2.488281 4.863281 2.488281 L 18.578125 2.488281 C 19.410156 2.488281 20.082031 3.164062 20.082031 3.992188 L 20.082031 13.164062 C 20.082031 13.996094 19.410156 14.667969 18.578125 14.667969 Z M 4.878906 4.007812 L 4.878906 13.164062 L 18.578125 13.148438 L 18.5625 3.992188 Z M 4.878906 4.007812 " fill-opacity="1" fill-rule="nonzero"/></g><path fill="#000000" d="M 4.558594 10.71875 L 3.675781 9.480469 L 9.523438 5.300781 L 12.785156 8.566406 L 11.710938 9.644531 L 9.359375 7.289062 Z M 4.558594 10.71875 " fill-opacity="1" fill-rule="nonzero"/><path fill="#000000" d="M 10.933594 11.234375 L 9.945312 10.078125 L 15.503906 5.304688 L 19.800781 8.746094 L 18.847656 9.933594 L 15.539062 7.28125 Z M 10.933594 11.234375 " fill-opacity="1" fill-rule="nonzero"/><path fill="#000000" d="M 29.207031 16.191406 L 27.6875 16.191406 L 27.6875 12.386719 L 21.605469 12.386719 L 21.605469 10.863281 L 27.6875 10.863281 C 28.527344 10.863281 29.207031 11.546875 29.207031 12.386719 Z M 29.207031 16.191406 " fill-opacity="1" fill-rule="nonzero"/><path fill="#000000" d="M 12.480469 16.191406 L 14 16.191406 L 14 23.046875 L 12.480469 23.046875 Z M 12.480469 16.191406 " fill-opacity="1" fill-rule="nonzero"/><path fill="#000000" d="M 15.523438 26.09375 L 25.402344 26.09375 L 25.402344 27.613281 L 15.523438 27.613281 Z M 15.523438 26.09375 " fill-opacity="1" fill-rule="nonzero"/><path fill="#000000" d="M 20.082031 24.570312 C 18.40625 24.570312 17.042969 23.203125 17.042969 21.523438 C 17.042969 19.84375 18.40625 18.476562 20.082031 18.476562 C 21.761719 18.476562 23.125 19.84375 23.125 21.523438 C 23.125 23.203125 21.761719 24.570312 20.082031 24.570312 Z M 20.082031 20 C 19.246094 20 18.5625 20.683594 18.5625 21.523438 C 18.5625 22.363281 19.246094 23.046875 20.082031 23.046875 C 20.921875 23.046875 21.605469 22.363281 21.605469 21.523438 C 21.605469 20.683594 20.921875 20 20.082031 20 Z M 20.082031 20 " fill-opacity="1" fill-rule="nonzero"/><path fill="#000000" d="M 21.605469 14.667969 L 23.125 14.667969 L 23.125 21.523438 L 21.605469 21.523438 Z M 21.605469 14.667969 " fill-opacity="1" fill-rule="nonzero"/><path fill="#000000" d="M 25.40625 19.238281 L 23.886719 19.238281 C 23.886719 18.265625 23.339844 17.636719 22.757812 16.96875 C 22.191406 16.316406 21.605469 15.640625 21.605469 14.667969 L 23.125 14.667969 C 23.125 15.050781 23.421875 15.410156 23.90625 15.96875 C 24.574219 16.738281 25.40625 17.695312 25.40625 19.238281 Z M 25.40625 19.238281 " fill-opacity="1" fill-rule="nonzero"/><path fill="#000000" d="M 40.613281 30.660156 L 28.449219 30.660156 C 27.609375 30.660156 26.925781 29.976562 26.925781 29.136719 L 26.925781 19.238281 C 26.925781 18.398438 27.609375 17.714844 28.449219 17.714844 L 34.53125 17.714844 L 34.53125 19.238281 L 28.449219 19.238281 L 28.449219 29.136719 L 40.613281 29.136719 L 40.613281 19.238281 L 39.09375 19.238281 L 39.09375 17.714844 L 40.613281 17.714844 C 41.449219 17.714844 42.132812 18.398438 42.132812 19.238281 L 42.132812 29.136719 C 42.132812 29.976562 41.449219 30.660156 40.613281 30.660156 Z M 40.613281 30.660156 " fill-opacity="1" fill-rule="nonzero"/><path fill="#000000" d="M 36.050781 17.714844 L 37.570312 17.714844 L 37.570312 19.238281 L 36.050781 19.238281 Z M 36.050781 17.714844 " fill-opacity="1" fill-rule="nonzero"/><path fill="#000000" d="M 34.53125 27.667969 L 34.257812 27.566406 C 33.820312 27.398438 29.96875 25.855469 29.96875 23.460938 C 29.96875 21.46875 32.390625 19.949219 34.53125 21.253906 C 34.96875 20.988281 35.507812 20.761719 36.160156 20.761719 C 37.777344 20.761719 39.09375 21.972656 39.09375 23.460938 C 39.09375 25.855469 35.242188 27.398438 34.800781 27.566406 Z M 32.902344 22.285156 C 32.121094 22.285156 31.488281 22.8125 31.488281 23.460938 C 31.488281 24.441406 33.386719 25.542969 34.53125 26.03125 C 35.671875 25.542969 37.570312 24.441406 37.570312 23.460938 C 37.570312 22.8125 36.9375 22.285156 36.160156 22.285156 C 35.738281 22.285156 35.386719 22.484375 34.992188 22.789062 L 34.523438 23.140625 L 34.0625 22.78125 C 33.636719 22.449219 33.253906 22.285156 32.902344 22.285156 Z M 32.902344 22.285156 " fill-opacity="1" fill-rule="nonzero"/><g clip-path="url(#efd00c6706)"><path fill="#000000" d="M 27.6875 2.488281 L 34.53125 2.488281 L 34.53125 4.007812 L 27.6875 4.007812 Z M 27.6875 2.488281 " fill-opacity="1" fill-rule="nonzero"/></g><g clip-path="url(#fe7693194c)"><path fill="#000000" d="M 36.050781 2.488281 L 37.570312 2.488281 L 37.570312 4.007812 L 36.050781 4.007812 Z M 36.050781 2.488281 " fill-opacity="1" fill-rule="nonzero"/></g><g clip-path="url(#7a4dc3e378)"><path fill="#000000" d="M 39.09375 2.488281 L 40.613281 2.488281 L 40.613281 4.007812 L 39.09375 4.007812 Z M 39.09375 2.488281 " fill-opacity="1" fill-rule="nonzero"/></g></svg>