<svg xmlns="http://www.w3.org/2000/svg" xmlns:xlink="http://www.w3.org/1999/xlink" width="64" zoomAndPan="magnify" viewBox="0 0 48 48" height="64" preserveAspectRatio="xMidYMid meet" version="1.0"><defs><clipPath id="b2a5e41f2a"><path d="M 8 4.703125 L 42.660156 4.703125 L 42.660156 39 L 8 39 Z M 8 4.703125 " clip-rule="nonzero"/></clipPath><clipPath id="598ddd9210"><path d="M 5.191406 23 L 10 23 L 10 28 L 5.191406 28 Z M 5.191406 23 " clip-rule="nonzero"/></clipPath><clipPath id="4eb96f4275"><path d="M 5.191406 28 L 12 28 L 12 35 L 5.191406 35 Z M 5.191406 28 " clip-rule="nonzero"/></clipPath><clipPath id="771b8265f4"><path d="M 19 37 L 24 37 L 24 42.171875 L 19 42.171875 Z M 19 37 " clip-rule="nonzero"/></clipPath></defs><g clip-path="url(#b2a5e41f2a)"><path fill="#000000" d="M 41.929688 4.722656 C 39.703125 4.722656 37.113281 5.207031 34.40625 6.113281 C 34.402344 6.113281 34.402344 6.113281 34.398438 6.113281 C 34.398438 6.113281 34.398438 6.113281 34.394531 6.117188 C 34.175781 6.1875 33.957031 6.261719 33.738281 6.339844 C 33.714844 6.347656 33.691406 6.355469 33.671875 6.367188 C 33.125 6.5625 32.585938 6.777344 32.058594 7 C 32.054688 7 32.050781 7.003906 32.050781 7.003906 C 28.765625 8.386719 25.851562 10.226562 23.886719 12.195312 L 20.058594 16.023438 L 16.863281 16.023438 C 15.324219 16.023438 13.878906 16.621094 12.792969 17.710938 L 8.957031 21.542969 C 8.75 21.753906 8.6875 22.066406 8.804688 22.335938 C 8.917969 22.601562 9.179688 22.773438 9.464844 22.773438 C 9.472656 22.773438 9.476562 22.773438 9.484375 22.773438 L 15.59375 22.625 C 15.300781 24.226562 15.476562 25.890625 16.164062 27.386719 C 14.082031 29.523438 12.484375 32.339844 13.785156 33.644531 C 14.113281 33.96875 14.535156 34.113281 15.019531 34.113281 C 16.460938 34.113281 18.445312 32.820312 20.046875 31.257812 C 21.082031 31.730469 22.195312 31.976562 23.316406 31.976562 C 23.8125 31.976562 24.3125 31.925781 24.804688 31.835938 L 24.65625 37.949219 C 24.652344 38.242188 24.824219 38.511719 25.09375 38.625 C 25.183594 38.664062 25.28125 38.683594 25.378906 38.683594 C 25.5625 38.683594 25.75 38.609375 25.886719 38.472656 L 29.722656 34.636719 C 30.808594 33.550781 31.40625 32.105469 31.40625 30.566406 L 31.40625 27.371094 L 35.207031 23.566406 C 37.1875 21.59375 39.035156 18.660156 40.414062 15.351562 C 40.648438 14.800781 40.867188 14.238281 41.070312 13.667969 C 41.144531 13.457031 41.214844 13.246094 41.285156 13.035156 C 41.285156 13.03125 41.292969 13.027344 41.292969 13.019531 C 41.296875 13.011719 41.296875 13.003906 41.300781 12.992188 C 42.203125 10.273438 42.679688 7.675781 42.667969 5.4375 C 42.664062 5.042969 42.324219 4.722656 41.929688 4.722656 Z M 15.992188 21.175781 L 11.246094 21.289062 L 13.808594 18.726562 C 14.625 17.910156 15.710938 17.460938 16.863281 17.460938 L 18.617188 17.460938 L 17.945312 18.132812 C 17.0625 19.015625 16.410156 20.0625 15.992188 21.175781 Z M 18.707031 25.289062 C 18.238281 25.589844 17.757812 25.941406 17.285156 26.34375 C 16.839844 25.132812 16.777344 23.816406 17.070312 22.558594 C 17.496094 23.589844 18.152344 24.566406 18.707031 25.289062 Z M 19.179688 30.101562 C 16.914062 32.367188 15.042969 32.863281 14.804688 32.625 C 14.566406 32.386719 15.066406 30.515625 17.332031 28.25 C 18.332031 27.25 19.402344 26.453125 20.347656 26.011719 C 20.902344 25.75 21.285156 25.679688 21.5 25.679688 C 21.617188 25.679688 21.683594 25.703125 21.707031 25.722656 C 21.769531 25.785156 21.820312 26.226562 21.417969 27.082031 C 20.976562 28.027344 20.179688 29.097656 19.179688 30.101562 Z M 21.085938 30.144531 C 21.488281 29.667969 21.839844 29.191406 22.140625 28.71875 C 22.875 29.28125 23.859375 29.933594 24.902344 30.351562 C 23.636719 30.652344 22.308594 30.589844 21.085938 30.144531 Z M 29.96875 30.566406 C 29.96875 31.71875 29.519531 32.804688 28.703125 33.621094 L 26.140625 36.183594 L 26.253906 31.429688 C 27.371094 31.011719 28.417969 30.363281 29.300781 29.480469 L 29.96875 28.808594 Z M 34.191406 22.546875 L 28.285156 28.460938 C 28.023438 28.722656 27.746094 28.957031 27.457031 29.167969 C 27.453125 29.171875 27.453125 29.171875 27.449219 29.171875 C 26.59375 29.667969 24.769531 28.960938 22.832031 27.425781 C 23.457031 25.921875 23.132812 25.117188 22.722656 24.707031 C 22.3125 24.296875 21.507812 23.972656 20 24.601562 C 18.550781 22.777344 17.824219 21.023438 18.164062 20.105469 C 18.402344 19.769531 18.667969 19.449219 18.964844 19.148438 L 24.902344 13.210938 C 26.558594 11.554688 28.953125 9.988281 31.683594 8.734375 C 31.972656 10.144531 32.890625 11.714844 34.296875 13.121094 C 35.703125 14.523438 37.273438 15.4375 38.683594 15.726562 C 37.429688 18.476562 35.855469 20.886719 34.191406 22.546875 Z M 39.261719 14.371094 C 38.09375 14.234375 36.601562 13.386719 35.3125 12.101562 C 34.027344 10.816406 33.175781 9.320312 33.039062 8.152344 C 33.390625 8.011719 33.742188 7.875 34.097656 7.746094 C 34.097656 7.753906 34.101562 7.765625 34.097656 7.773438 C 34.0625 8.5 34.667969 9.921875 36.078125 11.332031 C 37.496094 12.75 38.925781 13.347656 39.652344 13.308594 C 39.65625 13.308594 39.664062 13.3125 39.667969 13.3125 C 39.539062 13.667969 39.402344 14.019531 39.261719 14.371094 Z M 40.128906 11.902344 C 39.945312 11.878906 39.757812 11.863281 39.570312 11.875 C 39.332031 11.902344 38.296875 11.515625 37.089844 10.3125 C 35.898438 9.121094 35.535156 8.085938 35.535156 7.851562 C 35.546875 7.660156 35.535156 7.46875 35.507812 7.277344 C 37.527344 6.652344 39.496094 6.265625 41.214844 6.179688 C 41.136719 7.898438 40.75 9.875 40.128906 11.902344 Z M 40.128906 11.902344 " fill-opacity="1" fill-rule="nonzero"/></g><path fill="#000000" d="M 28.816406 13.8125 C 27.511719 13.8125 26.285156 14.320312 25.363281 15.242188 C 24.441406 16.164062 23.933594 17.390625 23.933594 18.695312 C 23.933594 19.996094 24.441406 21.222656 25.363281 22.144531 C 26.285156 23.066406 27.511719 23.574219 28.816406 23.574219 C 30.117188 23.574219 31.34375 23.066406 32.265625 22.144531 C 33.1875 21.222656 33.695312 19.996094 33.695312 18.695312 C 33.695312 17.390625 33.1875 16.164062 32.265625 15.242188 C 31.34375 14.320312 30.117188 13.8125 28.816406 13.8125 Z M 31.25 21.128906 C 30.597656 21.777344 29.734375 22.136719 28.816406 22.136719 C 27.894531 22.136719 27.03125 21.777344 26.382812 21.128906 C 25.730469 20.476562 25.375 19.613281 25.375 18.695312 C 25.375 17.773438 25.730469 16.910156 26.382812 16.261719 C 27.03125 15.609375 27.894531 15.253906 28.816406 15.253906 C 29.734375 15.253906 30.597656 15.609375 31.25 16.261719 C 31.898438 16.910156 32.257812 17.773438 32.257812 18.695312 C 32.257812 19.613281 31.898438 20.476562 31.25 21.128906 Z M 31.25 21.128906 " fill-opacity="1" fill-rule="nonzero"/><g clip-path="url(#598ddd9210)"><path fill="#000000" d="M 6.484375 27.691406 L 9.492188 24.683594 C 9.773438 24.402344 9.773438 23.949219 9.492188 23.667969 C 9.210938 23.386719 8.757812 23.386719 8.476562 23.667969 L 5.46875 26.671875 C 5.1875 26.953125 5.1875 27.410156 5.46875 27.691406 C 5.609375 27.832031 5.792969 27.902344 5.976562 27.902344 C 6.160156 27.902344 6.34375 27.832031 6.484375 27.691406 Z M 6.484375 27.691406 " fill-opacity="1" fill-rule="nonzero"/></g><path fill="#000000" d="M 13.183594 34.226562 C 12.902344 33.945312 12.445312 33.945312 12.164062 34.226562 L 7.511719 38.878906 C 7.230469 39.160156 7.230469 39.613281 7.511719 39.894531 C 7.652344 40.035156 7.835938 40.105469 8.019531 40.105469 C 8.207031 40.105469 8.390625 40.035156 8.53125 39.894531 L 13.183594 35.246094 C 13.460938 34.964844 13.460938 34.507812 13.183594 34.226562 Z M 13.183594 34.226562 " fill-opacity="1" fill-rule="nonzero"/><g clip-path="url(#4eb96f4275)"><path fill="#000000" d="M 11.078125 28.902344 C 10.796875 28.621094 10.34375 28.621094 10.0625 28.902344 L 6.125 32.839844 C 5.84375 33.121094 5.84375 33.574219 6.125 33.855469 C 6.265625 33.996094 6.449219 34.066406 6.632812 34.066406 C 6.816406 34.066406 7 33.996094 7.140625 33.855469 L 11.078125 29.917969 C 11.359375 29.636719 11.359375 29.183594 11.078125 28.902344 Z M 11.078125 28.902344 " fill-opacity="1" fill-rule="nonzero"/></g><g clip-path="url(#771b8265f4)"><path fill="#000000" d="M 22.726562 37.917969 L 19.71875 40.921875 C 19.4375 41.203125 19.4375 41.660156 19.71875 41.941406 C 19.859375 42.082031 20.042969 42.152344 20.226562 42.152344 C 20.410156 42.152344 20.59375 42.082031 20.734375 41.941406 L 23.742188 38.933594 C 24.023438 38.652344 24.023438 38.199219 23.742188 37.917969 C 23.460938 37.636719 23.007812 37.636719 22.726562 37.917969 Z M 22.726562 37.917969 " fill-opacity="1" fill-rule="nonzero"/></g><path fill="#000000" d="M 17.492188 36.332031 L 13.554688 40.269531 C 13.273438 40.550781 13.273438 41.003906 13.554688 41.285156 C 13.691406 41.425781 13.878906 41.496094 14.0625 41.496094 C 14.246094 41.496094 14.429688 41.425781 14.570312 41.285156 L 18.507812 37.347656 C 18.789062 37.066406 18.789062 36.613281 18.507812 36.332031 C 18.226562 36.050781 17.773438 36.050781 17.492188 36.332031 Z M 17.492188 36.332031 " fill-opacity="1" fill-rule="nonzero"/></svg>