<svg xmlns="http://www.w3.org/2000/svg" xmlns:xlink="http://www.w3.org/1999/xlink" width="64" zoomAndPan="magnify" viewBox="0 0 48 48" height="64" preserveAspectRatio="xMidYMid meet" version="1.0"><defs><g/></defs><g fill="#000000" fill-opacity="1"><g transform="translate(4.404336, 26.089548)"><g><path d="M 0.328125 0 L 0.328125 -9 L 2.984375 -9 L 2.984375 -6.140625 L 5.125 -9 L 8.484375 -9 L 5.1875 -4.609375 L 8.75 0 L 5.390625 0 L 2.984375 -3.109375 L 2.984375 0 Z M 0.328125 0 "/></g></g></g><g fill="#000000" fill-opacity="1"><g transform="translate(12.247151, 26.089548)"><g><path d="M 5.046875 -9.125 C 6.398438 -9.125 7.535156 -8.679688 8.453125 -7.796875 C 9.367188 -6.898438 9.828125 -5.800781 9.828125 -4.5 C 9.828125 -3.1875 9.367188 -2.085938 8.453125 -1.203125 C 7.535156 -0.316406 6.398438 0.125 5.046875 0.125 C 3.679688 0.125 2.546875 -0.316406 1.640625 -1.203125 C 0.710938 -2.085938 0.25 -3.1875 0.25 -4.5 C 0.25 -5.800781 0.710938 -6.898438 1.640625 -7.796875 C 2.554688 -8.679688 3.691406 -9.125 5.046875 -9.125 Z M 3.03125 -4.515625 C 3.03125 -3.921875 3.21875 -3.421875 3.59375 -3.015625 C 3.976562 -2.628906 4.460938 -2.4375 5.046875 -2.4375 C 5.617188 -2.4375 6.097656 -2.628906 6.484375 -3.015625 C 6.867188 -3.421875 7.0625 -3.921875 7.0625 -4.515625 C 7.0625 -5.097656 6.867188 -5.585938 6.484375 -5.984375 C 6.097656 -6.378906 5.617188 -6.578125 5.046875 -6.578125 C 4.472656 -6.578125 3.992188 -6.378906 3.609375 -5.984375 C 3.222656 -5.585938 3.03125 -5.097656 3.03125 -4.515625 Z M 3.03125 -4.515625 "/></g></g></g><g fill="#000000" fill-opacity="1"><g transform="translate(22.327106, 26.089548)"><g><path d="M 4.125 0 L 0.328125 0 L 0.328125 -9 L 4.125 -9 C 5.476562 -9 6.613281 -8.566406 7.53125 -7.703125 C 8.445312 -6.835938 8.90625 -5.769531 8.90625 -4.5 C 8.90625 -3.226562 8.445312 -2.160156 7.53125 -1.296875 C 6.613281 -0.429688 5.476562 0 4.125 0 Z M 4.125 -6.5625 L 2.984375 -6.5625 L 2.984375 -2.4375 L 4.125 -2.4375 C 4.695312 -2.4375 5.175781 -2.632812 5.5625 -3.03125 C 5.945312 -3.4375 6.140625 -3.925781 6.140625 -4.5 C 6.140625 -5.070312 5.945312 -5.554688 5.5625 -5.953125 C 5.175781 -6.359375 4.695312 -6.5625 4.125 -6.5625 Z M 4.125 -6.5625 "/></g></g></g><g fill="#000000" fill-opacity="1"><g transform="translate(30.72278, 26.089548)"><g><path d="M 5.453125 -3.46875 L 4.796875 -5.171875 L 4.125 -3.46875 Z M 9.5625 0 L 6.796875 0 L 6.34375 -1.15625 L 3.234375 -1.15625 L 2.78125 0 L 0 0 L 3.671875 -9 L 5.890625 -9 Z M 9.5625 0 "/></g></g></g><g fill="#000000" fill-opacity="1"><g transform="translate(40.288452, 26.089548)"><g><path d="M 2.984375 0 L 0.328125 0 L 0.328125 -9 L 2.984375 -9 Z M 2.984375 0 "/></g></g></g></svg>