<svg xmlns="http://www.w3.org/2000/svg" xmlns:xlink="http://www.w3.org/1999/xlink" width="64" zoomAndPan="magnify" viewBox="0 0 48 48" height="64" preserveAspectRatio="xMidYMid meet" version="1.0"><defs><g/></defs><g fill="#000000" fill-opacity="1"><g transform="translate(4.920918, 20.787002)"><g><path d="M 2.578125 -2.15625 L 2.578125 0 L 0.28125 0 L 0.28125 -7.765625 L 3.890625 -7.765625 C 4.753906 -7.765625 5.476562 -7.5 6.0625 -6.96875 C 6.644531 -6.4375 6.9375 -5.769531 6.9375 -4.96875 C 6.9375 -4.164062 6.644531 -3.5 6.0625 -2.96875 C 5.476562 -2.425781 4.753906 -2.15625 3.890625 -2.15625 Z M 3.890625 -5.65625 L 2.578125 -5.65625 L 2.578125 -4.265625 L 3.890625 -4.265625 C 4.078125 -4.265625 4.234375 -4.332031 4.359375 -4.46875 C 4.484375 -4.601562 4.546875 -4.769531 4.546875 -4.96875 C 4.546875 -5.164062 4.484375 -5.328125 4.359375 -5.453125 C 4.234375 -5.585938 4.078125 -5.65625 3.890625 -5.65625 Z M 3.890625 -5.65625 "/></g></g></g><g fill="#000000" fill-opacity="1"><g transform="translate(11.622701, 20.787002)"><g><path d="M 6.234375 -2.109375 L 2.515625 -2.109375 C 2.691406 -1.773438 2.972656 -1.609375 3.359375 -1.609375 C 3.648438 -1.609375 3.890625 -1.71875 4.078125 -1.9375 L 6.21875 -1.609375 C 5.96875 -1.085938 5.585938 -0.671875 5.078125 -0.359375 C 4.566406 -0.046875 3.976562 0.109375 3.3125 0.109375 C 2.394531 0.109375 1.628906 -0.175781 1.015625 -0.75 C 0.410156 -1.332031 0.109375 -2.046875 0.109375 -2.890625 C 0.109375 -3.734375 0.40625 -4.441406 1 -5.015625 C 1.59375 -5.585938 2.335938 -5.875 3.234375 -5.875 C 4.117188 -5.875 4.851562 -5.585938 5.4375 -5.015625 C 6.03125 -4.441406 6.328125 -3.734375 6.328125 -2.890625 C 6.328125 -2.609375 6.296875 -2.347656 6.234375 -2.109375 Z M 2.515625 -3.65625 L 4.09375 -3.65625 C 3.925781 -3.988281 3.664062 -4.15625 3.3125 -4.15625 C 2.957031 -4.15625 2.691406 -3.988281 2.515625 -3.65625 Z M 2.515625 -3.65625 "/></g></g></g><g fill="#000000" fill-opacity="1"><g transform="translate(18.058884, 20.787002)"><g><path d="M 2.4375 -5.765625 L 2.4375 -5.390625 C 2.789062 -5.710938 3.21875 -5.875 3.71875 -5.875 C 3.757812 -5.875 3.796875 -5.875 3.828125 -5.875 C 3.867188 -5.875 3.898438 -5.875 3.921875 -5.875 L 3.921875 -3.640625 C 3.765625 -3.796875 3.550781 -3.875 3.28125 -3.875 C 3.039062 -3.875 2.835938 -3.785156 2.671875 -3.609375 C 2.515625 -3.441406 2.4375 -3.234375 2.4375 -2.984375 L 2.4375 0 L 0.21875 0 L 0.21875 -5.765625 Z M 2.4375 -5.765625 "/></g></g></g><g fill="#000000" fill-opacity="1"><g transform="translate(22.035801, 20.787002)"><g><path d="M 3 -5.96875 L 3 -5.765625 L 4.03125 -5.765625 L 4.03125 -3.953125 L 3 -3.953125 L 3 0 L 0.78125 0 L 0.78125 -3.953125 L 0.0625 -3.953125 L 0.0625 -5.765625 L 0.78125 -5.765625 L 0.78125 -6.265625 C 0.78125 -6.859375 1.015625 -7.347656 1.484375 -7.734375 C 1.960938 -8.128906 2.546875 -8.328125 3.234375 -8.328125 L 4.03125 -8.328125 L 4.03125 -6.3125 L 3.46875 -6.3125 C 3.332031 -6.3125 3.21875 -6.273438 3.125 -6.203125 C 3.039062 -6.140625 3 -6.0625 3 -5.96875 Z M 3 -5.96875 "/></g></g></g><g fill="#000000" fill-opacity="1"><g transform="translate(26.123499, 20.787002)"><g><path d="M 6.234375 -2.109375 L 2.515625 -2.109375 C 2.691406 -1.773438 2.972656 -1.609375 3.359375 -1.609375 C 3.648438 -1.609375 3.890625 -1.71875 4.078125 -1.9375 L 6.21875 -1.609375 C 5.96875 -1.085938 5.585938 -0.671875 5.078125 -0.359375 C 4.566406 -0.046875 3.976562 0.109375 3.3125 0.109375 C 2.394531 0.109375 1.628906 -0.175781 1.015625 -0.75 C 0.410156 -1.332031 0.109375 -2.046875 0.109375 -2.890625 C 0.109375 -3.734375 0.40625 -4.441406 1 -5.015625 C 1.59375 -5.585938 2.335938 -5.875 3.234375 -5.875 C 4.117188 -5.875 4.851562 -5.585938 5.4375 -5.015625 C 6.03125 -4.441406 6.328125 -3.734375 6.328125 -2.890625 C 6.328125 -2.609375 6.296875 -2.347656 6.234375 -2.109375 Z M 2.515625 -3.65625 L 4.09375 -3.65625 C 3.925781 -3.988281 3.664062 -4.15625 3.3125 -4.15625 C 2.957031 -4.15625 2.691406 -3.988281 2.515625 -3.65625 Z M 2.515625 -3.65625 "/></g></g></g><g fill="#000000" fill-opacity="1"><g transform="translate(32.559682, 20.787002)"><g><path d="M 6.296875 -3.734375 L 4.0625 -3.078125 C 4.007812 -3.265625 3.90625 -3.414062 3.75 -3.53125 C 3.601562 -3.65625 3.4375 -3.71875 3.25 -3.71875 C 3.019531 -3.71875 2.820312 -3.632812 2.65625 -3.46875 C 2.5 -3.3125 2.421875 -3.128906 2.421875 -2.921875 C 2.421875 -2.671875 2.5 -2.460938 2.65625 -2.296875 C 2.820312 -2.128906 3.019531 -2.046875 3.25 -2.046875 C 3.4375 -2.046875 3.601562 -2.101562 3.75 -2.21875 C 3.90625 -2.34375 4.007812 -2.503906 4.0625 -2.703125 L 6.296875 -2.046875 C 6.085938 -1.398438 5.707031 -0.878906 5.15625 -0.484375 C 4.613281 -0.0859375 3.976562 0.109375 3.25 0.109375 C 2.363281 0.109375 1.617188 -0.175781 1.015625 -0.75 C 0.410156 -1.320312 0.109375 -2.035156 0.109375 -2.890625 C 0.109375 -3.742188 0.410156 -4.453125 1.015625 -5.015625 C 1.609375 -5.585938 2.351562 -5.875 3.25 -5.875 C 3.976562 -5.875 4.613281 -5.675781 5.15625 -5.28125 C 5.707031 -4.894531 6.085938 -4.378906 6.296875 -3.734375 Z M 6.296875 -3.734375 "/></g></g></g><g fill="#000000" fill-opacity="1"><g transform="translate(38.851855, 20.787002)"><g><path d="M 0.0625 -3.84375 L 0.0625 -5.765625 L 0.78125 -5.765625 L 0.78125 -6.859375 L 3 -6.859375 L 3 -5.765625 L 4.046875 -5.765625 L 4.046875 -3.84375 L 3 -3.84375 L 3 -2.421875 C 3 -2.296875 3.039062 -2.195312 3.125 -2.125 C 3.21875 -2.050781 3.332031 -2.015625 3.46875 -2.015625 L 4.0625 -2.015625 L 4.0625 0 L 2.90625 0 C 2.3125 0 1.804688 -0.175781 1.390625 -0.53125 C 0.984375 -0.882812 0.78125 -1.328125 0.78125 -1.859375 L 0.78125 -3.84375 Z M 0.0625 -3.84375 "/></g></g></g><g fill="#000000" fill-opacity="1"><g transform="translate(7.836734, 30.338022)"><g><path d="M 2.578125 -2.15625 L 2.578125 0 L 0.28125 0 L 0.28125 -7.765625 L 3.890625 -7.765625 C 4.753906 -7.765625 5.476562 -7.5 6.0625 -6.96875 C 6.644531 -6.4375 6.9375 -5.769531 6.9375 -4.96875 C 6.9375 -4.164062 6.644531 -3.5 6.0625 -2.96875 C 5.476562 -2.425781 4.753906 -2.15625 3.890625 -2.15625 Z M 3.890625 -5.65625 L 2.578125 -5.65625 L 2.578125 -4.265625 L 3.890625 -4.265625 C 4.078125 -4.265625 4.234375 -4.332031 4.359375 -4.46875 C 4.484375 -4.601562 4.546875 -4.769531 4.546875 -4.96875 C 4.546875 -5.164062 4.484375 -5.328125 4.359375 -5.453125 C 4.234375 -5.585938 4.078125 -5.65625 3.890625 -5.65625 Z M 3.890625 -5.65625 "/></g></g></g><g fill="#000000" fill-opacity="1"><g transform="translate(14.871112, 30.338022)"><g><path d="M 2.4375 0 L 0.21875 0 L 0.21875 -8.328125 L 2.4375 -8.328125 Z M 2.4375 0 "/></g></g></g><g fill="#000000" fill-opacity="1"><g transform="translate(17.529781, 30.338022)"><g><path d="M 2.6875 -5.875 C 3.15625 -5.875 3.578125 -5.75 3.953125 -5.5 L 3.953125 -5.765625 L 6.171875 -5.765625 L 6.171875 0 L 3.953125 0 L 3.953125 -0.265625 C 3.578125 -0.015625 3.15625 0.109375 2.6875 0.109375 C 1.957031 0.109375 1.34375 -0.175781 0.84375 -0.75 C 0.351562 -1.320312 0.109375 -2.035156 0.109375 -2.890625 C 0.109375 -3.742188 0.351562 -4.453125 0.84375 -5.015625 C 1.34375 -5.585938 1.957031 -5.875 2.6875 -5.875 Z M 2.421875 -2.90625 C 2.421875 -2.664062 2.492188 -2.460938 2.640625 -2.296875 C 2.796875 -2.128906 2.976562 -2.046875 3.1875 -2.046875 C 3.394531 -2.046875 3.570312 -2.128906 3.71875 -2.296875 C 3.863281 -2.460938 3.9375 -2.664062 3.9375 -2.90625 C 3.9375 -3.125 3.863281 -3.3125 3.71875 -3.46875 C 3.570312 -3.632812 3.394531 -3.71875 3.1875 -3.71875 C 2.976562 -3.71875 2.796875 -3.632812 2.640625 -3.46875 C 2.492188 -3.3125 2.421875 -3.125 2.421875 -2.90625 Z M 2.421875 -2.90625 "/></g></g></g><g fill="#000000" fill-opacity="1"><g transform="translate(23.921649, 30.338022)"><g><path d="M 2.078125 0.015625 L 0 -5.765625 L 2.28125 -5.765625 L 3.125 -2.984375 L 4 -5.765625 L 6.28125 -5.765625 L 4.109375 0.296875 C 3.816406 1.078125 3.410156 1.640625 2.890625 1.984375 C 2.367188 2.328125 1.679688 2.5 0.828125 2.5 L 0.671875 2.5 L 0.671875 0.375 L 0.84375 0.375 C 1.414062 0.375 1.828125 0.253906 2.078125 0.015625 Z M 2.078125 0.015625 "/></g></g></g><g fill="#000000" fill-opacity="1"><g transform="translate(29.748191, 30.338022)"><g><path d="M 6.234375 -2.109375 L 2.515625 -2.109375 C 2.691406 -1.773438 2.972656 -1.609375 3.359375 -1.609375 C 3.648438 -1.609375 3.890625 -1.71875 4.078125 -1.9375 L 6.21875 -1.609375 C 5.96875 -1.085938 5.585938 -0.671875 5.078125 -0.359375 C 4.566406 -0.046875 3.976562 0.109375 3.3125 0.109375 C 2.394531 0.109375 1.628906 -0.175781 1.015625 -0.75 C 0.410156 -1.332031 0.109375 -2.046875 0.109375 -2.890625 C 0.109375 -3.734375 0.40625 -4.441406 1 -5.015625 C 1.59375 -5.585938 2.335938 -5.875 3.234375 -5.875 C 4.117188 -5.875 4.851562 -5.585938 5.4375 -5.015625 C 6.03125 -4.441406 6.328125 -3.734375 6.328125 -2.890625 C 6.328125 -2.609375 6.296875 -2.347656 6.234375 -2.109375 Z M 2.515625 -3.65625 L 4.09375 -3.65625 C 3.925781 -3.988281 3.664062 -4.15625 3.3125 -4.15625 C 2.957031 -4.15625 2.691406 -3.988281 2.515625 -3.65625 Z M 2.515625 -3.65625 "/></g></g></g><g fill="#000000" fill-opacity="1"><g transform="translate(36.184375, 30.338022)"><g><path d="M 2.4375 -5.765625 L 2.4375 -5.390625 C 2.789062 -5.710938 3.21875 -5.875 3.71875 -5.875 C 3.757812 -5.875 3.796875 -5.875 3.828125 -5.875 C 3.867188 -5.875 3.898438 -5.875 3.921875 -5.875 L 3.921875 -3.640625 C 3.765625 -3.796875 3.550781 -3.875 3.28125 -3.875 C 3.039062 -3.875 2.835938 -3.785156 2.671875 -3.609375 C 2.515625 -3.441406 2.4375 -3.234375 2.4375 -2.984375 L 2.4375 0 L 0.21875 0 L 0.21875 -5.765625 Z M 2.4375 -5.765625 "/></g></g></g></svg>