<svg xmlns="http://www.w3.org/2000/svg" xmlns:xlink="http://www.w3.org/1999/xlink" width="64" zoomAndPan="magnify" viewBox="0 0 48 48" height="64" preserveAspectRatio="xMidYMid meet" version="1.0"><defs><clipPath id="6f0bab1a77"><path d="M 4.363281 3.824219 L 43.300781 3.824219 L 43.300781 43 L 4.363281 43 Z M 4.363281 3.824219 " clip-rule="nonzero"/></clipPath></defs><g clip-path="url(#6f0bab1a77)"><path fill="#000000" d="M 23.984375 3.859375 C 13.082031 3.894531 4.367188 12.761719 4.511719 23.660156 C 4.535156 25.871094 4.929688 28.015625 5.683594 30.09375 C 6.441406 32.171875 7.519531 34.0625 8.921875 35.773438 C 9.148438 36.046875 9.273438 36.363281 9.304688 36.714844 C 9.335938 37.070312 9.265625 37.402344 9.09375 37.710938 L 7.410156 40.730469 C 6.941406 41.566406 7.703125 42.554688 8.632812 42.316406 L 14.332031 40.867188 C 14.742188 40.761719 15.140625 40.804688 15.519531 40.988281 C 18.070312 42.226562 20.765625 42.878906 23.601562 42.9375 C 34.5625 43.1875 43.558594 34.429688 43.59375 23.464844 C 43.628906 12.621094 34.828125 3.824219 23.984375 3.859375 Z M 24.050781 40.535156 C 23.488281 40.535156 22.929688 40.507812 22.371094 40.453125 C 21.8125 40.398438 21.257812 40.316406 20.707031 40.207031 C 20.15625 40.097656 19.613281 39.960938 19.078125 39.796875 C 18.539062 39.636719 18.011719 39.445312 17.496094 39.230469 C 16.976562 39.015625 16.46875 38.777344 15.972656 38.511719 C 15.480469 38.25 15 37.960938 14.53125 37.648438 C 14.066406 37.335938 13.613281 37.003906 13.179688 36.648438 C 12.746094 36.289062 12.332031 35.914062 11.933594 35.515625 C 11.539062 35.121094 11.164062 34.707031 10.804688 34.273438 C 10.449219 33.835938 10.117188 33.386719 9.804688 32.921875 C 9.492188 32.453125 9.203125 31.972656 8.941406 31.480469 C 8.675781 30.984375 8.4375 30.476562 8.222656 29.957031 C 8.007812 29.441406 7.816406 28.914062 7.65625 28.375 C 7.492188 27.839844 7.355469 27.292969 7.246094 26.746094 C 7.136719 26.195312 7.054688 25.640625 7 25.082031 C 6.945312 24.523438 6.917969 23.960938 6.917969 23.402344 C 6.917969 13.9375 14.589844 6.265625 24.050781 6.265625 C 33.476562 6.265625 41.125 13.878906 41.1875 23.292969 C 41.246094 32.734375 33.496094 40.535156 24.050781 40.535156 Z M 24.050781 40.535156 " fill-opacity="1" fill-rule="nonzero"/></g><path fill="#000000" d="M 20.988281 15.070312 L 20.996094 15.085938 L 22.019531 17.113281 C 22.246094 17.5625 22.316406 18.039062 22.226562 18.535156 C 22.136719 19.03125 21.90625 19.453125 21.539062 19.796875 C 21.171875 20.136719 20.941406 20.554688 20.851562 21.046875 C 20.761719 21.542969 20.828125 22.015625 21.050781 22.464844 C 21.664062 23.695312 22.726562 25.394531 24.347656 26.617188 C 24.71875 26.902344 25.140625 27.054688 25.605469 27.078125 C 26.074219 27.101562 26.503906 26.996094 26.90625 26.753906 L 27.5625 26.351562 C 28.195312 25.96875 28.855469 25.90625 29.546875 26.167969 L 32.164062 27.164062 C 32.445312 27.269531 32.695312 27.425781 32.914062 27.632812 C 33.132812 27.839844 33.304688 28.082031 33.429688 28.355469 C 33.550781 28.628906 33.617188 28.917969 33.625 29.21875 C 33.636719 29.519531 33.585938 29.808594 33.480469 30.089844 C 33.449219 30.171875 33.414062 30.25 33.375 30.324219 L 32.648438 31.730469 C 32.53125 31.960938 32.378906 32.160156 32.191406 32.339844 C 32.003906 32.515625 31.792969 32.65625 31.558594 32.761719 C 31.324219 32.867188 31.078125 32.929688 30.820312 32.953125 C 30.5625 32.972656 30.308594 32.949219 30.0625 32.886719 C 25.953125 31.824219 16.160156 28.128906 15.371094 16.957031 C 15.339844 16.503906 15.433594 16.078125 15.65625 15.679688 C 15.878906 15.285156 16.195312 14.984375 16.597656 14.777344 L 17.933594 14.089844 C 18.199219 13.953125 18.484375 13.871094 18.785156 13.847656 C 19.082031 13.820312 19.378906 13.855469 19.664062 13.949219 C 19.949219 14.039062 20.207031 14.183594 20.4375 14.378906 C 20.667969 14.570312 20.851562 14.804688 20.988281 15.070312 Z M 20.988281 15.070312 " fill-opacity="1" fill-rule="nonzero"/></svg>